<svg width="28" height="29" viewBox="0 0 28 29" fill="none" xmlns="http://www.w3.org/2000/svg">
<path d="M9.89094 21.0342L9.89094 14.4942L8.40294 14.8902L8.40294 13.5942L10.5869 12.6342L11.5709 12.6342L11.5709 21.0342L9.89094 21.0342ZM16.23 21.1782C15.622 21.1782 15.094 21.0702 14.646 20.8542C14.206 20.6382 13.862 20.3422 13.614 19.9662C13.366 19.5902 13.222 19.1622 13.182 18.6822L14.766 18.6822C14.822 18.9942 14.982 19.2582 15.246 19.4742C15.51 19.6902 15.842 19.7982 16.242 19.7982C16.53 19.7982 16.782 19.7262 16.998 19.5822C17.214 19.4382 17.382 19.2462 17.502 19.0062C17.622 18.7582 17.682 18.4782 17.682 18.1662C17.682 17.8462 17.618 17.5702 17.49 17.3382C17.37 17.1062 17.202 16.9262 16.986 16.7982C16.778 16.6702 16.538 16.6062 16.266 16.6062C15.922 16.6062 15.626 16.6902 15.378 16.8582C15.138 17.0182 14.966 17.2142 14.862 17.4462L13.29 17.4462L13.986 12.6342L18.702 12.6342L18.702 14.0502L15.186 14.0502L14.838 15.9222C15.014 15.7382 15.25 15.5902 15.546 15.4782C15.842 15.3582 16.174 15.2982 16.542 15.2982C16.998 15.2982 17.394 15.3782 17.73 15.5382C18.066 15.6902 18.346 15.9022 18.57 16.1742C18.794 16.4382 18.962 16.7422 19.074 17.0862C19.186 17.4222 19.242 17.7782 19.242 18.1542C19.242 18.5942 19.166 18.9982 19.014 19.3662C18.87 19.7342 18.662 20.0542 18.39 20.3262C18.126 20.5982 17.81 20.8102 17.442 20.9622C17.082 21.1062 16.678 21.1782 16.23 21.1782Z" fill="#AAAAAA"/>
<path fill-rule="evenodd" clip-rule="evenodd" d="M6.4878 5.83203C6.92277 6.27109 6.96259 6.37087 6.76025 7.35184L6.26371 8.80162L9.98448 6.9103C14.8174 4.46722 20.6973 6.4414 23.1176 11.3198C25.5379 16.1981 23.5822 22.1333 18.7493 24.5764C13.9164 27.0195 8.03647 25.0453 5.61615 20.1669C5.28205 19.4936 5.03099 18.7989 4.85954 18.0952C4.73045 17.5654 5.0513 17.0303 5.57616 16.9C6.10103 16.7697 6.63116 17.0936 6.76025 17.6234C6.89713 18.1852 7.0979 18.7413 7.36629 19.2822C9.30255 23.1849 14.0065 24.7643 17.8728 22.8098C21.7391 20.8553 23.3037 16.1072 21.3675 12.2045C19.4312 8.30179 14.7273 6.72245 10.861 8.67691L7.13365 10.5579L8.73909 11.129C9.03606 11.3198 9.24097 11.3198 9.24097 12.2045C8.80601 13.0826 7.04807 12.3116 8.2372 12.6488L4.64384 11.5538C4.36662 11.484 4.13345 11.2954 4.00552 11.0376C3.87759 10.7797 3.86767 10.4783 3.97837 10.2124L5.06058 6.91027C5.49556 6.03215 5.98952 5.62063 6.4878 5.83203Z" fill="#AAAAAA"/>
</svg>
