<svg width="140" height="19" viewBox="0 0 140 19" fill="none" xmlns="http://www.w3.org/2000/svg">
<g id="&#232;&#181;&#132;&#230;&#186;&#144; 13AI&#229;&#144;&#142;&#231;&#188;&#128; 1" clip-path="url(#clip0_230_243)">
<g id="&#229;&#155;&#190;&#229;&#177;&#130; 2">
<g id="&#229;&#155;&#190;&#229;&#177;&#130; 1">
<path id="Vector" d="M0 18.5925V1.27344H6.41543C7.74336 1.27344 8.89883 1.52388 9.88184 2.02478C10.8348 2.49795 11.6328 3.22626 12.1841 4.12598C12.736 5.0259 13.0119 6.07862 13.0119 7.28416C13.0119 8.47272 12.7403 9.51696 12.1971 10.4169C11.6679 11.3037 10.8973 12.0272 9.97238 12.5053C8.98624 13.0088 7.88829 13.2627 6.77759 13.2439H4.52702V18.5925H0ZM6.41543 5.2721H4.52702V9.37263H6.67412C6.92281 9.37947 7.1698 9.33024 7.39622 9.22871C7.62263 9.12719 7.82248 8.97605 7.98049 8.78684C8.32301 8.37979 8.50244 7.86342 8.48493 7.3351C8.50399 6.79217 8.30937 6.26296 7.94169 5.85789C7.57952 5.46736 7.07077 5.2721 6.41543 5.2721Z" fill="white"/>
<path id="Vector_2" d="M21.0312 19.0002C20.0742 19.0082 19.1249 18.8308 18.2374 18.478C17.3927 18.142 16.6268 17.6393 15.9868 17.0008C15.3465 16.3619 14.841 15.6045 14.4994 14.7723C14.139 13.8902 13.9588 12.9468 13.9691 11.9961C13.9588 11.0454 14.139 10.1021 14.4994 9.22C14.8386 8.39031 15.3445 7.63664 15.9869 7.00422C16.6292 6.3718 17.3947 5.87367 18.2374 5.53971C20.0373 4.84353 22.0381 4.84353 23.838 5.53971C24.6774 5.87654 25.4396 6.37584 26.0795 7.00801C26.7194 7.64018 27.2239 8.39236 27.5631 9.22C27.9228 10.1023 28.103 11.0455 28.0934 11.9961C28.103 12.9468 27.9228 13.89 27.5631 14.7723C27.2205 15.604 26.7151 16.3612 26.0756 17.0008C25.4386 17.6368 24.6774 18.1393 23.838 18.478C22.9466 18.833 21.9927 19.0104 21.0312 19.0002ZM21.0312 15.2053C21.8754 15.2053 22.5523 14.9039 23.0619 14.3011C23.5715 13.6983 23.8259 12.93 23.825 11.9961C23.825 11.0453 23.5707 10.277 23.0619 9.69118C22.5532 9.10539 21.8763 8.8125 21.0312 8.8125C20.1853 8.8125 19.5084 9.10539 19.0005 9.69118C18.4926 10.277 18.2383 11.0453 18.2374 11.9961C18.2374 12.93 18.4918 13.6983 19.0005 14.3011C19.5093 14.9039 20.1862 15.2053 21.0312 15.2053Z" fill="white"/>
<path id="Vector_3" d="M39.1393 18.5925V17.8284C38.7052 18.1866 38.2105 18.4668 37.6777 18.6562C37.1177 18.8541 36.5266 18.9532 35.9316 18.9491C35.0765 18.9543 34.23 18.7807 33.4482 18.4397C32.672 18.1 31.9727 17.6107 31.3916 17.0007C30.785 16.3627 30.3105 15.6143 29.9947 14.7976C29.6501 13.903 29.479 12.9527 29.4903 11.996C29.4776 11.0309 29.6487 10.072 29.9947 9.1689C30.3085 8.35493 30.7833 7.61041 31.3916 6.97855C31.9737 6.37614 32.6732 5.89539 33.4482 5.56501C34.2237 5.234 35.0605 5.06489 35.9057 5.06836C36.5049 5.06497 37.1001 5.16408 37.6648 5.36126C38.198 5.54642 38.6963 5.81754 39.1393 6.16354V0H43.4076V18.5925H39.1393ZM36.5007 15.2306C36.8801 15.2435 37.2574 15.1698 37.603 15.0151C37.9486 14.8605 38.2531 14.6291 38.4926 14.3391C38.9919 13.7449 39.2419 12.9638 39.2428 11.996C39.2436 11.0281 38.9936 10.2513 38.4926 9.66555C37.9925 9.07976 37.3285 8.78686 36.5007 8.78686C35.6548 8.78686 34.9865 9.07551 34.4959 9.65282C34.0052 10.2301 33.7595 11.0112 33.7586 11.996C33.7586 12.9808 34.0044 13.7661 34.4959 14.3519C34.9874 14.9377 35.6557 15.2306 36.5007 15.2306Z" fill="white"/>
<path id="Vector_4" d="M46.6412 18.5925V1.27344H57.1957V5.24663H51.1683V7.76808H56.6783V11.6139H51.1683V14.6193H57.1957V18.5925H46.6412Z" fill="white"/>
<path id="Vector_5" d="M58.9534 5.4248H63.7146C64.025 5.93419 64.344 6.44782 64.6717 6.96569C64.9994 7.48356 65.3184 7.99719 65.6288 8.50657C65.9565 7.99719 66.2842 7.48356 66.6118 6.96569C66.9395 6.44782 67.2672 5.93419 67.5949 5.4248H72.303C71.6286 6.4597 70.9431 7.50394 70.2464 8.55751C69.5497 9.61109 68.8642 10.6638 68.1898 11.7157C68.8961 12.8533 69.6113 13.9994 70.3356 15.154C71.06 16.3086 71.7675 17.4547 72.4582 18.5924H67.6983C67.3534 18.0151 67.0038 17.4335 66.6494 16.8477C66.295 16.2619 65.9462 15.6804 65.603 15.1031C65.2581 15.6804 64.9002 16.2619 64.5294 16.8477C64.1586 17.4335 63.8008 18.0151 63.4559 18.5924H58.7478C59.454 17.4887 60.1693 16.3638 60.8936 15.2177C61.6179 14.0716 62.334 12.9467 63.042 11.843C62.3694 10.7903 61.6882 9.7206 60.9983 8.63392C60.3085 7.54724 59.6269 6.47753 58.9534 5.4248Z" fill="white"/>
<path id="Vector_6" d="M75.4072 18.5925V9.19434H73.3118V5.4249H75.4072V1.91016H79.6755V5.4249H82.1072V9.19434H79.6755V18.5925H75.4072Z" fill="white"/>
<path id="Vector_7" d="M84.1754 18.5923V5.42477H88.4437V6.1379C88.9938 5.75745 89.6064 5.47313 90.2545 5.29742C90.9705 5.10704 91.7173 5.05514 92.4534 5.14461V9.27061C91.0918 9.08384 90.0829 9.19845 89.4267 9.61444C88.7705 10.0304 88.4429 10.7054 88.4437 11.6392V18.5923H84.1754Z" fill="white"/>
<path id="Vector_8" d="M103.189 18.5926V17.8285C102.755 18.187 102.26 18.4672 101.727 18.6562C101.167 18.8541 100.576 18.9533 99.9812 18.9491C99.1305 18.955 98.2879 18.7872 97.5065 18.4562C96.725 18.1252 96.0218 17.6383 95.4412 17.0262C94.8346 16.3882 94.3601 15.6399 94.0443 14.8231C93.6982 13.9201 93.5271 12.9612 93.5399 11.9961C93.5256 11.0225 93.6967 10.055 94.0443 9.14351C94.356 8.33231 94.8312 7.59158 95.4412 6.9659C96.0263 6.3701 96.7252 5.89404 97.4978 5.56509C98.2733 5.23407 99.11 5.06497 99.9553 5.06844C100.554 5.06505 101.15 5.16416 101.714 5.36134C102.248 5.54594 102.746 5.81711 103.189 6.16362V5.42501H107.457V18.5926H103.189ZM100.55 15.2306C100.93 15.2436 101.307 15.1699 101.653 15.0152C101.998 14.8606 102.303 14.6292 102.542 14.3392C103.043 13.7449 103.293 12.9639 103.292 11.9961C103.291 11.0282 103.041 10.2514 102.542 9.66563C102.043 9.07984 101.379 8.78694 100.55 8.78694C99.7061 8.78694 99.0378 9.07559 98.5454 9.65289C98.0531 10.2302 97.8073 11.0112 97.8082 11.9961C97.8082 12.9809 98.0539 13.7662 98.5454 14.352C99.037 14.9377 99.7052 15.2306 100.55 15.2306Z" fill="white"/>
<path id="Vector_9" d="M112.658 18.9999C112.173 19.0039 111.695 18.8809 111.274 18.6433C110.86 18.4139 110.517 18.0798 110.278 17.6755C110.038 17.2743 109.913 16.8166 109.916 16.3511C109.912 15.8894 110.037 15.4356 110.278 15.0394C110.52 14.6408 110.863 14.3115 111.274 14.0843C111.695 13.8468 112.173 13.7237 112.658 13.7278C113.135 13.7215 113.605 13.8448 114.016 14.0843C114.418 14.3191 114.755 14.647 114.999 15.0394C115.248 15.433 115.378 15.8878 115.374 16.3511C115.376 16.8183 115.247 17.2768 114.999 17.6755C114.758 18.0736 114.421 18.4063 114.016 18.6433C113.605 18.8828 113.135 19.0062 112.658 18.9999Z" fill="white"/>
<path id="Vector_10" d="M116.668 18.5925C117.564 15.7399 118.465 12.8534 119.371 9.93295C120.277 7.01249 121.178 4.12598 122.074 1.27344H128.257C129.153 4.12598 130.054 7.01249 130.96 9.93295C131.866 12.8534 132.768 15.7399 133.663 18.5925H129.111C128.938 18.0483 128.774 17.5007 128.619 16.9497C128.464 16.3987 128.3 15.8511 128.128 15.3069H122.204C122.031 15.8503 121.867 16.3979 121.712 16.9497C121.557 17.5015 121.393 18.0491 121.221 18.5925H116.668ZM123.342 11.512H126.989C126.696 10.5094 126.394 9.49913 126.084 8.48121C125.773 7.46329 125.472 6.45302 125.179 5.45038C124.885 6.45302 124.579 7.46329 124.26 8.48121C123.941 9.49913 123.635 10.5094 123.341 11.512H123.342Z" fill="white"/>
<path id="Vector_11" d="M135.473 18.5925V1.27344H140V18.5925H135.473Z" fill="white"/>
</g>
</g>
</g>
<defs>
<clipPath id="clip0_230_243">
<rect width="140" height="19" fill="white"/>
</clipPath>
</defs>
</svg>
