<svg width="20" height="20" viewBox="0 0 20 20" fill="none" xmlns="http://www.w3.org/2000/svg">
<g id="Icon">
<path id="Icon_2" d="M10 17.25V11.75M10 8.25V7.75M7.25001 5.75C6.5 6.25 6.25 7.25 6.25 8C6.25 8.75 6.5 9.75 7.25001 10.25M4.25002 2.75C2.87501 4.375 2.25001 6.1875 2.25 8C2.24999 9.8125 2.87499 11.625 4.24997 13.25M15.75 2.75C17.125 4.375 17.75 6.1875 17.75 8C17.75 9.8125 17.125 11.625 15.75 13.25M12.75 5.75C13.5 6.25 13.75 7.25 13.75 8C13.75 8.75 13.5 9.75 12.75 10.25" stroke="white" stroke-width="1.5" stroke-linecap="round" stroke-linejoin="round"/>
</g>
</svg>
