<svg width="20" height="20" viewBox="0 0 20 20" fill="none" xmlns="http://www.w3.org/2000/svg">
<g id="Icon">
<g id="Icon_2">
<path d="M1.75 4.95C1.75 3.8299 1.75 3.26984 1.96799 2.84202C2.15973 2.46569 2.46569 2.15973 2.84202 1.96799C3.26984 1.75 3.8299 1.75 4.95 1.75H5.05C6.1701 1.75 6.73016 1.75 7.15798 1.96799C7.53431 2.15973 7.84027 2.46569 8.03201 2.84202C8.25 3.26984 8.25 3.8299 8.25 4.95V5.05C8.25 6.1701 8.25 6.73016 8.03201 7.15798C7.84027 7.53431 7.53431 7.84027 7.15798 8.03201C6.73016 8.25 6.1701 8.25 5.05 8.25H4.95C3.8299 8.25 3.26984 8.25 2.84202 8.03201C2.46569 7.84027 2.15973 7.53431 1.96799 7.15798C1.75 6.73016 1.75 6.1701 1.75 5.05V4.95Z" stroke="white" stroke-width="1.5" stroke-linejoin="round"/>
<path d="M11.75 4.95C11.75 3.8299 11.75 3.26984 11.968 2.84202C12.1597 2.46569 12.4657 2.15973 12.842 1.96799C13.2698 1.75 13.8299 1.75 14.95 1.75H15.05C16.1701 1.75 16.7302 1.75 17.158 1.96799C17.5343 2.15973 17.8403 2.46569 18.032 2.84202C18.25 3.26984 18.25 3.8299 18.25 4.95V5.05C18.25 6.1701 18.25 6.73016 18.032 7.15798C17.8403 7.53431 17.5343 7.84027 17.158 8.03201C16.7302 8.25 16.1701 8.25 15.05 8.25H14.95C13.8299 8.25 13.2698 8.25 12.842 8.03201C12.4657 7.84027 12.1597 7.53431 11.968 7.15798C11.75 6.73016 11.75 6.1701 11.75 5.05V4.95Z" stroke="white" stroke-width="1.5" stroke-linejoin="round"/>
<path d="M1.75 14.95C1.75 13.8299 1.75 13.2698 1.96799 12.842C2.15973 12.4657 2.46569 12.1597 2.84202 11.968C3.26984 11.75 3.8299 11.75 4.95 11.75H5.05C6.1701 11.75 6.73016 11.75 7.15798 11.968C7.53431 12.1597 7.84027 12.4657 8.03201 12.842C8.25 13.2698 8.25 13.8299 8.25 14.95V15.05C8.25 16.1701 8.25 16.7302 8.03201 17.158C7.84027 17.5343 7.53431 17.8403 7.15798 18.032C6.73016 18.25 6.1701 18.25 5.05 18.25H4.95C3.8299 18.25 3.26984 18.25 2.84202 18.032C2.46569 17.8403 2.15973 17.5343 1.96799 17.158C1.75 16.7302 1.75 16.1701 1.75 15.05V14.95Z" stroke="white" stroke-width="1.5" stroke-linejoin="round"/>
<path d="M11.75 14.95C11.75 13.8299 11.75 13.2698 11.968 12.842C12.1597 12.4657 12.4657 12.1597 12.842 11.968C13.2698 11.75 13.8299 11.75 14.95 11.75H15.05C16.1701 11.75 16.7302 11.75 17.158 11.968C17.5343 12.1597 17.8403 12.4657 18.032 12.842C18.25 13.2698 18.25 13.8299 18.25 14.95V15.05C18.25 16.1701 18.25 16.7302 18.032 17.158C17.8403 17.5343 17.5343 17.8403 17.158 18.032C16.7302 18.25 16.1701 18.25 15.05 18.25H14.95C13.8299 18.25 13.2698 18.25 12.842 18.032C12.4657 17.8403 12.1597 17.5343 11.968 17.158C11.75 16.7302 11.75 16.1701 11.75 15.05V14.95Z" stroke="white" stroke-width="1.5" stroke-linejoin="round"/>
</g>
</g>
</svg>
