<svg width="28" height="29" viewBox="0 0 28 29" fill="none" xmlns="http://www.w3.org/2000/svg">
<path d="M9.28541 20.8472L9.28541 14.3072L7.79741 14.7032L7.79741 13.4072L9.98142 12.4472L10.9654 12.4472L10.9654 20.8472L9.28541 20.8472ZM15.6245 20.9912C15.0165 20.9912 14.4885 20.8832 14.0405 20.6672C13.6005 20.4512 13.2565 20.1552 13.0085 19.7792C12.7605 19.4032 12.6165 18.9752 12.5765 18.4952L14.1605 18.4952C14.2165 18.8072 14.3765 19.0712 14.6405 19.2872C14.9045 19.5032 15.2365 19.6112 15.6365 19.6112C15.9245 19.6112 16.1765 19.5392 16.3925 19.3952C16.6085 19.2512 16.7765 19.0592 16.8965 18.8192C17.0165 18.5712 17.0765 18.2912 17.0765 17.9792C17.0765 17.6592 17.0125 17.3832 16.8845 17.1512C16.7645 16.9192 16.5965 16.7392 16.3805 16.6112C16.1725 16.4832 15.9325 16.4192 15.6605 16.4192C15.3165 16.4192 15.0205 16.5032 14.7725 16.6712C14.5325 16.8312 14.3605 17.0272 14.2565 17.2592L12.6845 17.2592L13.3805 12.4472L18.0965 12.4472L18.0965 13.8632L14.5805 13.8632L14.2325 15.7352C14.4085 15.5512 14.6445 15.4032 14.9405 15.2912C15.2365 15.1712 15.5685 15.1112 15.9365 15.1112C16.3925 15.1112 16.7885 15.1912 17.1245 15.3512C17.4605 15.5032 17.7405 15.7152 17.9645 15.9872C18.1885 16.2512 18.3565 16.5552 18.4685 16.8992C18.5805 17.2352 18.6365 17.5912 18.6365 17.9672C18.6365 18.4072 18.5605 18.8112 18.4085 19.1792C18.2645 19.5472 18.0565 19.8672 17.7845 20.1392C17.5205 20.4112 17.2045 20.6232 16.8365 20.7752C16.4765 20.9192 16.0725 20.9912 15.6245 20.9912Z" fill="#AAAAAA"/>
<path fill-rule="evenodd" clip-rule="evenodd" d="M21.0122 5.83203C20.5772 6.27109 20.5374 6.37087 20.7397 7.35184L21.2363 8.80162L17.5155 6.9103C12.6826 4.46722 6.80272 6.4414 4.38239 11.3198C1.96207 16.1981 3.91784 22.1333 8.75073 24.5764C13.5836 27.0195 19.4635 25.0453 21.8839 20.1669C22.2179 19.4936 22.469 18.7989 22.6405 18.0952C22.7695 17.5654 22.4487 17.0303 21.9238 16.9C21.399 16.7697 20.8688 17.0936 20.7397 17.6234C20.6029 18.1852 20.4021 18.7413 20.1337 19.2822C18.1974 23.1849 13.4935 24.7643 9.62721 22.8098C5.76089 20.8553 4.19628 16.1072 6.13254 12.2045C8.0688 8.30179 12.7727 6.72245 16.639 8.67691L20.3664 10.5579L18.7609 11.129C18.4639 11.3198 18.259 11.3198 18.259 12.2045C18.694 13.0826 20.4519 12.3116 19.2628 12.6488L22.8562 11.5538C23.1334 11.484 23.3665 11.2954 23.4945 11.0376C23.6224 10.7797 23.6323 10.4783 23.5216 10.2124L22.4394 6.91027C22.0044 6.03215 21.5105 5.62063 21.0122 5.83203Z" fill="#AAAAAA"/>
</svg>
