<svg width="25" height="24" viewBox="0 0 25 24" fill="none" xmlns="http://www.w3.org/2000/svg">
<g id="Frame 4" clip-path="url(#clip0_148_14979)">
<path id="Polygon 3" d="M5.36939 15.7811C2.4212 14.307 2.4212 10.0998 5.36939 8.62566L14.0131 4.30381C14.4564 4.08217 14.9779 4.40451 14.9779 4.90009L14.9779 19.5066C14.9779 20.0022 14.4564 20.3246 14.0131 20.1029L5.36939 15.7811Z" stroke="#898989" stroke-width="2"/>
<path id="Ellipse 7" d="M19.3113 17.2034C20.0921 16.9904 20.8141 16.5179 21.3894 15.8296C22.1931 14.8678 22.6447 13.5635 22.6447 12.2034C22.6447 10.8433 22.1931 9.5389 21.3894 8.57718C20.8141 7.8888 20.0921 7.41633 19.3113 7.20337" stroke="#898989" stroke-width="1.66667" stroke-linecap="round"/>
<path id="Ellipse 8" d="M18.478 11.6972C18.478 11.5165 18.6299 11.3642 18.7969 11.4334C18.898 11.4753 18.9899 11.5366 19.0672 11.614C19.1446 11.6914 19.206 11.7833 19.2479 11.8844C19.2898 11.9855 19.3113 12.0939 19.3113 12.2033C19.3113 12.3127 19.2898 12.4211 19.2479 12.5222C19.206 12.6233 19.1446 12.7152 19.0672 12.7925C18.9899 12.8699 18.898 12.9313 18.7969 12.9732C18.6299 13.0424 18.478 12.8901 18.478 12.7094L18.478 12.2033L18.478 11.6972Z" fill="#898989" stroke="#898989" stroke-width="0.833333"/>
</g>
<defs>
<clipPath id="clip0_148_14979">
<rect width="23.3333" height="23.3333" fill="white" transform="translate(0.977966 0.536865)"/>
</clipPath>
</defs>
</svg>
