<svg width="67" height="67" viewBox="0 0 67 67" fill="none" xmlns="http://www.w3.org/2000/svg">
<g id="&#230;&#160;&#135;&#232;&#174;&#176;">
<path id="Vector" d="M62.6555 33.199L39.4672 10.351C39.2644 10.1481 38.9372 10.1481 38.7344 10.351L23.1163 25.74C22.9135 25.9429 22.9069 26.2766 23.1098 26.4794L23.1163 26.4859L25.7335 29.0639L18.0651 36.6079C17.8623 36.8107 17.8558 37.1444 18.0586 37.3473L18.0651 37.3538L20.6496 39.899L8.27686 52.1344H4.71748C4.42959 52.1344 4.1875 52.3699 4.1875 52.6578V56.2695C4.1875 56.5574 4.42305 56.793 4.71094 56.793H27.2776C27.415 56.793 27.5459 56.7406 27.644 56.6425L32.6232 51.696L35.2666 54.3001C35.4694 54.5029 35.7966 54.5029 35.9994 54.3001L43.6612 46.7364L46.285 49.3209C46.4878 49.5237 46.8149 49.5237 47.0178 49.3209L62.6358 33.9318C62.8583 33.7355 62.8583 33.4084 62.6555 33.199ZM25.5045 52.0951H15.0227L23.8164 43.393L29.0573 48.5554L25.5045 52.0951ZM35.633 48.0319L24.4184 36.9809L28.9068 32.5578L40.1215 43.6089L35.633 48.0319ZM46.6579 43.0527L29.463 26.113L39.1008 16.6191L56.2957 33.5654L46.6579 43.0527Z" fill="#FF5A0F"/>
</g>
</svg>
