<svg width="67" height="67" viewBox="0 0 67 67" fill="none" xmlns="http://www.w3.org/2000/svg">
<g id="&#232;&#128;&#179;&#230;&#156;&#186; 1" clip-path="url(#clip0_204_90)">
<path id="Vector" d="M-0.133301 46.5388C-0.133301 44.3607 0.155622 42.4716 0.733467 40.8714C1.31131 39.2712 2.35588 37.76 3.86717 36.3376V56.7399C2.31143 55.362 1.25575 53.8729 0.70013 52.2728C0.144509 50.6726 -0.133301 48.7612 -0.133301 46.5388ZM62.3406 36.3376C63.6741 37.3599 64.752 38.7712 65.5744 40.5714C66.3967 42.3716 66.8078 44.3607 66.8078 46.5388C66.8078 48.7612 66.4856 50.6615 65.8411 52.2394C65.1965 53.8174 64.0297 55.3176 62.3406 56.7399V36.3376ZM54.4064 33.3372C55.2509 33.3372 56.0955 33.6706 56.94 34.3373C57.7846 35.0041 58.2068 35.9375 58.2068 37.1377V54.4063C58.2068 54.9397 58.0846 55.4398 57.8401 55.9065C57.5956 56.3732 57.2956 56.7955 56.94 57.1733C56.5844 57.5512 56.1733 57.8401 55.7065 58.0401C55.2398 58.2401 54.8064 58.3401 54.4064 58.3401H49.7392C48.5835 58.3401 47.6167 57.9845 46.8388 57.2733C46.061 56.5621 45.672 55.6065 45.672 54.4063V37.1377C45.672 35.9375 46.1054 35.0041 46.9722 34.3373C47.839 33.6706 48.7613 33.3372 49.7392 33.3372H54.4064ZM16.2686 33.3372C17.5577 33.3372 18.6022 33.6484 19.4023 34.2707C20.2024 34.893 20.6024 35.8708 20.6024 37.2043V54.0063C20.6024 55.3398 20.258 56.3843 19.569 57.14C18.88 57.8956 17.9799 58.2735 16.8687 58.2735H12.0014C10.668 58.2735 9.67895 57.8734 9.03443 57.0733C8.38992 56.2732 8.06765 55.2953 8.06765 54.1396V37.2043C8.06765 35.8708 8.4677 34.893 9.2678 34.2707C10.0679 33.6484 11.0236 33.3372 12.1348 33.3372H16.2686ZM33.2039 4.06714C36.7154 4.06714 40.0269 4.66721 43.1384 5.86735C46.2499 7.06749 48.9724 8.76769 51.306 10.9679C53.6396 13.1682 55.4732 15.8018 56.8067 18.8689C58.1402 21.9359 58.8069 25.3141 58.8069 29.0034H54.4064C53.2951 29.0034 52.295 29.0145 51.406 29.0367C50.517 29.0589 50.0725 29.0478 50.0725 29.0034C50.0725 26.2475 49.6058 23.8139 48.6724 21.7025C47.7389 19.5912 46.5055 17.8243 44.972 16.4019C43.4384 14.9795 41.6605 13.9127 39.638 13.2015C37.6155 12.4903 35.4708 12.1347 33.2039 12.1347C30.9814 12.1347 28.8701 12.6015 26.8698 13.5349C24.8696 14.4684 23.1027 15.7241 21.5692 17.302C20.0357 18.88 18.8022 20.6802 17.8688 22.7026C16.9354 24.7251 16.4686 26.8253 16.4686 29.0034H7.66761C7.66761 25.3141 8.33435 21.9359 9.66784 18.8689C11.0013 15.8018 12.8238 13.1682 15.1351 10.9679C17.4465 8.76769 20.158 7.06749 23.2694 5.86735C26.3809 4.66721 29.6924 4.06714 33.2039 4.06714Z" fill="#FF5A0F"/>
</g>
<defs>
<clipPath id="clip0_204_90">
<rect width="67" height="66.6744" fill="white"/>
</clipPath>
</defs>
</svg>
