<svg width="189" height="26" viewBox="0 0 189 26" fill="none" xmlns="http://www.w3.org/2000/svg">
<g id="&#232;&#181;&#132;&#230;&#186;&#144; 13AI&#229;&#144;&#142;&#231;&#188;&#128; 2" clip-path="url(#clip0_135_13506)">
<g id="&#229;&#155;&#190;&#229;&#177;&#130; 2">
<g id="&#229;&#155;&#190;&#229;&#177;&#130; 1">
<path id="Vector" d="M0 25.4424V1.74263H8.64343C10.4325 1.74263 11.9893 2.08534 13.3137 2.77078C14.5976 3.41828 15.6727 4.41491 16.4156 5.64611C17.1591 6.87757 17.5308 8.31814 17.5308 9.96783C17.5308 11.5943 17.1649 13.0232 16.433 14.2547C15.72 15.4683 14.6818 16.4582 13.4357 17.1126C12.107 17.8016 10.6278 18.1489 9.13137 18.1233H6.0992V25.4424H0ZM8.64343 7.21448H6.0992V12.8257H8.99196C9.32702 12.8351 9.65979 12.7677 9.96483 12.6288C10.2699 12.4899 10.5391 12.283 10.752 12.0241C11.2135 11.4671 11.4552 10.7605 11.4316 10.0375C11.4573 9.29457 11.1951 8.57039 10.6997 8.01609C10.2118 7.48168 9.52636 7.21448 8.64343 7.21448Z" fill="#FF5A0F"/>
<path id="Vector_2" d="M28.3351 26C27.0457 26.0111 25.7667 25.7683 24.571 25.2855C23.433 24.8257 22.4011 24.1377 21.5389 23.2641C20.6761 22.3898 19.995 21.3533 19.5349 20.2145C19.0493 19.0074 18.8065 17.7165 18.8204 16.4156C18.8065 15.1146 19.0493 13.8237 19.5349 12.6166C19.9918 11.4813 20.6735 10.4499 21.5389 9.5845C22.4043 8.71908 23.4357 8.03742 24.571 7.58043C26.996 6.62777 29.6916 6.62777 32.1166 7.58043C33.2476 8.04136 34.2745 8.72461 35.1366 9.58968C35.9987 10.4548 36.6784 11.4841 37.1354 12.6166C37.62 13.8239 37.8628 15.1147 37.8499 16.4156C37.8628 17.7164 37.62 19.0072 37.1354 20.2145C36.6739 21.3526 35.993 22.3888 35.1314 23.2641C34.2731 24.1343 33.2476 24.8219 32.1166 25.2855C30.9157 25.7712 29.6305 26.014 28.3351 26ZM28.3351 20.807C29.4725 20.807 30.3845 20.3946 31.071 19.5697C31.7576 18.7449 32.1004 17.6935 32.0992 16.4156C32.0992 15.1144 31.7565 14.063 31.071 13.2614C30.3856 12.4598 29.4736 12.059 28.3351 12.059C27.1954 12.059 26.2835 12.4598 25.5992 13.2614C24.9149 14.063 24.5722 15.1144 24.571 16.4156C24.571 17.6935 24.9138 18.7449 25.5992 19.5697C26.2846 20.3946 27.1966 20.807 28.3351 20.807Z" fill="#FF5A0F"/>
<path id="Vector_3" d="M52.7319 25.4424V24.3968C52.1471 24.887 51.4805 25.2704 50.7627 25.5295C50.0082 25.8003 49.2118 25.936 48.4102 25.9303C47.2581 25.9374 46.1177 25.6999 45.0643 25.2332C44.0186 24.7684 43.0765 24.0988 42.2936 23.2641C41.4763 22.391 40.837 21.367 40.4115 20.2493C39.9472 19.0251 39.7167 17.7247 39.7319 16.4155C39.7148 15.0949 39.9453 13.7827 40.4115 12.5469C40.8342 11.4331 41.474 10.4142 42.2936 9.5496C43.0778 8.72525 44.0202 8.06738 45.0643 7.61528C46.1092 7.16231 47.2366 6.9309 48.3753 6.93566C49.1826 6.93102 49.9845 7.06663 50.7453 7.33646C51.4638 7.58984 52.1351 7.96085 52.7319 8.43432V0H58.4826V25.4424H52.7319ZM49.177 20.8418C49.6881 20.8596 50.1964 20.7587 50.662 20.547C51.1276 20.3354 51.5379 20.0188 51.8606 19.622C52.5332 18.8088 52.8702 17.7399 52.8713 16.4155C52.8725 15.0912 52.5356 14.0282 51.8606 13.2265C51.1868 12.4249 50.2922 12.0241 49.177 12.0241C48.0373 12.0241 47.1369 12.4191 46.4759 13.2091C45.8148 13.9991 45.4837 15.0679 45.4826 16.4155C45.4826 17.7632 45.8137 18.8378 46.4759 19.6394C47.1381 20.441 48.0384 20.8418 49.177 20.8418Z" fill="#FF5A0F"/>
<path id="Vector_4" d="M62.8391 25.4424V1.74263H77.059V7.17962H68.9383V10.63H76.3619V15.8928H68.9383V20.0054H77.059V25.4424H62.8391Z" fill="#FF5A0F"/>
<path id="Vector_5" d="M79.4272 7.42359H85.8418C86.2601 8.12064 86.6899 8.8235 87.1314 9.53217C87.5728 10.2408 88.0027 10.9437 88.4209 11.6408C88.8624 10.9437 89.3039 10.2408 89.7453 9.53217C90.1868 8.8235 90.6282 8.12064 91.0697 7.42359H97.4129C96.5044 8.83977 95.5808 10.2687 94.6421 11.7105C93.7034 13.1522 92.7798 14.5928 91.8713 16.0322C92.8228 17.5889 93.7865 19.1573 94.7623 20.7373C95.7382 22.3172 96.6914 23.8856 97.622 25.4424H91.2091C90.7444 24.6524 90.2733 23.8566 89.7959 23.055C89.3184 22.2534 88.8484 21.4576 88.3861 20.6676C87.9214 21.4576 87.4392 22.2534 86.9397 23.055C86.4401 23.8566 85.958 24.6524 85.4933 25.4424H79.1501C80.1016 23.9321 81.0653 22.3928 82.0412 20.8244C83.017 19.256 83.9819 17.7167 84.9357 16.2064C84.0295 14.7659 83.1117 13.3021 82.1823 11.815C81.2529 10.328 80.3346 8.86416 79.4272 7.42359Z" fill="#FF5A0F"/>
<path id="Vector_6" d="M101.595 25.4424V12.5818H98.7721V7.42359H101.595V2.61394H107.346V7.42359H110.622V12.5818H107.346V25.4424H101.595Z" fill="#FF5A0F"/>
<path id="Vector_7" d="M113.408 25.4424V7.42359H119.159V8.39947C119.9 7.87885 120.726 7.48978 121.599 7.24933C122.563 6.98881 123.57 6.9178 124.561 7.04022V12.6863C122.727 12.4307 121.368 12.5876 120.484 13.1568C119.599 13.7261 119.158 14.6497 119.159 15.9276V25.4424H113.408Z" fill="#FF5A0F"/>
<path id="Vector_8" d="M139.025 25.4424V24.3968C138.44 24.8873 137.774 25.2708 137.056 25.5295C136.301 25.8003 135.505 25.936 134.703 25.9303C133.557 25.9383 132.422 25.7087 131.369 25.2557C130.316 24.8028 129.369 24.1365 128.587 23.2989C127.769 22.4259 127.13 21.4019 126.705 20.2842C126.238 19.0484 126.008 17.7362 126.025 16.4156C126.006 15.0834 126.236 13.7594 126.705 12.5121C127.125 11.402 127.765 10.3884 128.587 9.53217C129.375 8.71687 130.317 8.06543 131.358 7.61528C132.402 7.16231 133.53 6.9309 134.668 6.93566C135.476 6.93102 136.278 7.06664 137.038 7.33646C137.757 7.58907 138.429 7.96014 139.025 8.43432V7.42359H144.776V25.4424H139.025ZM135.47 20.8418C135.981 20.8596 136.49 20.7587 136.955 20.547C137.421 20.3354 137.831 20.0188 138.154 19.622C138.829 18.8088 139.166 17.7399 139.164 16.4156C139.163 15.0912 138.826 14.0282 138.154 13.2265C137.481 12.4249 136.587 12.0241 135.47 12.0241C134.333 12.0241 133.432 12.4191 132.769 13.2091C132.106 13.9991 131.775 15.0679 131.776 16.4156C131.776 17.7632 132.107 18.8378 132.769 19.6394C133.431 20.441 134.332 20.8418 135.47 20.8418Z" fill="#FF5A0F"/>
<path id="Vector_9" d="M151.783 26C151.129 26.0055 150.486 25.8371 149.918 25.5121C149.361 25.1982 148.898 24.7409 148.576 24.1877C148.253 23.6386 148.085 23.0124 148.088 22.3753C148.083 21.7436 148.252 21.1225 148.576 20.5804C148.902 20.0349 149.364 19.5843 149.918 19.2735C150.486 18.9484 151.129 18.78 151.783 18.7855C152.426 18.7769 153.059 18.9457 153.613 19.2735C154.154 19.5947 154.609 20.0434 154.937 20.5804C155.272 21.119 155.447 21.7413 155.442 22.3753C155.445 23.0146 155.27 23.6421 154.937 24.1877C154.613 24.7325 154.157 25.1877 153.613 25.5121C153.059 25.8398 152.426 26.0086 151.783 26Z" fill="#FF5A0F"/>
<path id="Vector_10" d="M157.185 25.4424C158.392 21.5389 159.606 17.5889 160.827 13.5925C162.048 9.59607 163.262 5.64611 164.469 1.74263H172.799C174.006 5.64611 175.22 9.59607 176.441 13.5925C177.662 17.5889 178.876 21.5389 180.083 25.4424H173.949C173.717 24.6977 173.496 23.9483 173.287 23.1944C173.078 22.4404 172.857 21.6911 172.625 20.9464H164.643C164.411 21.6899 164.19 22.4392 163.981 23.1944C163.772 23.9495 163.551 24.6988 163.319 25.4424H157.185ZM166.177 15.7534H171.091C170.696 14.3813 170.29 12.9988 169.871 11.6059C169.453 10.213 169.046 8.83047 168.651 7.45844C168.256 8.83047 167.844 10.213 167.414 11.6059C166.984 12.9988 166.571 14.3813 166.175 15.7534H166.177Z" fill="#FF5A0F"/>
<path id="Vector_11" d="M182.521 25.4424V1.74263H188.62V25.4424H182.521Z" fill="#FF5A0F"/>
</g>
</g>
</g>
<defs>
<clipPath id="clip0_135_13506">
<rect width="188.62" height="26" fill="white"/>
</clipPath>
</defs>
</svg>
