<svg width="197" height="35" viewBox="0 0 197 35" fill="none" xmlns="http://www.w3.org/2000/svg">
<g id="PodExtra SVG" clip-path="url(#clip0_33_2446)">
<g id="&#229;&#155;&#190;&#229;&#177;&#130; 2">
<g id="&#229;&#155;&#190;&#229;&#177;&#130; 1">
<path id="Vector" d="M0 34.2493V2.34586H11.7249C14.1518 2.34586 16.2635 2.80721 18.0601 3.7299C19.8017 4.60154 21.2601 5.94316 22.2678 7.60055C23.2764 9.25828 23.7806 11.1975 23.7806 13.4182C23.7806 15.6077 23.2842 17.5313 22.2914 19.189C21.3243 20.8227 19.9159 22.1553 18.2255 23.0362C16.4233 23.9637 14.4166 24.4313 12.3867 24.3968H8.27358V34.2493H0ZM11.7249 9.71181H8.27358V17.2654H12.1976C12.6521 17.278 13.1035 17.1873 13.5173 17.0003C13.9311 16.8133 14.2964 16.5349 14.5851 16.1863C15.2111 15.4365 15.5391 14.4853 15.5071 13.5121C15.5419 12.5119 15.1862 11.5371 14.5142 10.7909C13.8523 10.0715 12.9226 9.71181 11.7249 9.71181Z" fill="#EC6630"/>
<path id="Vector_2" d="M38.4367 35C36.6876 35.0149 34.9527 34.6881 33.3307 34.0382C31.7869 33.4192 30.3872 32.4931 29.2176 31.317C28.0473 30.1401 27.1234 28.7448 26.4991 27.2118C25.8405 25.587 25.5111 23.8492 25.5299 22.0979C25.5111 20.3466 25.8405 18.6088 26.4991 16.9839C27.119 15.4555 28.0437 14.0672 29.2177 12.9022C30.3916 11.7372 31.7906 10.8196 33.3307 10.2044C36.6202 8.92201 40.2769 8.92201 43.5664 10.2044C45.1005 10.8249 46.4936 11.7447 47.663 12.9092C48.8324 14.0737 49.7544 15.4593 50.3743 16.9839C51.0317 18.6091 51.361 20.3467 51.3435 22.0979C51.361 23.849 51.0317 25.5866 50.3743 27.2118C49.7483 28.7439 48.8246 30.1388 47.6559 31.317C46.4916 32.4885 45.1005 33.4141 43.5664 34.0382C41.9373 34.692 40.1938 35.0189 38.4367 35ZM38.4367 28.0094C39.9796 28.0094 41.2167 27.4542 42.148 26.3438C43.0794 25.2335 43.5443 23.8181 43.5427 22.0979C43.5427 20.3463 43.0778 18.931 42.148 17.8519C41.2182 16.7728 39.9811 16.2333 38.4367 16.2333C36.8908 16.2333 35.6537 16.7728 34.7254 17.8519C33.7972 18.931 33.3323 20.3463 33.3307 22.0979C33.3307 23.8181 33.7956 25.2335 34.7254 26.3438C35.6552 27.4542 36.8923 28.0094 38.4367 28.0094Z" fill="#EC6630"/>
<path id="Vector_3" d="M71.531 34.2493V32.8418C70.7377 33.5017 69.8335 34.0178 68.8598 34.3666C67.8363 34.7312 66.756 34.9138 65.6686 34.9062C64.1058 34.9158 62.5588 34.596 61.1299 33.9678C59.7113 33.3421 58.4334 32.4408 57.3714 31.317C56.2627 30.1418 55.3955 28.7633 54.8184 27.2587C54.1886 25.6108 53.8758 23.8602 53.8965 22.0979C53.8732 20.32 54.1859 18.5536 54.8184 16.8901C55.3918 15.3907 56.2596 14.0192 57.3714 12.8552C58.4353 11.7455 59.7136 10.8599 61.1299 10.2513C62.5473 9.64157 64.0766 9.33005 65.6213 9.33646C66.7163 9.33022 67.8041 9.51278 68.8362 9.87601C69.8108 10.2171 70.7214 10.7165 71.531 11.3539V0H79.3318V34.2493H71.531ZM66.7087 28.0563C67.4021 28.0802 68.0916 27.9444 68.7232 27.6595C69.3548 27.3746 69.9113 26.9483 70.3491 26.4142C71.2615 25.3195 71.7186 23.8807 71.7201 22.0979C71.7217 20.315 71.2647 18.884 70.3491 17.805C69.4351 16.7259 68.2216 16.1863 66.7087 16.1863C65.1627 16.1863 63.9414 16.7181 63.0447 17.7815C62.148 18.845 61.6989 20.2837 61.6973 22.0979C61.6973 23.912 62.1464 25.3586 63.0447 26.4377C63.943 27.5168 65.1643 28.0563 66.7087 28.0563Z" fill="#EC6630"/>
<path id="Vector_4" d="M85.2416 34.2493V2.34586H104.531V9.66489H93.5152V14.3097H103.585V21.3941H93.5152V26.9303H104.531V34.2493H85.2416Z" fill="#EC6630"/>
<path id="Vector_5" d="M107.743 9.99329H116.445C117.012 10.9316 117.595 11.8778 118.194 12.8318C118.793 13.7857 119.376 14.7319 119.943 15.6702C120.542 14.7319 121.141 13.7857 121.74 12.8318C122.339 11.8778 122.938 10.9316 123.536 9.99329H132.141C130.909 11.8997 129.656 13.8233 128.382 15.7641C127.109 17.7049 125.856 19.6441 124.624 21.5818C125.915 23.6774 127.222 25.7886 128.545 27.9155C129.869 30.0424 131.162 32.1537 132.425 34.2493H123.726C123.095 33.1859 122.456 32.1146 121.808 31.0355C121.161 29.9564 120.523 28.8852 119.896 27.8217C119.266 28.8852 118.612 29.9564 117.934 31.0355C117.256 32.1146 116.602 33.1859 115.972 34.2493H107.367C108.658 32.2163 109.965 30.1441 111.289 28.0328C112.613 25.9216 113.922 23.8494 115.216 21.8163C113.986 19.8771 112.741 17.9066 111.481 15.9048C110.22 13.903 108.974 11.9325 107.743 9.99329Z" fill="#EC6630"/>
<path id="Vector_6" d="M137.814 34.2493V16.937H133.985V9.9933H137.814V3.51877H145.615V9.9933H150.059V16.937H145.615V34.2493H137.814Z" fill="#EC6630"/>
<path id="Vector_7" d="M153.839 34.2493V9.99331H161.64V11.307C162.645 10.6062 163.765 10.0824 164.949 9.75873C166.258 9.40802 167.623 9.31243 168.968 9.47722V17.0778C166.479 16.7337 164.636 16.9448 163.436 17.7111C162.237 18.4774 161.638 19.7207 161.64 21.441V34.2493H153.839Z" fill="#EC6630"/>
<path id="Vector_8" d="M188.588 34.2493V32.8418C187.795 33.5021 186.891 34.0183 185.917 34.3666C184.893 34.7312 183.813 34.9138 182.726 34.9062C181.171 34.917 179.631 34.6078 178.203 33.9981C176.775 33.3884 175.49 32.4915 174.428 31.3639C173.32 30.1887 172.453 28.8102 171.875 27.3056C171.243 25.6421 170.93 23.8757 170.954 22.0979C170.927 20.3045 171.24 18.5222 171.875 16.8432C172.445 15.3488 173.314 13.9843 174.428 12.8318C175.498 11.7343 176.775 10.8573 178.187 10.2513C179.604 9.64157 181.134 9.33005 182.678 9.33646C183.773 9.33021 184.861 9.51277 185.893 9.876C186.868 10.2161 187.779 10.7156 188.588 11.3539V9.99329H196.389V34.2493H188.588ZM183.766 28.0563C184.459 28.0802 185.149 27.9444 185.78 27.6595C186.412 27.3746 186.968 26.9483 187.406 26.4142C188.322 25.3195 188.779 23.8807 188.777 22.0979C188.776 20.315 188.319 18.884 187.406 17.805C186.494 16.7259 185.28 16.1863 183.766 16.1863C182.223 16.1863 181.002 16.718 180.102 17.7815C179.202 18.8449 178.753 20.2837 178.754 22.0979C178.754 23.912 179.203 25.3586 180.102 26.4377C181 27.5168 182.221 28.0563 183.766 28.0563Z" fill="#EC6630"/>
</g>
</g>
</g>
<defs>
<clipPath id="clip0_33_2446">
<rect width="196.389" height="35" fill="white"/>
</clipPath>
</defs>
</svg>
