<svg width="14" height="14" viewBox="0 0 14 14" fill="none" xmlns="http://www.w3.org/2000/svg">
<g id="mic">
<path id="Icon" fill-rule="evenodd" clip-rule="evenodd" d="M2.33333 3.11111C2.33333 1.39289 3.72623 0 5.44444 0C7.16266 0 8.55556 1.39289 8.55556 3.11111V6.22222C8.55556 7.94044 7.16266 9.33333 5.44444 9.33333C3.72623 9.33333 2.33333 7.94044 2.33333 6.22222V3.11111ZM5.44444 1.16667C4.37056 1.16667 3.5 2.03722 3.5 3.11111V6.22222C3.5 7.29611 4.37056 8.16667 5.44444 8.16667C6.51833 8.16667 7.38889 7.29611 7.38889 6.22222V3.11111C7.38889 2.03722 6.51833 1.16667 5.44444 1.16667ZM0.583333 5.63889C0.905499 5.63889 1.16667 5.90006 1.16667 6.22222C1.16667 8.58477 3.08189 10.5 5.44444 10.5C7.807 10.5 9.72222 8.58477 9.72222 6.22222C9.72222 5.90006 9.98339 5.63889 10.3056 5.63889C10.6277 5.63889 10.8889 5.90006 10.8889 6.22222C10.8889 9.03204 8.76036 11.3447 6.02778 11.6358V12.8333H7.97222C8.29439 12.8333 8.55556 13.0945 8.55556 13.4167C8.55556 13.7388 8.29439 14 7.97222 14H2.91667C2.5945 14 2.33333 13.7388 2.33333 13.4167C2.33333 13.0945 2.5945 12.8333 2.91667 12.8333H4.86111V11.6358C2.12852 11.3447 0 9.03204 0 6.22222C0 5.90006 0.261167 5.63889 0.583333 5.63889Z" fill="#dcdcdc"/>
</g>
</svg>
