<svg width="75" height="65" viewBox="0 0 75 65" fill="none" xmlns="http://www.w3.org/2000/svg">
<g id="&#232;&#132;&#145;&#229;&#155;&#190; 1" clip-path="url(#clip0_204_86)">
<path id="Vector" d="M19.7321 31.3392H37.1428V35.9821H19.7321V31.3392Z" fill="#FF5A0F"/>
<path id="Vector_2" d="M53.625 51.0714V55.7143H40.625C36.7946 55.7143 33.6607 52.5803 33.6607 48.75V17.4107C33.6607 13.5803 36.7946 10.4464 40.625 10.4464H54.2053V15.0893H40.625C39.3482 15.0893 38.3036 16.1339 38.3036 17.4107V48.75C38.3036 50.0268 39.3482 51.0714 40.625 51.0714H53.625Z" fill="#FF5A0F"/>
<path id="Vector_3" d="M62.6786 23.2143C56.2946 23.2143 51.0714 17.9911 51.0714 11.6071C51.0714 5.22321 56.2946 0 62.6786 0C69.0625 0 74.2857 5.22321 74.2857 11.6071C74.2857 17.9911 69.0625 23.2143 62.6786 23.2143ZM62.6786 4.64286C58.8482 4.64286 55.7143 7.77679 55.7143 11.6071C55.7143 15.4375 58.8482 18.5714 62.6786 18.5714C66.5089 18.5714 69.6428 15.4375 69.6428 11.6071C69.6428 7.77679 66.5089 4.64286 62.6786 4.64286ZM62.6786 65C56.2946 65 51.0714 59.7768 51.0714 53.3929C51.0714 47.0089 56.2946 41.7857 62.6786 41.7857C69.0625 41.7857 74.2857 47.0089 74.2857 53.3929C74.2857 59.7768 69.0625 65 62.6786 65ZM62.6786 46.4286C58.8482 46.4286 55.7143 49.5625 55.7143 53.3929C55.7143 57.2232 58.8482 60.3571 62.6786 60.3571C66.5089 60.3571 69.6428 57.2232 69.6428 53.3929C69.6428 49.5625 66.5089 46.4286 62.6786 46.4286ZM11.6071 45.2679C5.22321 45.2679 0 40.0446 0 33.6607C0 27.2768 5.22321 22.0536 11.6071 22.0536C17.9911 22.0536 23.2143 27.2768 23.2143 33.6607C23.2143 40.0446 17.9911 45.2679 11.6071 45.2679ZM11.6071 26.6964C7.77678 26.6964 4.64286 29.8304 4.64286 33.6607C4.64286 37.4911 7.77678 40.625 11.6071 40.625C15.4375 40.625 18.5714 37.4911 18.5714 33.6607C18.5714 29.8304 15.4375 26.6964 11.6071 26.6964Z" fill="#FF5A0F"/>
</g>
<defs>
<clipPath id="clip0_204_86">
<rect width="74.2676" height="65" fill="white"/>
</clipPath>
</defs>
</svg>
