<svg width="50" height="50" viewBox="0 0 50 50" fill="none" xmlns="http://www.w3.org/2000/svg">
<g id="logo &#229;&#184;&#166;&#232;&#167;&#146;&#230;&#160;&#135; - &#229;&#156;&#134;&#232;&#167;&#146; 1">
<g clip-path="url(#clip0_4175_5931)">
<g id="Clip path group">
<mask id="mask0_4175_5931" style="mask-type:luminance" maskUnits="userSpaceOnUse" x="0" y="0" width="50" height="50">
<g id="clip0_940_1305">
<path id="Vector" d="M43.75 0H6.25C2.79822 0 0 2.79822 0 6.25V43.75C0 47.2018 2.79822 50 6.25 50H43.75C47.2018 50 50 47.2018 50 43.75V6.25C50 2.79822 47.2018 0 43.75 0Z" fill="white"/>
</g>
</mask>
<g mask="url(#mask0_4175_5931)">
<g id="Group">
<path id="Vector_2" d="M50 0H0V50H50V0Z" fill="#FF5A0F"/>
<path id="Vector_3" d="M9.26875 24.1656V11.4156H13.9187C14.8812 11.4156 15.7187 11.6 16.4312 11.9688C17.1219 12.3172 17.7003 12.8533 18.1 13.5156C18.5 14.1781 18.7 14.9531 18.7 15.8406C18.7 16.7156 18.5031 17.4844 18.1094 18.1469C17.727 18.8004 17.1695 19.334 16.5 19.6875C15.8187 20.05 15.0479 20.2313 14.1875 20.2313H12.55V24.1688H9.26875V24.1656ZM13.9187 14.3594H12.55V17.3781H14.1062C14.2865 17.3831 14.4655 17.3468 14.6296 17.2721C14.7937 17.1974 14.9386 17.0861 15.0531 16.9469C15.2969 16.6594 15.4187 16.3031 15.4187 15.8781C15.4187 15.4406 15.2875 15.0781 15.025 14.7906C14.7625 14.5031 14.3937 14.3594 13.9187 14.3594Z" fill="white"/>
<path id="Vector_4" d="M24.5125 24.4656C23.8188 24.4716 23.1307 24.341 22.4875 24.0812C21.8754 23.8336 21.3203 23.4635 20.8562 22.9937C20.3925 22.5231 20.0261 21.9656 19.7781 21.3531C19.2656 20.0388 19.2656 18.5799 19.7781 17.2656C20.024 16.6548 20.3907 16.1 20.8562 15.6344C21.3218 15.1688 21.8767 14.8021 22.4875 14.5563C23.7921 14.0438 25.2423 14.0438 26.5469 14.5563C27.1559 14.8039 27.709 15.1713 28.1733 15.6367C28.6376 16.1021 29.0038 16.656 29.25 17.2656C29.7626 18.5799 29.7626 20.0388 29.25 21.3531C29.0011 21.9658 28.6336 22.5234 28.1687 22.9937C27.707 23.4619 27.1553 23.8318 26.5469 24.0812C25.9009 24.3427 25.2094 24.4734 24.5125 24.4656ZM24.5125 21.6719C25.125 21.6719 25.6156 21.45 25.9844 21.0062C26.3531 20.5625 26.5375 19.9979 26.5375 19.3125C26.5375 18.6125 26.3531 18.0469 25.9844 17.6156C25.6156 17.1844 25.125 16.9677 24.5125 16.9656C23.9 16.9656 23.4094 17.1812 23.0406 17.6125C22.6719 18.0437 22.4875 18.6104 22.4875 19.3125C22.4875 20 22.6719 20.5656 23.0406 21.0094C23.4094 21.4531 23.9 21.674 24.5125 21.6719Z" fill="white"/>
<path id="Vector_5" d="M37.6375 24.1656V23.6031C37.3219 23.8671 36.9622 24.0734 36.575 24.2125C36.1701 24.358 35.7427 24.431 35.3125 24.4281C34.6927 24.4318 34.0792 24.304 33.5125 24.0531C32.9496 23.8021 32.4428 23.4408 32.0219 22.9906C31.5829 22.5228 31.239 21.974 31.0094 21.375C30.5219 20.0368 30.5219 18.5695 31.0094 17.2313C31.2369 16.632 31.581 16.084 32.0219 15.6188C32.4435 15.1741 32.9505 14.8191 33.5125 14.575C34.0746 14.3313 34.6811 14.2068 35.2937 14.2094C35.728 14.2068 36.1595 14.2797 36.5687 14.425C36.9553 14.5613 37.3165 14.7609 37.6375 15.0156V10.4781H40.7312V24.1656H37.6375ZM35.725 21.6906C36.325 21.6906 36.8062 21.4719 37.1687 21.0344C37.5312 20.5969 37.7125 20.0219 37.7125 19.3094C37.7125 18.5969 37.5312 18.025 37.1687 17.5938C36.8062 17.1625 36.325 16.9469 35.725 16.9469C35.1125 16.9469 34.6281 17.1594 34.2719 17.5844C33.9156 18.0094 33.7375 18.5854 33.7375 19.3125C33.7375 20.0375 33.9156 20.6156 34.2719 21.0469C34.6281 21.4781 35.1125 21.6927 35.725 21.6906Z" fill="white"/>
<path id="Vector_6" d="M2.95939 38.5262V25.7762H10.6094V28.7012H6.24063V30.5575H10.2344V33.3887H6.24063V35.6012H10.6094V38.5262H2.95939Z" fill="white"/>
<path id="Vector_7" d="M11.8844 28.8325H15.3344C15.5594 29.2075 15.7906 29.5856 16.0281 29.9669C16.2656 30.3481 16.4969 30.7263 16.7219 31.1013C16.9594 30.7263 17.1969 30.3481 17.4344 29.9669C17.6719 29.5856 17.9094 29.2075 18.1469 28.8325H21.5625C21.075 29.595 20.5781 30.3638 20.0719 31.1388C19.5656 31.9138 19.0687 32.6888 18.5812 33.4638C19.0937 34.3013 19.6125 35.145 20.1375 35.995C20.6625 36.845 21.175 37.6888 21.675 38.5263H18.225C17.975 38.1021 17.7219 37.674 17.4656 37.2419C17.2094 36.8098 16.9562 36.3817 16.7062 35.9575C16.4562 36.3825 16.1969 36.8106 15.9281 37.2419C15.6594 37.6731 15.4 38.1013 15.15 38.5263H11.7375C12.25 37.7138 12.7687 36.8856 13.2937 36.0419C13.8187 35.1981 14.3375 34.37 14.85 33.5575C14.3625 32.7825 13.8687 31.995 13.3687 31.195C12.8687 30.395 12.374 29.6075 11.8844 28.8325Z" fill="white"/>
<path id="Vector_8" d="M23.8125 38.5262V31.6075H22.2938V28.8325H23.8125V26.245H26.9062V28.8325H28.6688V31.6075H26.9062V38.5262H23.8125Z" fill="white"/>
<path id="Vector_9" d="M30.1656 38.5262V28.8325H33.2594V29.3575C33.6582 29.0776 34.1022 28.8683 34.5719 28.7387C35.0909 28.5989 35.6321 28.5607 36.1656 28.6262V31.6637C35.1781 31.5262 34.4469 31.6106 33.9719 31.9169C33.4969 32.2231 33.2594 32.72 33.2594 33.4075V38.5262H30.1656Z" fill="white"/>
<path id="Vector_10" d="M43.9467 38.5262V37.9637C43.6325 38.2277 43.2737 38.434 42.8875 38.5731C42.4825 38.7186 42.0554 38.7916 41.625 38.7888C41.008 38.7938 40.3968 38.6707 39.8298 38.4273C39.2629 38.184 38.7526 37.8257 38.3313 37.375C37.8911 36.9045 37.5471 36.3525 37.3187 35.75C36.8312 34.3989 36.8312 32.9199 37.3187 31.5687C37.5448 30.9716 37.8892 30.4263 38.3313 29.9656C38.7557 29.5282 39.2622 29.1788 39.8219 28.9375C40.384 28.6937 40.9905 28.5693 41.6031 28.5719C42.0375 28.5696 42.4687 28.6425 42.8779 28.7875C43.2646 28.9238 43.6258 29.1234 43.9467 29.3781V28.8344H47.0404V38.5281H43.9467V38.5262ZM42.0342 36.0513C42.6342 36.0513 43.1154 35.8325 43.4779 35.395C43.8404 34.9575 44.0217 34.3825 44.0217 33.67C44.0217 32.9575 43.8404 32.3856 43.4779 31.9544C43.1154 31.5231 42.6342 31.3075 42.0342 31.3075C41.4219 31.3075 40.9375 31.52 40.5812 31.945C40.225 32.37 40.0469 32.945 40.0469 33.67C40.0469 34.395 40.225 34.9731 40.5812 35.4044C40.9375 35.8356 41.4219 36.0513 42.0342 36.0513Z" fill="white"/>
<path id="Vector_11" d="M50 0H34.5L50 16.3931V0Z" fill="white"/>
<path id="Vector_12" d="M40.9669 3.84312C41.7392 3.42521 42.5208 3.00083 43.3125 2.57C44.1042 2.13917 44.8854 1.71458 45.6562 1.29625L46.2971 1.92125L46.9371 2.54625C46.535 3.32833 46.1267 4.11833 45.7125 4.91625C45.2983 5.71417 44.89 6.50562 44.4875 7.29062L44.0183 6.83187L43.5446 6.3675C43.6208 6.21792 43.6996 6.06937 43.7808 5.92187C43.8625 5.77437 43.9413 5.62562 44.0175 5.47687L43.4038 4.875L42.7908 4.27437C42.6425 4.35375 42.4963 4.43562 42.3533 4.52C42.21 4.60437 42.0608 4.68687 41.9158 4.76625L41.4469 4.30687L40.9669 3.84312ZM43.8083 3.7075C43.9333 3.8325 44.0583 3.95312 44.1833 4.0775L44.5583 4.4475C44.7042 4.17667 44.85 3.90292 44.9958 3.62625C45.1417 3.34958 45.2875 3.07583 45.4333 2.805C45.1658 2.95625 44.895 3.10667 44.6208 3.25625C44.3467 3.40583 44.0758 3.55625 43.8083 3.7075Z" fill="#FF5A0F"/>
<path id="Vector_13" d="M44.8625 7.65812L46.6471 5.83625L48.4308 4.01437L48.9025 4.47625L49.3688 4.93312L47.5846 6.75437L45.8 8.57687L45.3338 8.12L44.8625 7.65812Z" fill="#FF5A0F"/>
</g>
</g>
</g>
</g>
</g>
<defs>
<clipPath id="clip0_4175_5931">
<rect width="50" height="50" rx="10" fill="white"/>
</clipPath>
</defs>
</svg>
