<svg width="40" height="40" viewBox="0 0 40 40" fill="none" xmlns="http://www.w3.org/2000/svg">
<g id="openai 1" clip-path="url(#clip0_220_191)">
<path id="Vector" d="M37.1358 16.3694C37.5827 15.0228 37.7372 13.5963 37.5889 12.1851C37.4406 10.774 36.9929 9.41082 36.2758 8.1865C35.2125 6.33553 33.5888 4.87009 31.6389 4.00146C29.689 3.13283 27.5136 2.90591 25.4264 3.35341C24.2409 2.0346 22.7293 1.05087 21.0434 0.501007C19.3575 -0.0488571 17.5566 -0.145508 15.8215 0.220758C14.0864 0.587025 12.4782 1.40332 11.1584 2.58768C9.83859 3.77204 8.85358 5.28278 8.30228 6.96823C6.91171 7.25332 5.59802 7.83194 4.44898 8.66541C3.29995 9.49887 2.34204 10.568 1.63929 11.8013C0.564259 13.6492 0.104826 15.7911 0.327424 17.9173C0.550023 20.0436 1.44312 22.0439 2.87756 23.629C2.42836 24.9751 2.27182 26.4017 2.4184 27.8131C2.56498 29.2246 3.01131 30.5885 3.72751 31.8136C4.79225 33.6652 6.41742 35.131 8.36877 35.9996C10.3201 36.8682 12.4969 37.0948 14.5853 36.6467C15.5272 37.708 16.6848 38.5561 17.9807 39.1343C19.2766 39.7125 20.6809 40.0076 22.0999 39.9999C24.2393 40.0018 26.3239 39.3239 28.0529 38.064C29.7819 36.804 31.0659 35.0273 31.7194 32.9902C33.1095 32.7044 34.4226 32.1255 35.5713 31.2921C36.7199 30.4587 37.6777 29.3899 38.3807 28.1571C39.443 26.3121 39.8946 24.1784 39.671 22.0613C39.4474 19.9441 38.56 17.9518 37.1358 16.3694ZM22.0999 37.3833C20.3483 37.3862 18.6515 36.7727 17.3068 35.6501L17.5418 35.5151L25.5064 30.9187C25.7043 30.8023 25.8685 30.6365 25.9831 30.4375C26.0976 30.2386 26.1584 30.0133 26.1597 29.7837V18.556L29.5262 20.5025C29.5428 20.511 29.5572 20.5232 29.5682 20.5383C29.5792 20.5533 29.5865 20.5708 29.5895 20.5892V29.8937C29.5851 31.8787 28.7946 33.7812 27.391 35.1848C25.9874 36.5884 24.0849 37.3789 22.0999 37.3833ZM6.00073 30.507C5.1216 28.9898 4.80587 27.211 5.10911 25.4839L5.34576 25.6256L13.317 30.2237C13.5141 30.3393 13.7385 30.4002 13.967 30.4002C14.1955 30.4002 14.4198 30.3393 14.6169 30.2237L24.3548 24.609V28.4954C24.3541 28.5157 24.3488 28.5356 24.3392 28.5535C24.3297 28.5714 24.3162 28.5869 24.2998 28.5988L16.2335 33.2502C14.5123 34.2411 12.4683 34.5088 10.5499 33.9945C8.63154 33.4802 6.9955 32.226 6.00073 30.507ZM3.90084 13.1612C4.78574 11.634 6.18258 10.4692 7.84397 9.87308V19.3343C7.84106 19.5627 7.89953 19.7878 8.01328 19.986C8.12702 20.1841 8.29186 20.3481 8.4906 20.4609L18.1818 26.0522L14.8153 27.9988C14.797 28.0084 14.7767 28.0135 14.7561 28.0135C14.7355 28.0135 14.7152 28.0084 14.6969 27.9988L6.64736 23.3557C4.92868 22.3602 3.67459 20.7242 3.1598 18.8059C2.645 16.8876 2.91147 14.8435 3.90084 13.1212V13.1612ZM31.5611 19.5859L21.8399 13.9412L25.1981 12.0013C25.2163 11.9917 25.2366 11.9866 25.2572 11.9866C25.2779 11.9866 25.2982 11.9917 25.3164 12.0013L33.366 16.6527C34.5975 17.3626 35.6015 18.4082 36.2609 19.6674C36.9202 20.9267 37.2076 22.3476 37.0895 23.7641C36.9713 25.1806 36.4525 26.5342 35.5937 27.6669C34.7349 28.7995 33.5714 29.6643 32.2394 30.1604V20.6975C32.2324 20.4693 32.1662 20.2469 32.0473 20.052C31.9284 19.8571 31.7608 19.6965 31.5611 19.5859ZM34.9109 14.5478L34.6759 14.4062L26.7197 9.76975C26.5213 9.65343 26.2955 9.59212 26.0655 9.59212C25.8356 9.59212 25.6098 9.65343 25.4114 9.76975L15.6819 15.3845V11.4963C15.6799 11.4768 15.6831 11.457 15.6913 11.4391C15.6995 11.4212 15.7124 11.4059 15.7286 11.3947L23.7781 6.7499C25.012 6.03981 26.4225 5.69557 27.8447 5.75741C29.267 5.81925 30.6422 6.28461 31.8098 7.09911C32.9774 7.91361 33.889 9.0436 34.4381 10.357C34.9873 11.6704 35.1513 13.113 34.9109 14.5162V14.5478ZM13.8453 21.4391L10.4788 19.4992C10.4619 19.4891 10.4474 19.4753 10.4365 19.4589C10.4255 19.4424 10.4184 19.4238 10.4155 19.4043V10.1264C10.4183 8.7033 10.8259 7.31037 11.5908 6.1103C12.3557 4.91022 13.4462 3.95254 14.7351 3.34911C16.0239 2.74567 17.4578 2.5214 18.8693 2.70247C20.2809 2.88354 21.6117 3.46249 22.7065 4.37169L22.4699 4.50502L14.507 9.10145C14.3088 9.21761 14.1442 9.38331 14.0293 9.58228C13.9145 9.78125 13.8534 10.0067 13.852 10.2364L13.8453 21.4391ZM15.6736 17.4977L20.01 14.9978L24.3548 17.4977V22.4958L20.0267 24.9956L15.6819 22.4958L15.6736 17.4977Z" fill="#B7BEC9"/>
</g>
<defs>
<clipPath id="clip0_220_191">
<rect width="40" height="40" fill="white"/>
</clipPath>
</defs>
</svg>
