<svg width="40" height="40" viewBox="0 0 40 40" fill="none" xmlns="http://www.w3.org/2000/svg">
<g id="Podcast 2" clip-path="url(#clip0_220_195)">
<path id="Vector" d="M8.16327 40H31.8367C36.3469 40 40 36.3469 40 31.8367V8.16327C40 3.65306 36.3469 0 31.8367 0H8.16327C3.65306 0 0 3.65306 0 8.16327V31.8367C0 36.3469 3.65306 40 8.16327 40Z" fill="#B7BEC9"/>
<path id="Vector_2" d="M20 4.89795C27.6653 4.89795 33.8775 11.1102 33.8775 18.7755C33.8775 24.8979 29.9143 30.0979 24.4082 31.9388L24.5755 30.1347C29.0735 28.3224 32.2449 23.9224 32.2449 18.7755C32.2449 12.0122 26.7633 6.5306 20 6.5306C13.2367 6.5306 7.75509 12.0122 7.75509 18.7755C7.75509 23.9224 10.9265 28.3224 15.4245 30.1347L15.5918 31.9388C10.0857 30.0979 6.12244 24.8979 6.12244 18.7755C6.12244 11.1102 12.3347 4.89795 20 4.89795ZM20 9.79591C24.9592 9.79591 28.9796 13.8163 28.9796 18.7755C28.9796 21.9102 27.3714 24.6735 24.9347 26.2775L25.1469 24.0163C25.845 23.3339 26.3993 22.5186 26.7771 21.6185C27.155 20.7184 27.3487 19.7517 27.3469 18.7755C27.3469 14.7184 24.0571 11.4286 20 11.4286C15.9428 11.4286 12.653 14.7184 12.653 18.7755C12.653 20.8286 13.4939 22.6857 14.853 24.0163L15.0653 26.2775C12.6286 24.6735 11.0204 21.9102 11.0204 18.7755C11.0204 13.8163 15.0408 9.79591 20 9.79591ZM16.7347 17.551C16.7347 15.7469 18.1959 14.2857 20 14.2857C21.8041 14.2857 23.2653 15.7469 23.2653 17.551C23.2653 19.3551 21.8041 20.8163 20 20.8163C18.1959 20.8163 16.7347 19.3551 16.7347 17.551ZM20 35.102C18.6122 35.102 17.453 34.0449 17.3224 32.6653L16.6612 25.6122C16.6185 25.1594 16.6709 24.7027 16.815 24.2713C16.9591 23.8399 17.1917 23.4434 17.498 23.1072C17.8042 22.7709 18.1774 22.5024 18.5935 22.3187C19.0096 22.1351 19.4595 22.0404 19.9143 22.0408H20.0857C22.0122 22.0408 23.5184 23.6939 23.3388 25.6122L22.6775 32.6653C22.6144 33.3318 22.305 33.9508 21.8099 34.4014C21.3148 34.8519 20.6694 35.1018 20 35.102Z" fill="white"/>
</g>
<defs>
<clipPath id="clip0_220_195">
<rect width="40" height="40" fill="white"/>
</clipPath>
</defs>
</svg>
