<svg width="67" height="67" viewBox="0 0 67 67" fill="none" xmlns="http://www.w3.org/2000/svg">
<g id="takeaway-box 1">
<path id="Vector" d="M54.4375 25.125H12.5625V54.4375H54.4375V25.125ZM6.28125 20.9375H60.7188V8.375H6.28125V20.9375ZM58.625 25.125V56.5312C58.625 57.0865 58.4044 57.6191 58.0118 58.0118C57.6191 58.4044 57.0865 58.625 56.5312 58.625H10.4688C9.91345 58.625 9.3809 58.4044 8.98825 58.0118C8.59559 57.6191 8.375 57.0865 8.375 56.5312V25.125H4.1875C3.6322 25.125 3.09965 24.9044 2.707 24.5118C2.31434 24.1191 2.09375 23.5865 2.09375 23.0312V6.28125C2.09375 5.72595 2.31434 5.1934 2.707 4.80075C3.09965 4.40809 3.6322 4.1875 4.1875 4.1875H62.8125C63.3678 4.1875 63.9004 4.40809 64.293 4.80075C64.6857 5.1934 64.9062 5.72595 64.9062 6.28125V23.0312C64.9062 23.5865 64.6857 24.1191 64.293 24.5118C63.9004 24.9044 63.3678 25.125 62.8125 25.125H58.625ZM27.2188 33.5H39.7812C40.3365 33.5 40.8691 33.7206 41.2618 34.1132C41.6544 34.5059 41.875 35.0385 41.875 35.5938C41.875 36.149 41.6544 36.6816 41.2618 37.0743C40.8691 37.4669 40.3365 37.6875 39.7812 37.6875H27.2188C26.6635 37.6875 26.1309 37.4669 25.7382 37.0743C25.3456 36.6816 25.125 36.149 25.125 35.5938C25.125 35.0385 25.3456 34.5059 25.7382 34.1132C26.1309 33.7206 26.6635 33.5 27.2188 33.5Z" fill="#FF5A0F"/>
</g>
</svg>
