<svg width="14" height="14" viewBox="0 0 14 14" fill="none" xmlns="http://www.w3.org/2000/svg">
<g id="time-clock" clip-path="url(#clip0_2071_2363)">
<path id="Icon" fill-rule="evenodd" clip-rule="evenodd" d="M7 1.16667C3.77834 1.16667 1.16667 3.77834 1.16667 7C1.16667 10.2217 3.77834 12.8333 7 12.8333C10.2217 12.8333 12.8333 10.2217 12.8333 7C12.8333 3.77834 10.2217 1.16667 7 1.16667ZM0 7C0 3.13401 3.13401 0 7 0C10.866 0 14 3.13401 14 7C14 10.866 10.866 14 7 14C3.13401 14 0 10.866 0 7ZM6.80556 3.11111C7.12772 3.11111 7.38889 3.37228 7.38889 3.69444V6.61111H8.75C9.07217 6.61111 9.33333 6.87228 9.33333 7.19444C9.33333 7.51661 9.07217 7.77778 8.75 7.77778H6.80556C6.48339 7.77778 6.22222 7.51661 6.22222 7.19444V3.69444C6.22222 3.37228 6.48339 3.11111 6.80556 3.11111Z" fill="#B4B4B4"/>
</g>
<defs>
<clipPath id="clip0_2071_2363">
<rect width="14" height="14" fill="white"/>
</clipPath>
</defs>
</svg>
