<svg width="90" height="90" viewBox="0 0 90 90" fill="none" xmlns="http://www.w3.org/2000/svg">
<mask id="path-1-outside-1_911_4412" maskUnits="userSpaceOnUse" x="64.1331" y="38.9309" width="15" height="15" fill="black">
<rect fill="white" x="64.1331" y="38.9309" width="15" height="15"/>
<path d="M71.3866 52.4377C74.8347 52.4377 77.6399 49.6324 77.6399 46.1841C77.6399 42.7361 74.8347 39.9309 71.3866 39.9309C67.9383 39.9309 65.1331 42.7361 65.1331 46.1841C65.133 49.6324 67.9383 52.4377 71.3866 52.4377ZM71.3866 43.1687C73.0493 43.1687 74.4021 44.5215 74.4021 46.1841C74.4021 47.847 73.0493 49.1998 71.3866 49.1998C69.7237 49.1998 68.3709 47.847 68.3709 46.1841C68.3708 44.5214 69.7236 43.1687 71.3866 43.1687Z"/>
</mask>
<path d="M71.3866 52.4377C74.8347 52.4377 77.6399 49.6324 77.6399 46.1841C77.6399 42.7361 74.8347 39.9309 71.3866 39.9309C67.9383 39.9309 65.1331 42.7361 65.1331 46.1841C65.133 49.6324 67.9383 52.4377 71.3866 52.4377ZM71.3866 43.1687C73.0493 43.1687 74.4021 44.5215 74.4021 46.1841C74.4021 47.847 73.0493 49.1998 71.3866 49.1998C69.7237 49.1998 68.3709 47.847 68.3709 46.1841C68.3708 44.5214 69.7236 43.1687 71.3866 43.1687Z" fill="white" fill-opacity="0.4"/>
<path d="M71.3866 52.4377C74.8347 52.4377 77.6399 49.6324 77.6399 46.1841C77.6399 42.7361 74.8347 39.9309 71.3866 39.9309C67.9383 39.9309 65.1331 42.7361 65.1331 46.1841C65.133 49.6324 67.9383 52.4377 71.3866 52.4377ZM71.3866 43.1687C73.0493 43.1687 74.4021 44.5215 74.4021 46.1841C74.4021 47.847 73.0493 49.1998 71.3866 49.1998C69.7237 49.1998 68.3709 47.847 68.3709 46.1841C68.3708 44.5214 69.7236 43.1687 71.3866 43.1687Z" stroke="white" stroke-opacity="0.4" stroke-width="2" mask="url(#path-1-outside-1_911_4412)"/>
<mask id="path-2-outside-2_911_4412" maskUnits="userSpaceOnUse" x="51.1798" y="27.5881" width="15" height="15" fill="black">
<rect fill="white" x="51.1798" y="27.5881" width="15" height="15"/>
<path d="M58.433 41.0949C61.8811 41.0949 64.6862 38.2896 64.6862 34.8413C64.6862 31.3933 61.8811 28.5881 58.433 28.5881C54.9849 28.5881 52.1798 31.3933 52.1798 34.8413C52.1798 38.2895 54.9849 41.0949 58.433 41.0949ZM58.433 31.8258C60.0957 31.8258 61.4484 33.1786 61.4484 34.8412C61.4484 36.5041 60.0957 37.857 58.433 37.857C56.7703 37.857 55.4176 36.5041 55.4176 34.8412C55.4176 33.1786 56.7703 31.8258 58.433 31.8258Z"/>
</mask>
<path d="M58.433 41.0949C61.8811 41.0949 64.6862 38.2896 64.6862 34.8413C64.6862 31.3933 61.8811 28.5881 58.433 28.5881C54.9849 28.5881 52.1798 31.3933 52.1798 34.8413C52.1798 38.2895 54.9849 41.0949 58.433 41.0949ZM58.433 31.8258C60.0957 31.8258 61.4484 33.1786 61.4484 34.8412C61.4484 36.5041 60.0957 37.857 58.433 37.857C56.7703 37.857 55.4176 36.5041 55.4176 34.8412C55.4176 33.1786 56.7703 31.8258 58.433 31.8258Z" fill="white" fill-opacity="0.4"/>
<path d="M58.433 41.0949C61.8811 41.0949 64.6862 38.2896 64.6862 34.8413C64.6862 31.3933 61.8811 28.5881 58.433 28.5881C54.9849 28.5881 52.1798 31.3933 52.1798 34.8413C52.1798 38.2895 54.9849 41.0949 58.433 41.0949ZM58.433 31.8258C60.0957 31.8258 61.4484 33.1786 61.4484 34.8412C61.4484 36.5041 60.0957 37.857 58.433 37.857C56.7703 37.857 55.4176 36.5041 55.4176 34.8412C55.4176 33.1786 56.7703 31.8258 58.433 31.8258Z" stroke="white" stroke-opacity="0.4" stroke-width="2" mask="url(#path-2-outside-2_911_4412)"/>
<mask id="path-3-outside-3_911_4412" maskUnits="userSpaceOnUse" x="1.51392" y="10.4763" width="86" height="61" fill="black">
<rect fill="white" x="1.51392" y="10.4763" width="86" height="61"/>
<path d="M86.2509 43.4746V35.1102C86.2509 31.7544 85.6815 28.7893 84.5586 26.2972C83.5492 24.0572 82.0902 22.1828 80.2218 20.7265C76.3433 17.7031 71.7435 17.2517 69.3468 17.2517H46.6349V13.0952C46.6349 12.2011 45.9101 11.4763 45.016 11.4763C44.122 11.4763 43.3971 12.2011 43.3971 13.0952V17.2517H19.4193C17.0226 17.2517 12.4228 17.7032 8.54433 20.7265C6.67602 22.1828 5.21685 24.0572 4.20756 26.2972C3.08458 28.7893 2.51527 31.7544 2.51527 35.1102V43.4738L2.51392 45.9113V59.2527C2.51392 65.0018 7.19128 69.6791 12.9405 69.6791H17.1554C17.4402 69.6929 18.6606 69.7315 20.1204 69.4899C22.4476 69.1049 24.2332 68.2287 25.4274 66.8851C26.7029 65.4502 27.445 64.3772 27.5995 64.1482C28.8965 62.4146 30.8315 61.3604 33.3515 61.0145C33.8659 60.9439 34.4031 60.897 34.9928 60.8716H41.1711L41.1989 60.8717L41.2319 60.8704C41.2691 60.8697 44.937 60.7684 46.606 62.8547C47.1644 63.5528 48.1832 63.6663 48.8814 63.1076C49.5796 62.5491 49.6928 61.5304 49.1343 60.8322C46.5292 57.5756 41.6747 57.6187 41.1454 57.6337H34.9583L34.8909 57.6352C34.185 57.6646 33.5373 57.7208 32.9111 57.8068C29.4812 58.2774 26.8116 59.7724 24.9761 62.25L24.9262 62.3214C24.9195 62.3314 24.2505 63.3356 23.0075 64.734C21.5887 66.33 18.4047 66.5093 17.3012 66.4445L17.2495 66.4412H12.9405C8.97657 66.4412 5.75172 63.2165 5.75172 59.2527V45.9122L5.75307 43.4746V35.1102C5.75307 29.7338 7.36199 25.7535 10.5349 23.28C13.6497 20.8519 17.4382 20.4894 19.4193 20.4894H69.3467C71.3278 20.4894 75.1163 20.8519 78.2311 23.28C81.4041 25.7535 83.013 29.7338 83.013 35.1102V43.4755L83.0144 45.9113V59.2527C83.0144 63.2165 79.7895 66.4413 75.8255 66.4413H71.5682L71.465 66.4446C70.4378 66.5106 67.1835 66.3371 65.7587 64.7341C64.5156 63.3357 63.8466 62.3314 63.8412 62.3233L63.7901 62.2501C61.9546 59.7725 59.2849 58.2775 55.8555 57.807C55.3621 57.7391 54.16 57.7017 52.6399 57.6599C52.2758 57.6499 51.9778 57.6418 51.8202 57.6353C50.9271 57.598 50.1725 58.292 50.1353 59.1853C50.098 60.0786 50.792 60.833 51.6853 60.8702C51.8588 60.8774 52.1642 60.8859 52.5509 60.8965C53.3009 60.9171 55.0571 60.9655 55.415 61.0146C57.9345 61.3604 59.8695 62.4145 61.1666 64.1481C61.3211 64.377 62.0631 65.4501 63.3388 66.8852C64.5329 68.2286 66.3185 69.1049 68.6457 69.4899C69.6547 69.6568 70.5493 69.6899 71.0996 69.6899C71.3455 69.6899 71.5228 69.6833 71.6107 69.6791H75.8256C81.5749 69.6791 86.2523 65.0018 86.2523 59.2527V45.9104L86.2509 43.4746Z"/>
</mask>
<path d="M86.2509 43.4746V35.1102C86.2509 31.7544 85.6815 28.7893 84.5586 26.2972C83.5492 24.0572 82.0902 22.1828 80.2218 20.7265C76.3433 17.7031 71.7435 17.2517 69.3468 17.2517H46.6349V13.0952C46.6349 12.2011 45.9101 11.4763 45.016 11.4763C44.122 11.4763 43.3971 12.2011 43.3971 13.0952V17.2517H19.4193C17.0226 17.2517 12.4228 17.7032 8.54433 20.7265C6.67602 22.1828 5.21685 24.0572 4.20756 26.2972C3.08458 28.7893 2.51527 31.7544 2.51527 35.1102V43.4738L2.51392 45.9113V59.2527C2.51392 65.0018 7.19128 69.6791 12.9405 69.6791H17.1554C17.4402 69.6929 18.6606 69.7315 20.1204 69.4899C22.4476 69.1049 24.2332 68.2287 25.4274 66.8851C26.7029 65.4502 27.445 64.3772 27.5995 64.1482C28.8965 62.4146 30.8315 61.3604 33.3515 61.0145C33.8659 60.9439 34.4031 60.897 34.9928 60.8716H41.1711L41.1989 60.8717L41.2319 60.8704C41.2691 60.8697 44.937 60.7684 46.606 62.8547C47.1644 63.5528 48.1832 63.6663 48.8814 63.1076C49.5796 62.5491 49.6928 61.5304 49.1343 60.8322C46.5292 57.5756 41.6747 57.6187 41.1454 57.6337H34.9583L34.8909 57.6352C34.185 57.6646 33.5373 57.7208 32.9111 57.8068C29.4812 58.2774 26.8116 59.7724 24.9761 62.25L24.9262 62.3214C24.9195 62.3314 24.2505 63.3356 23.0075 64.734C21.5887 66.33 18.4047 66.5093 17.3012 66.4445L17.2495 66.4412H12.9405C8.97657 66.4412 5.75172 63.2165 5.75172 59.2527V45.9122L5.75307 43.4746V35.1102C5.75307 29.7338 7.36199 25.7535 10.5349 23.28C13.6497 20.8519 17.4382 20.4894 19.4193 20.4894H69.3467C71.3278 20.4894 75.1163 20.8519 78.2311 23.28C81.4041 25.7535 83.013 29.7338 83.013 35.1102V43.4755L83.0144 45.9113V59.2527C83.0144 63.2165 79.7895 66.4413 75.8255 66.4413H71.5682L71.465 66.4446C70.4378 66.5106 67.1835 66.3371 65.7587 64.7341C64.5156 63.3357 63.8466 62.3314 63.8412 62.3233L63.7901 62.2501C61.9546 59.7725 59.2849 58.2775 55.8555 57.807C55.3621 57.7391 54.16 57.7017 52.6399 57.6599C52.2758 57.6499 51.9778 57.6418 51.8202 57.6353C50.9271 57.598 50.1725 58.292 50.1353 59.1853C50.098 60.0786 50.792 60.833 51.6853 60.8702C51.8588 60.8774 52.1642 60.8859 52.5509 60.8965C53.3009 60.9171 55.0571 60.9655 55.415 61.0146C57.9345 61.3604 59.8695 62.4145 61.1666 64.1481C61.3211 64.377 62.0631 65.4501 63.3388 66.8852C64.5329 68.2286 66.3185 69.1049 68.6457 69.4899C69.6547 69.6568 70.5493 69.6899 71.0996 69.6899C71.3455 69.6899 71.5228 69.6833 71.6107 69.6791H75.8256C81.5749 69.6791 86.2523 65.0018 86.2523 59.2527V45.9104L86.2509 43.4746Z" fill="white" fill-opacity="0.4"/>
<path d="M86.2509 43.4746V35.1102C86.2509 31.7544 85.6815 28.7893 84.5586 26.2972C83.5492 24.0572 82.0902 22.1828 80.2218 20.7265C76.3433 17.7031 71.7435 17.2517 69.3468 17.2517H46.6349V13.0952C46.6349 12.2011 45.9101 11.4763 45.016 11.4763C44.122 11.4763 43.3971 12.2011 43.3971 13.0952V17.2517H19.4193C17.0226 17.2517 12.4228 17.7032 8.54433 20.7265C6.67602 22.1828 5.21685 24.0572 4.20756 26.2972C3.08458 28.7893 2.51527 31.7544 2.51527 35.1102V43.4738L2.51392 45.9113V59.2527C2.51392 65.0018 7.19128 69.6791 12.9405 69.6791H17.1554C17.4402 69.6929 18.6606 69.7315 20.1204 69.4899C22.4476 69.1049 24.2332 68.2287 25.4274 66.8851C26.7029 65.4502 27.445 64.3772 27.5995 64.1482C28.8965 62.4146 30.8315 61.3604 33.3515 61.0145C33.8659 60.9439 34.4031 60.897 34.9928 60.8716H41.1711L41.1989 60.8717L41.2319 60.8704C41.2691 60.8697 44.937 60.7684 46.606 62.8547C47.1644 63.5528 48.1832 63.6663 48.8814 63.1076C49.5796 62.5491 49.6928 61.5304 49.1343 60.8322C46.5292 57.5756 41.6747 57.6187 41.1454 57.6337H34.9583L34.8909 57.6352C34.185 57.6646 33.5373 57.7208 32.9111 57.8068C29.4812 58.2774 26.8116 59.7724 24.9761 62.25L24.9262 62.3214C24.9195 62.3314 24.2505 63.3356 23.0075 64.734C21.5887 66.33 18.4047 66.5093 17.3012 66.4445L17.2495 66.4412H12.9405C8.97657 66.4412 5.75172 63.2165 5.75172 59.2527V45.9122L5.75307 43.4746V35.1102C5.75307 29.7338 7.36199 25.7535 10.5349 23.28C13.6497 20.8519 17.4382 20.4894 19.4193 20.4894H69.3467C71.3278 20.4894 75.1163 20.8519 78.2311 23.28C81.4041 25.7535 83.013 29.7338 83.013 35.1102V43.4755L83.0144 45.9113V59.2527C83.0144 63.2165 79.7895 66.4413 75.8255 66.4413H71.5682L71.465 66.4446C70.4378 66.5106 67.1835 66.3371 65.7587 64.7341C64.5156 63.3357 63.8466 62.3314 63.8412 62.3233L63.7901 62.2501C61.9546 59.7725 59.2849 58.2775 55.8555 57.807C55.3621 57.7391 54.16 57.7017 52.6399 57.6599C52.2758 57.6499 51.9778 57.6418 51.8202 57.6353C50.9271 57.598 50.1725 58.292 50.1353 59.1853C50.098 60.0786 50.792 60.833 51.6853 60.8702C51.8588 60.8774 52.1642 60.8859 52.5509 60.8965C53.3009 60.9171 55.0571 60.9655 55.415 61.0146C57.9345 61.3604 59.8695 62.4145 61.1666 64.1481C61.3211 64.377 62.0631 65.4501 63.3388 66.8852C64.5329 68.2286 66.3185 69.1049 68.6457 69.4899C69.6547 69.6568 70.5493 69.6899 71.0996 69.6899C71.3455 69.6899 71.5228 69.6833 71.6107 69.6791H75.8256C81.5749 69.6791 86.2523 65.0018 86.2523 59.2527V45.9104L86.2509 43.4746Z" stroke="white" stroke-opacity="0.4" stroke-width="2" mask="url(#path-3-outside-3_911_4412)"/>
<mask id="path-4-outside-4_911_4412" maskUnits="userSpaceOnUse" x="10.1473" y="25.4958" width="27" height="27" fill="black">
<rect fill="white" x="10.1473" y="25.4958" width="27" height="27"/>
<path d="M23.5863 51.4681C23.5874 51.4681 23.5885 51.4681 23.5898 51.4681C24.4822 51.4681 25.2067 50.7456 25.2086 49.8527L25.2279 40.5974L34.4622 40.5764C35.3563 40.5745 36.0794 39.8479 36.0775 38.9538C36.0755 38.0609 35.3511 37.3386 34.4586 37.3386C34.4574 37.3386 34.4561 37.3386 34.4549 37.3386L25.2347 37.3596L25.254 28.1182C25.2559 27.2241 24.5326 26.4977 23.6385 26.4958C23.6374 26.4958 23.6363 26.4958 23.635 26.4958C22.7426 26.4958 22.0181 27.2185 22.0162 28.1113L21.9969 37.3669L12.7626 37.3878C11.8685 37.3898 11.1454 38.1163 11.1473 39.0104C11.1493 39.9033 11.8737 40.6256 12.7662 40.6256C12.7673 40.6256 12.7687 40.6256 12.7699 40.6256L21.9901 40.6047L21.9708 49.8457C21.9689 50.7399 22.6922 51.4663 23.5863 51.4681Z"/>
</mask>
<path d="M23.5863 51.4681C23.5874 51.4681 23.5885 51.4681 23.5898 51.4681C24.4822 51.4681 25.2067 50.7456 25.2086 49.8527L25.2279 40.5974L34.4622 40.5764C35.3563 40.5745 36.0794 39.8479 36.0775 38.9538C36.0755 38.0609 35.3511 37.3386 34.4586 37.3386C34.4574 37.3386 34.4561 37.3386 34.4549 37.3386L25.2347 37.3596L25.254 28.1182C25.2559 27.2241 24.5326 26.4977 23.6385 26.4958C23.6374 26.4958 23.6363 26.4958 23.635 26.4958C22.7426 26.4958 22.0181 27.2185 22.0162 28.1113L21.9969 37.3669L12.7626 37.3878C11.8685 37.3898 11.1454 38.1163 11.1473 39.0104C11.1493 39.9033 11.8737 40.6256 12.7662 40.6256C12.7673 40.6256 12.7687 40.6256 12.7699 40.6256L21.9901 40.6047L21.9708 49.8457C21.9689 50.7399 22.6922 51.4663 23.5863 51.4681Z" fill="white" fill-opacity="0.4"/>
<path d="M23.5863 51.4681C23.5874 51.4681 23.5885 51.4681 23.5898 51.4681C24.4822 51.4681 25.2067 50.7456 25.2086 49.8527L25.2279 40.5974L34.4622 40.5764C35.3563 40.5745 36.0794 39.8479 36.0775 38.9538C36.0755 38.0609 35.3511 37.3386 34.4586 37.3386C34.4574 37.3386 34.4561 37.3386 34.4549 37.3386L25.2347 37.3596L25.254 28.1182C25.2559 27.2241 24.5326 26.4977 23.6385 26.4958C23.6374 26.4958 23.6363 26.4958 23.635 26.4958C22.7426 26.4958 22.0181 27.2185 22.0162 28.1113L21.9969 37.3669L12.7626 37.3878C11.8685 37.3898 11.1454 38.1163 11.1473 39.0104C11.1493 39.9033 11.8737 40.6256 12.7662 40.6256C12.7673 40.6256 12.7687 40.6256 12.7699 40.6256L21.9901 40.6047L21.9708 49.8457C21.9689 50.7399 22.6922 51.4663 23.5863 51.4681Z" stroke="white" stroke-opacity="0.4" stroke-width="2" mask="url(#path-4-outside-4_911_4412)"/>
</svg>
