<svg width="30" height="16" viewBox="0 0 30 16" fill="none" xmlns="http://www.w3.org/2000/svg">
<rect y="1.5" width="30" height="14" rx="5" fill="#FF5A0F" fill-opacity="0.8"/>
<g clip-path="url(#clip0_2991_5501)">
<path fill-rule="evenodd" clip-rule="evenodd" d="M7.11245 3.56684C7.22859 3.43235 7.41165 3.37899 7.58065 3.43036L8.95 3.8466L10.3206 3.43033C10.4896 3.37901 10.6726 3.43238 10.7887 3.56684L11.7674 4.70015L13.1668 5.26582C13.3375 5.33483 13.4496 5.50203 13.4499 5.68813L13.4523 7.0982L14.2719 8.31655C14.38 8.4773 14.3754 8.68983 14.2604 8.84564L13.4523 9.94061L13.4499 11.46C13.4496 11.646 13.3377 11.8132 13.167 11.8822L11.7674 12.449L10.7886 13.5815C10.6825 13.7042 10.5197 13.7602 10.3617 13.7282L8.94999 13.4424L7.53956 13.7282C7.38156 13.7602 7.21869 13.7042 7.11258 13.5815L6.13376 12.449L4.73411 11.8822C4.56351 11.8132 4.45153 11.646 4.45124 11.46L4.44889 9.94061L3.64075 8.84564C3.52575 8.68983 3.52116 8.4773 3.6293 8.31655L4.44889 7.0982L4.45124 5.68813C4.45155 5.50203 4.56364 5.33483 4.73437 5.26582L6.13376 4.70015L7.11245 3.56684ZM10.3018 4.38728L9.07926 4.75857C8.99488 4.7842 8.90492 4.78419 8.82054 4.75854L7.59933 4.38734L6.74003 5.38239C6.69316 5.43666 6.63424 5.47889 6.56811 5.50562L5.35073 5.99773L5.34866 7.2397C5.34851 7.33091 5.32132 7.41997 5.2706 7.49536L4.55393 8.56071L5.25915 9.51623C5.31712 9.59477 5.34851 9.69014 5.34866 9.78819L5.35076 11.1506L6.56837 11.6437C6.63433 11.6704 6.69311 11.7126 6.7399 11.7667L7.61835 12.783L8.86162 12.5311C8.91991 12.5193 8.97992 12.5193 9.0382 12.5311L10.2828 12.7831L11.1613 11.7667C11.208 11.7126 11.2668 11.6704 11.3328 11.6437L12.5504 11.1506L12.5525 9.78819C12.5527 9.69014 12.584 9.59477 12.642 9.51623L13.3472 8.56071L12.6306 7.49536C12.5798 7.41997 12.5527 7.33091 12.5525 7.2397L12.5504 5.99773L11.333 5.50562C11.2669 5.47889 11.208 5.43666 11.1611 5.38239L10.3018 4.38728ZM11.2279 6.89411C11.3988 7.07676 11.3911 7.36509 11.2107 7.53813L8.36072 10.2715C8.19341 10.4319 7.93338 10.4385 7.75838 10.2866L6.70838 9.37552C6.51969 9.21178 6.49783 8.92419 6.65957 8.73317C6.82131 8.54214 7.1054 8.52002 7.2941 8.68375L8.03617 9.32767L10.5918 6.8767C10.7722 6.70367 11.057 6.71146 11.2279 6.89411Z" fill="white"/>
</g>
<path d="M22.5625 13L21.4961 10.2754H18.0625L17.0078 13H16L19.3867 4.39844H20.2246L23.5938 13H22.5625ZM21.1855 9.37891L20.1895 6.72461C20.0605 6.38867 19.9277 5.97656 19.791 5.48828C19.7051 5.86328 19.582 6.27539 19.4219 6.72461L18.4141 9.37891H21.1855ZM25.1315 13V4.43359H26.1276V13H25.1315Z" fill="white"/>
<defs>
<clipPath id="clip0_2991_5501">
<rect width="12" height="12.1481" fill="white" transform="translate(2.95123 2.5)"/>
</clipPath>
</defs>
</svg>
