<svg width="36" height="18" viewBox="0 0 36 18" fill="none" xmlns="http://www.w3.org/2000/svg">
<rect y="2" width="36" height="16" rx="5" fill="#FF5A0F" fill-opacity="0.8"/>
<path fill-rule="evenodd" clip-rule="evenodd" d="M8.85476 4.2294C8.99025 4.07442 9.20382 4.01292 9.40099 4.07212L10.9986 4.55181L12.5976 4.07209C12.7948 4.01295 13.0083 4.07445 13.1437 4.2294L14.2855 5.53547L15.9182 6.18738C16.1173 6.26691 16.2481 6.4596 16.2485 6.67406L16.2512 8.29908L17.2074 9.70315C17.3336 9.88841 17.3282 10.1333 17.194 10.3129L16.2512 11.5748L16.2485 13.3258C16.2481 13.5401 16.1175 13.7328 15.9185 13.8124L14.2855 14.4656L13.1436 15.7707C13.0198 15.9121 12.8298 15.9766 12.6455 15.9398L10.9986 15.6104L9.35306 15.9397C9.16871 15.9766 8.97871 15.9121 8.85491 15.7707L7.71295 14.4656L6.08003 13.8124C5.88099 13.7328 5.75035 13.5401 5.75001 13.3258L5.74728 11.5748L4.80444 10.3129C4.67028 10.1333 4.66491 9.88841 4.79108 9.70315L5.74728 8.29908L5.75001 6.67406C5.75037 6.4596 5.88115 6.26691 6.08033 6.18738L7.71295 5.53547L8.85476 4.2294ZM12.5756 5.17491L11.1494 5.6028C11.0509 5.63234 10.946 5.63233 10.8475 5.60277L9.42278 5.17498L8.42026 6.32171C8.36559 6.38426 8.29685 6.43293 8.2197 6.46374L6.79941 7.03086L6.797 8.46216C6.79683 8.56727 6.7651 8.66991 6.70594 8.75679L5.86982 9.98454L6.69258 11.0857C6.7602 11.1762 6.79683 11.2861 6.797 11.3991L6.79946 12.9693L8.21999 13.5375C8.29695 13.5683 8.36553 13.6169 8.42012 13.6792L9.44498 14.8505L10.8955 14.5602C10.9635 14.5465 11.0335 14.5465 11.1015 14.5601L12.5535 14.8505L13.5784 13.6792C13.633 13.6169 13.7015 13.5683 13.7785 13.5375L15.199 12.9693L15.2015 11.3991C15.2017 11.2861 15.2383 11.1762 15.3059 11.0857L16.1287 9.98454L15.2926 8.75679C15.2334 8.66991 15.2017 8.56727 15.2015 8.46216L15.1991 7.03086L13.7788 6.46374C13.7016 6.43293 13.6329 6.38426 13.5782 6.32171L12.5756 5.17491ZM13.6561 8.06388C13.8555 8.27437 13.8466 8.60666 13.6361 8.80607L10.3111 11.9561C10.1159 12.141 9.8125 12.1485 9.60835 11.9736L8.38335 10.9236C8.1632 10.7349 8.13771 10.4034 8.3264 10.1833C8.5151 9.96314 8.84653 9.93764 9.06668 10.1263L9.93243 10.8684L12.9139 8.04382C13.1244 7.84441 13.4567 7.85339 13.6561 8.06388Z" fill="white"/>
<path d="M26.6562 15L25.4121 11.8213H21.4062L20.1758 15H19L22.9512 4.96484H23.9287L27.8594 15H26.6562ZM25.0498 10.7754L23.8877 7.67871C23.7373 7.28678 23.5824 6.80599 23.4229 6.23633C23.3226 6.67383 23.179 7.15462 22.9922 7.67871L21.8164 10.7754H25.0498ZM29.6534 15V5.00586H30.8155V15H29.6534Z" fill="white"/>
</svg>
