<svg width="20" height="20" viewBox="0 0 20 20" fill="none" xmlns="http://www.w3.org/2000/svg">
<g id="card">
<path id="Icon" fill-rule="evenodd" clip-rule="evenodd" d="M1 5.75C1 4.23122 2.23122 3 3.75 3H16.25C17.7688 3 19 4.23122 19 5.75V14.25C19 15.7688 17.7688 17 16.25 17H3.75C2.23122 17 1 15.7688 1 14.25V5.75ZM3.75 4.5C3.05964 4.5 2.5 5.05964 2.5 5.75V8H17.5V5.75C17.5 5.05964 16.9404 4.5 16.25 4.5H3.75ZM17.5 9.5H2.5V14.25C2.5 14.9404 3.05964 15.5 3.75 15.5H16.25C16.9404 15.5 17.5 14.9404 17.5 14.25V9.5ZM4 12.75C4 12.3358 4.33579 12 4.75 12H8.25C8.66421 12 9 12.3358 9 12.75C9 13.1642 8.66421 13.5 8.25 13.5H4.75C4.33579 13.5 4 13.1642 4 12.75Z" fill="#646464"/>
</g>
</svg>
