<svg width="20" height="21" viewBox="0 0 20 21" fill="none" xmlns="http://www.w3.org/2000/svg">
<path d="M10.204 8.34888V12.3007H15.6957C15.4546 13.5716 14.7309 14.6477 13.6456 15.3712L16.9573 17.9409C18.8868 16.1598 20 13.5438 20 10.4362C20 9.71264 19.9351 9.01684 19.8145 8.34899L10.204 8.34888Z" fill="#4285F4"/>
<path d="M4.48532 12.1464L3.7384 12.7182L1.09454 14.7775C2.77359 18.1078 6.21493 20.4084 10.2038 20.4084C12.9589 20.4084 15.2687 19.4993 16.9571 17.9409L13.6454 15.3713C12.7363 15.9835 11.5767 16.3546 10.2038 16.3546C7.55074 16.3546 5.29661 14.5642 4.48949 12.1523L4.48532 12.1464Z" fill="#34A853"/>
<path d="M1.09455 5.63086C0.39885 7.00373 0 8.55293 0 10.2041C0 11.8553 0.39885 13.4045 1.09455 14.7774C1.09455 14.7866 4.48982 12.1429 4.48982 12.1429C4.28574 11.5306 4.16511 10.8813 4.16511 10.204C4.16511 9.52675 4.28574 8.87743 4.48982 8.26518L1.09455 5.63086Z" fill="#FBBC05"/>
<path d="M10.204 4.06312C11.7068 4.06312 13.0426 4.58259 14.1094 5.58447L17.0315 2.6624C15.2597 1.01121 12.9592 0 10.204 0C6.21514 0 2.77359 2.2913 1.09454 5.63087L4.48971 8.26541C5.29672 5.85348 7.55095 4.06312 10.204 4.06312Z" fill="#EA4335"/>
</svg>
