<svg width="16" height="15" viewBox="0 0 16 15" fill="none" xmlns="http://www.w3.org/2000/svg">
<path id="Shape-moon" fill-rule="evenodd" clip-rule="evenodd" d="M7.65363 0.866351C7.8523 1.14229 7.87451 1.50791 7.71068 1.80586C7.36542 2.4338 7.16868 3.15517 7.16868 3.92513C7.16868 6.3586 9.1414 8.33132 11.5749 8.33132C12.3448 8.33132 13.0662 8.13458 13.6941 7.78932C13.9921 7.62549 14.3577 7.6477 14.6336 7.84637C14.9096 8.04505 15.0466 8.38475 14.9857 8.71928C14.3875 12.0071 11.5107 14.5 8.04992 14.5C4.15636 14.5 1 11.3436 1 7.45008C1 3.98925 3.49286 1.1125 6.78072 0.514264C7.11525 0.453396 7.45495 0.590415 7.65363 0.866351ZM5.50628 2.8133C3.87085 3.71251 2.76248 5.45241 2.76248 7.45008C2.76248 10.3703 5.12975 12.7375 8.04992 12.7375C10.0476 12.7375 11.7875 11.6291 12.6867 9.99372C12.3258 10.0595 11.9542 10.0938 11.5749 10.0938C8.16801 10.0938 5.4062 7.33199 5.4062 3.92513C5.4062 3.54581 5.44053 3.17418 5.50628 2.8133Z" fill="white" stroke="black" stroke-width="0.3" stroke-linejoin="round"/>
</svg>
