<svg width="15" height="16" viewBox="0 0 15 16" fill="none" xmlns="http://www.w3.org/2000/svg">
<g id="Shape-sun">
<path d="M7.5 0.5C7.91421 0.5 8.25 0.835786 8.25 1.25V2C8.25 2.41421 7.91421 2.75 7.5 2.75C7.08579 2.75 6.75 2.41421 6.75 2V1.25C6.75 0.835786 7.08579 0.5 7.5 0.5Z" fill="#646464"/>
<path d="M7.5 13.25C7.91421 13.25 8.25 13.5858 8.25 14V14.75C8.25 15.1642 7.91421 15.5 7.5 15.5C7.08579 15.5 6.75 15.1642 6.75 14.75V14C6.75 13.5858 7.08579 13.25 7.5 13.25Z" fill="#646464"/>
<path d="M14.25 8.75C14.6642 8.75 15 8.41421 15 8C15 7.58579 14.6642 7.25 14.25 7.25H13.5C13.0858 7.25 12.75 7.58579 12.75 8C12.75 8.41421 13.0858 8.75 13.5 8.75H14.25Z" fill="#646464"/>
<path d="M2.25 8C2.25 8.41421 1.91421 8.75 1.5 8.75H0.75C0.335786 8.75 0 8.41421 0 8C0 7.58579 0.335786 7.25 0.75 7.25H1.5C1.91421 7.25 2.25 7.58579 2.25 8Z" fill="#646464"/>
<path d="M11.2123 12.773L11.7426 13.3033C12.0355 13.5962 12.5104 13.5962 12.8033 13.3033C13.0962 13.0104 13.0962 12.5355 12.8033 12.2426L12.273 11.7123C11.9801 11.4194 11.5052 11.4194 11.2123 11.7123C10.9194 12.0052 10.9194 12.4801 11.2123 12.773Z" fill="#646464"/>
<path d="M3.78769 4.28769C3.4948 4.58058 3.01992 4.58058 2.72703 4.28769L2.1967 3.75736C1.90381 3.46447 1.90381 2.98959 2.1967 2.6967C2.48959 2.40381 2.96447 2.40381 3.25736 2.6967L3.78769 3.22703C4.08058 3.51992 4.08058 3.9948 3.78769 4.28769Z" fill="#646464"/>
<path d="M2.1967 12.2426C1.90381 12.5355 1.90381 13.0104 2.1967 13.3033C2.48959 13.5962 2.96447 13.5962 3.25736 13.3033L3.78769 12.773C4.08058 12.4801 4.08058 12.0052 3.78769 11.7123C3.4948 11.4194 3.01992 11.4194 2.72703 11.7123L2.1967 12.2426Z" fill="#646464"/>
<path d="M11.2123 4.28769C10.9194 3.9948 10.9194 3.51992 11.2123 3.22703L11.7426 2.6967C12.0355 2.40381 12.5104 2.40381 12.8033 2.6967C13.0962 2.98959 13.0962 3.46447 12.8033 3.75736L12.273 4.28769C11.9801 4.58058 11.5052 4.58058 11.2123 4.28769Z" fill="#646464"/>
<path fill-rule="evenodd" clip-rule="evenodd" d="M7.5 3.875C5.22183 3.875 3.375 5.72183 3.375 8C3.375 10.2782 5.22183 12.125 7.5 12.125C9.77817 12.125 11.625 10.2782 11.625 8C11.625 5.72183 9.77817 3.875 7.5 3.875ZM4.875 8C4.875 6.55025 6.05025 5.375 7.5 5.375C8.94975 5.375 10.125 6.55025 10.125 8C10.125 9.44975 8.94975 10.625 7.5 10.625C6.05025 10.625 4.875 9.44975 4.875 8Z" fill="#646464"/>
</g>
</svg>
