<svg width="22" height="22" viewBox="0 0 22 22" fill="none" xmlns="http://www.w3.org/2000/svg">
<g id="Shape-sun">
<path d="M11 1C11.5523 1 12 1.44772 12 2V3C12 3.55228 11.5523 4 11 4C10.4477 4 10 3.55228 10 3V2C10 1.44772 10.4477 1 11 1Z" fill="white"/>
<path d="M11 18C11.5523 18 12 18.4477 12 19V20C12 20.5523 11.5523 21 11 21C10.4477 21 10 20.5523 10 20V19C10 18.4477 10.4477 18 11 18Z" fill="white"/>
<path d="M20 12C20.5523 12 21 11.5523 21 11C21 10.4477 20.5523 10 20 10H19C18.4477 10 18 10.4477 18 11C18 11.5523 18.4477 12 19 12H20Z" fill="white"/>
<path d="M4 11C4 11.5523 3.55228 12 3 12H2C1.44772 12 1 11.5523 1 11C1 10.4477 1.44772 10 2 10H3C3.55228 10 4 10.4477 4 11Z" fill="white"/>
<path d="M15.9497 17.364L16.6569 18.0711C17.0474 18.4616 17.6805 18.4616 18.0711 18.0711C18.4616 17.6805 18.4616 17.0474 18.0711 16.6569L17.364 15.9497C16.9734 15.5592 16.3403 15.5592 15.9497 15.9497C15.5592 16.3403 15.5592 16.9734 15.9497 17.364Z" fill="white"/>
<path d="M6.05025 6.05025C5.65973 6.44078 5.02656 6.44078 4.63604 6.05025L3.92893 5.34315C3.53841 4.95262 3.53841 4.31946 3.92893 3.92893C4.31946 3.53841 4.95262 3.53841 5.34315 3.92893L6.05025 4.63604C6.44078 5.02656 6.44078 5.65973 6.05025 6.05025Z" fill="white"/>
<path d="M3.92893 16.6569C3.53841 17.0474 3.53841 17.6805 3.92893 18.0711C4.31946 18.4616 4.95262 18.4616 5.34315 18.0711L6.05025 17.364C6.44078 16.9734 6.44078 16.3403 6.05025 15.9497C5.65973 15.5592 5.02656 15.5592 4.63604 15.9497L3.92893 16.6569Z" fill="white"/>
<path d="M15.9497 6.05025C15.5592 5.65973 15.5592 5.02656 15.9497 4.63604L16.6569 3.92893C17.0474 3.53841 17.6805 3.53841 18.0711 3.92893C18.4616 4.31946 18.4616 4.95262 18.0711 5.34315L17.364 6.05025C16.9734 6.44078 16.3403 6.44078 15.9497 6.05025Z" fill="white"/>
<path fill-rule="evenodd" clip-rule="evenodd" d="M11 5.5C7.96243 5.5 5.5 7.96243 5.5 11C5.5 14.0376 7.96243 16.5 11 16.5C14.0376 16.5 16.5 14.0376 16.5 11C16.5 7.96243 14.0376 5.5 11 5.5ZM7.5 11C7.5 9.067 9.067 7.5 11 7.5C12.933 7.5 14.5 9.067 14.5 11C14.5 12.933 12.933 14.5 11 14.5C9.067 14.5 7.5 12.933 7.5 11Z" fill="white"/>
<path d="M11 1C11.5523 1 12 1.44772 12 2V3C12 3.55228 11.5523 4 11 4C10.4477 4 10 3.55228 10 3V2C10 1.44772 10.4477 1 11 1Z" stroke="#FF5A0F" stroke-width="0.2"/>
<path d="M11 18C11.5523 18 12 18.4477 12 19V20C12 20.5523 11.5523 21 11 21C10.4477 21 10 20.5523 10 20V19C10 18.4477 10.4477 18 11 18Z" stroke="#FF5A0F" stroke-width="0.2"/>
<path d="M20 12C20.5523 12 21 11.5523 21 11C21 10.4477 20.5523 10 20 10H19C18.4477 10 18 10.4477 18 11C18 11.5523 18.4477 12 19 12H20Z" stroke="#FF5A0F" stroke-width="0.2"/>
<path d="M4 11C4 11.5523 3.55228 12 3 12H2C1.44772 12 1 11.5523 1 11C1 10.4477 1.44772 10 2 10H3C3.55228 10 4 10.4477 4 11Z" stroke="#FF5A0F" stroke-width="0.2"/>
<path d="M15.9497 17.364L16.6569 18.0711C17.0474 18.4616 17.6805 18.4616 18.0711 18.0711C18.4616 17.6805 18.4616 17.0474 18.0711 16.6569L17.364 15.9497C16.9734 15.5592 16.3403 15.5592 15.9497 15.9497C15.5592 16.3403 15.5592 16.9734 15.9497 17.364Z" stroke="#FF5A0F" stroke-width="0.2"/>
<path d="M6.05025 6.05025C5.65973 6.44078 5.02656 6.44078 4.63604 6.05025L3.92893 5.34315C3.53841 4.95262 3.53841 4.31946 3.92893 3.92893C4.31946 3.53841 4.95262 3.53841 5.34315 3.92893L6.05025 4.63604C6.44078 5.02656 6.44078 5.65973 6.05025 6.05025Z" stroke="#FF5A0F" stroke-width="0.2"/>
<path d="M3.92893 16.6569C3.53841 17.0474 3.53841 17.6805 3.92893 18.0711C4.31946 18.4616 4.95262 18.4616 5.34315 18.0711L6.05025 17.364C6.44078 16.9734 6.44078 16.3403 6.05025 15.9497C5.65973 15.5592 5.02656 15.5592 4.63604 15.9497L3.92893 16.6569Z" stroke="#FF5A0F" stroke-width="0.2"/>
<path d="M15.9497 6.05025C15.5592 5.65973 15.5592 5.02656 15.9497 4.63604L16.6569 3.92893C17.0474 3.53841 17.6805 3.53841 18.0711 3.92893C18.4616 4.31946 18.4616 4.95262 18.0711 5.34315L17.364 6.05025C16.9734 6.44078 16.3403 6.44078 15.9497 6.05025Z" stroke="#FF5A0F" stroke-width="0.2"/>
<path fill-rule="evenodd" clip-rule="evenodd" d="M11 5.5C7.96243 5.5 5.5 7.96243 5.5 11C5.5 14.0376 7.96243 16.5 11 16.5C14.0376 16.5 16.5 14.0376 16.5 11C16.5 7.96243 14.0376 5.5 11 5.5ZM7.5 11C7.5 9.067 9.067 7.5 11 7.5C12.933 7.5 14.5 9.067 14.5 11C14.5 12.933 12.933 14.5 11 14.5C9.067 14.5 7.5 12.933 7.5 11Z" stroke="#FF5A0F" stroke-width="0.2"/>
</g>
</svg>
