<svg width="20" height="20" viewBox="0 0 20 20" fill="none" xmlns="http://www.w3.org/2000/svg">
<path id="Shape-moon" fill-rule="evenodd" clip-rule="evenodd" d="M9.55466 1.47102C9.81011 1.8258 9.83865 2.29588 9.62802 2.67896C9.18411 3.48631 8.93116 4.41379 8.93116 5.40373C8.93116 8.53249 11.4675 11.0688 14.5963 11.0688C15.5862 11.0688 16.5137 10.8159 17.321 10.372C17.7041 10.1613 18.1742 10.1899 18.529 10.4453C18.8838 10.7008 19.0599 11.1375 18.9817 11.5676C18.2125 15.7949 14.5138 19 10.0642 19C5.05817 19 1 14.9418 1 9.93582C1 5.48618 4.20511 1.78749 8.43236 1.01834C8.86246 0.940081 9.29922 1.11625 9.55466 1.47102ZM6.79379 3.97424C4.6911 5.13038 3.26604 7.36738 3.26604 9.93582C3.26604 13.6903 6.30967 16.734 10.0642 16.734C12.6326 16.734 14.8696 15.3089 16.0258 13.2062C15.5618 13.2908 15.084 13.3349 14.5963 13.3349C10.216 13.3349 6.66511 9.78399 6.66511 5.40373C6.66511 4.91604 6.70925 4.43823 6.79379 3.97424Z" fill="white" stroke="#FF5A0F" stroke-width="0.3" stroke-linejoin="round"/>
</svg>
