<svg width="20" height="20" viewBox="0 0 20 20" fill="none" xmlns="http://www.w3.org/2000/svg">
<g id="star-filled">
<path id="Icon" d="M8.54124 2.53759C8.9275 1.71971 9.90376 1.35204 10.7284 1.77733C11.0507 1.94355 11.3053 2.21278 11.4587 2.53759L13.125 6.06592C13.1639 6.14811 13.2306 6.19011 13.2905 6.19921L17.0166 6.765C17.9254 6.90301 18.5058 7.76605 18.3837 8.64417C18.3344 8.9989 18.1739 9.33157 17.9213 9.58887L15.2252 12.3353C15.1688 12.3927 15.1361 12.4845 15.1512 12.5811L15.8242 16.4613C15.9741 17.3751 15.3341 18.2198 14.4688 18.3749C14.1101 18.4391 13.7424 18.3775 13.4241 18.2027L10.0914 16.3717C10.0331 16.3396 9.96688 16.3396 9.90851 16.3717L6.57586 18.2027C5.763 18.6492 4.77688 18.3088 4.36986 17.4998C4.20856 17.1791 4.15392 16.8146 4.21191 16.4613L4.84839 12.5833C4.86438 12.4859 4.83161 12.3932 4.77478 12.3353L2.07861 9.58887C1.45149 8.95007 1.43955 7.91423 2.0496 7.26021C2.29591 6.99614 2.62335 6.81968 2.9834 6.765L6.70942 6.19921C6.76933 6.19011 6.83609 6.14811 6.87491 6.06592L8.54124 2.53759Z" fill="#FF5A0F"/>
</g>
</svg>
