<svg width="20" height="20" viewBox="0 0 20 20" fill="none" xmlns="http://www.w3.org/2000/svg">
<g id="star">
<path id="Icon" fill-rule="evenodd" clip-rule="evenodd" d="M10.0866 3.02172C9.99909 2.97659 9.871 3.00028 9.8071 3.13558L8.14077 6.6639C7.91132 7.14975 7.4595 7.50147 6.91954 7.58347L3.19351 8.14926C3.15273 8.15545 3.10971 8.17624 3.0733 8.21527C2.97337 8.32241 2.97633 8.50508 3.07759 8.60823L5.77377 11.3546C6.15101 11.7389 6.31632 12.2833 6.22984 12.8102L5.59336 16.6882C5.58288 16.7521 5.59327 16.8167 5.62045 16.8707C5.68676 17.0025 5.81422 17.0238 5.90168 16.9758L9.23434 15.1448C9.71252 14.8821 10.2873 14.8821 10.7655 15.1448L14.0982 16.9758C14.1384 16.9979 14.1813 17.0042 14.2218 16.9969C14.2806 16.9864 14.3449 16.9486 14.3919 16.8835C14.437 16.821 14.4525 16.7524 14.4429 16.6903L13.77 12.8102C13.6835 12.2833 13.8488 11.7389 14.2261 11.3546L16.9222 8.60823C16.9597 8.57009 16.988 8.51563 16.997 8.45148C17.0211 8.27771 16.904 8.1641 16.8063 8.14926L13.0803 7.58347C12.5403 7.50147 12.0885 7.14975 11.8591 6.6639L10.1927 3.13558C10.1669 3.08083 10.1275 3.04284 10.0866 3.02172ZM8.54118 2.53772C8.92744 1.71983 9.9037 1.35217 10.7283 1.77746C11.0506 1.94367 11.3053 2.2129 11.4587 2.53772L13.125 6.06604C13.1638 6.14823 13.2306 6.19024 13.2905 6.19933L17.0165 6.76513C17.9254 6.90314 18.5057 7.76617 18.3836 8.6443C18.3343 8.99902 18.1739 9.33169 17.9213 9.589L15.2251 12.3354C15.1687 12.3929 15.136 12.4846 15.1511 12.5812L15.8241 16.4614C15.9741 17.3753 15.3341 18.2199 14.4688 18.375C14.1101 18.4393 13.7423 18.3776 13.424 18.2028L10.0914 16.3718C10.033 16.3398 9.96682 16.3398 9.90845 16.3718L6.57579 18.2028C5.76293 18.6494 4.77682 18.3089 4.3698 17.4999C4.2085 17.1793 4.15386 16.8148 4.21184 16.4614L4.84833 12.5834C4.86432 12.486 4.83155 12.3933 4.77472 12.3354L2.07854 9.589C1.45142 8.95019 1.43949 7.91435 2.04954 7.26033C2.29585 6.99627 2.62329 6.8198 2.98333 6.76513L6.70936 6.19933C6.76927 6.19024 6.83603 6.14823 6.87485 6.06604L8.54118 2.53772Z" fill="#FF5A0F"/>
</g>
</svg>
