<svg width="20" height="20" viewBox="0 0 20 20" fill="none" xmlns="http://www.w3.org/2000/svg">
<g id="Icon">
<path id="Icon_2" fill-rule="evenodd" clip-rule="evenodd" d="M9.54081 16.1696L5.9701 18.1314C5.48779 18.3963 4.89123 18.2026 4.63767 17.6985C4.53669 17.4978 4.50185 17.2679 4.53853 17.0444L5.22047 12.8894C5.27537 12.555 5.16926 12.2137 4.93672 11.9768L2.04796 9.03422C1.65775 8.63675 1.64977 7.98398 2.03012 7.57621C2.18158 7.41384 2.38004 7.30817 2.59477 7.27556L6.58694 6.66935C6.9083 6.62056 7.18611 6.40963 7.32982 6.10532L9.11518 2.32498C9.35633 1.81434 9.94795 1.60469 10.4366 1.8567C10.6312 1.95705 10.7887 2.12164 10.8847 2.32498L12.67 6.10532C12.8138 6.40963 13.0916 6.62056 13.4129 6.66935L17.4051 7.27556C17.9443 7.35745 18.318 7.88065 18.2396 8.44416C18.2084 8.66856 18.1073 8.87595 17.9519 9.03422L15.0632 11.9768C14.8306 12.2137 14.7245 12.555 14.7794 12.8894L15.5 17.0444C15.5921 17.6057 15.1928 18.1387 14.6557 18.235C14.4418 18.2733 14.2218 18.2369 14.0298 18.1314L10.4591 16.1696C10.1716 16.0117 9.82824 16.0117 9.54081 16.1696Z" stroke="white" stroke-width="1.5" stroke-linejoin="round"/>
</g>
</svg>
