<svg width="24" height="24" viewBox="0 0 24 24" fill="none" xmlns="http://www.w3.org/2000/svg">
<g id="volume-medium">
<path id="Icon" fill-rule="evenodd" clip-rule="evenodd" d="M11.461 3.67568C11.7884 3.81905 12 4.14264 12 4.50012V19.5001C12 19.8576 11.7884 20.1812 11.461 20.3246C11.1335 20.4679 10.7522 20.4039 10.4896 20.1614L7.64292 17.5338C7.25838 17.1788 7.15276 17.0868 7.04407 17.0203C6.8935 16.9283 6.72785 16.8635 6.55477 16.829C6.42984 16.8041 6.28981 16.8001 5.76648 16.8001H5.73447C5.17135 16.8001 4.70128 16.8001 4.31585 16.7724C3.91443 16.7435 3.53585 16.6812 3.17114 16.5207C2.41547 16.1883 1.81185 15.5847 1.4794 14.829C1.31895 14.4643 1.25662 14.0857 1.22773 13.6843C1.19999 13.2989 1.2 12.8288 1.20001 12.2657V11.7346C1.2 11.1715 1.19999 10.7014 1.22773 10.316C1.25662 9.91453 1.31895 9.53595 1.4794 9.17125C1.81185 8.41557 2.41547 7.81195 3.17114 7.4795C3.53585 7.31906 3.91443 7.25673 4.31585 7.22784C4.70128 7.2001 5.17135 7.20011 5.73447 7.20012L5.76648 7.20012C6.28981 7.20012 6.42984 7.19609 6.55477 7.1712C6.72786 7.13671 6.8935 7.07195 7.04407 6.97989C7.15276 6.91344 7.25838 6.82142 7.64292 6.46646L10.4896 3.83879C10.7522 3.59632 11.1335 3.5323 11.461 3.67568ZM10.2 6.5557L8.86383 7.7891C8.84593 7.80562 8.82827 7.82194 8.81082 7.83807C8.50391 8.12164 8.26243 8.34476 7.98298 8.51561C7.65171 8.71814 7.2873 8.86062 6.90651 8.9365C6.58529 9.0005 6.25651 9.00034 5.83866 9.00014C5.81489 9.00013 5.79084 9.00012 5.76648 9.00012C5.16312 9.00012 4.75817 9.00066 4.44506 9.02319C4.14067 9.0451 3.99314 9.08436 3.89598 9.12711C3.55249 9.27822 3.27812 9.5526 3.12701 9.89608C3.08426 9.99325 3.045 10.1408 3.02309 10.4452C3.00056 10.7583 3.00001 11.1632 3.00001 11.7666V12.2336C3.00001 12.837 3.00056 13.242 3.02309 13.5551C3.045 13.8595 3.08426 14.007 3.12701 14.1041C3.27812 14.4476 3.55249 14.722 3.89598 14.8731C3.99314 14.9159 4.14067 14.9551 4.44506 14.977C4.75817 14.9996 5.16312 15.0001 5.76648 15.0001C5.79084 15.0001 5.8149 15.0001 5.83867 15.0001C6.25651 14.9999 6.58529 14.9997 6.90651 15.0637C7.2873 15.1396 7.65171 15.2821 7.98298 15.4846C8.26243 15.6555 8.50391 15.8786 8.81081 16.1622C8.82827 16.1783 8.84593 16.1946 8.86383 16.2111L10.2 17.4445V6.5557ZM15.095 7.69762C15.3173 7.25304 15.8579 7.07284 16.3025 7.29513C17.1485 7.71814 17.721 8.47811 18.0761 9.29915C18.4328 10.1239 18.6 11.0739 18.6 12.0001C18.6 12.9264 18.4328 13.8763 18.0761 14.7011C17.721 15.5221 17.1485 16.2821 16.3025 16.7051C15.8579 16.9274 15.3173 16.7472 15.095 16.3026C14.8727 15.858 15.0529 15.3174 15.4975 15.0951C15.8515 14.9181 16.179 14.5531 16.4239 13.9866C16.6673 13.4239 16.8 12.7239 16.8 12.0001C16.8 11.2764 16.6673 10.5763 16.4239 10.0136C16.179 9.44712 15.8515 9.08209 15.4975 8.9051C15.0529 8.68281 14.8727 8.1422 15.095 7.69762Z" fill="#898989"/>
</g>
</svg>
