<svg width="24" height="24" viewBox="0 0 24 24" fill="none" xmlns="http://www.w3.org/2000/svg">
<g id="volume-max">
<path id="Icon" fill-rule="evenodd" clip-rule="evenodd" d="M17.58 3.95991C17.8782 3.56226 18.4424 3.48167 18.84 3.77991C24.12 7.73991 24.12 16.2599 18.84 20.2199C18.4424 20.5181 17.8782 20.4375 17.58 20.0399C17.2818 19.6423 17.3624 19.0781 17.76 18.7799C22.08 15.5399 22.08 8.45991 17.76 5.21991C17.3624 4.92167 17.2818 4.35755 17.58 3.95991ZM11.461 3.67547C11.7884 3.81884 12 4.14243 12 4.49991V19.4999C12 19.8574 11.7884 20.181 11.461 20.3243C11.1335 20.4677 10.7522 20.4037 10.4896 20.1612L7.64292 17.5336C7.25838 17.1786 7.15276 17.0866 7.04407 17.0201C6.8935 16.9281 6.72785 16.8633 6.55477 16.8288C6.42984 16.8039 6.28981 16.7999 5.76648 16.7999H5.73447C5.17135 16.7999 4.70128 16.7999 4.31585 16.7722C3.91443 16.7433 3.53585 16.681 3.17114 16.5205C2.41547 16.1881 1.81185 15.5844 1.4794 14.8288C1.31895 14.4641 1.25662 14.0855 1.22773 13.6841C1.19999 13.2986 1.2 12.8286 1.20001 12.2655V11.7344C1.2 11.1712 1.19999 10.7012 1.22773 10.3157C1.25662 9.91432 1.31895 9.53574 1.4794 9.17104C1.81185 8.41536 2.41547 7.81174 3.17114 7.47929C3.53585 7.31885 3.91443 7.25652 4.31585 7.22763C4.70128 7.19989 5.17135 7.1999 5.73447 7.19991L5.76648 7.19991C6.28981 7.19991 6.42984 7.19588 6.55477 7.17099C6.72786 7.1365 6.8935 7.07174 7.04407 6.97968C7.15276 6.91323 7.25838 6.82121 7.64292 6.46625L10.4896 3.83858C10.7522 3.59611 11.1335 3.53209 11.461 3.67547ZM10.2 6.55549L8.86383 7.78889C8.84593 7.80541 8.82827 7.82173 8.81082 7.83786C8.50391 8.12143 8.26243 8.34455 7.98298 8.5154C7.65171 8.71793 7.2873 8.86041 6.90651 8.93629C6.58529 9.00029 6.25651 9.00013 5.83866 8.99993C5.81489 8.99992 5.79084 8.99991 5.76648 8.99991C5.16312 8.99991 4.75817 9.00045 4.44506 9.02298C4.14067 9.04489 3.99314 9.08416 3.89598 9.1269C3.55249 9.27801 3.27812 9.55239 3.12701 9.89587C3.08426 9.99304 3.045 10.1406 3.02309 10.445C3.00056 10.7581 3.00001 11.163 3.00001 11.7664V12.2334C3.00001 12.8368 3.00056 13.2417 3.02309 13.5549C3.045 13.8593 3.08426 14.0068 3.12701 14.1039C3.27812 14.4474 3.55249 14.7218 3.89598 14.8729C3.99314 14.9157 4.14067 14.9549 4.44506 14.9768C4.75817 14.9994 5.16312 14.9999 5.76648 14.9999C5.79084 14.9999 5.8149 14.9999 5.83867 14.9999C6.25651 14.9997 6.58529 14.9995 6.90651 15.0635C7.2873 15.1394 7.65171 15.2819 7.98298 15.4844C8.26243 15.6553 8.50391 15.8784 8.81081 16.162C8.82827 16.1781 8.84593 16.1944 8.86383 16.2109L10.2 17.4443V6.55549ZM15.095 7.69741C15.3173 7.25283 15.8579 7.07263 16.3025 7.29492C17.1485 7.71793 17.721 8.4779 18.0761 9.29894C18.4328 10.1237 18.6 11.0736 18.6 11.9999C18.6 12.9262 18.4328 13.8761 18.0761 14.7009C17.721 15.5219 17.1485 16.2819 16.3025 16.7049C15.8579 16.9272 15.3173 16.747 15.095 16.3024C14.8727 15.8578 15.0529 15.3172 15.4975 15.0949C15.8515 14.9179 16.179 14.5529 16.4239 13.9864C16.6673 13.4237 16.8 12.7236 16.8 11.9999C16.8 11.2762 16.6673 10.5761 16.4239 10.0134C16.179 9.44691 15.8515 9.08188 15.4975 8.90489C15.0529 8.6826 14.8727 8.14199 15.095 7.69741Z" fill="#898989"/>
</g>
</svg>
