<svg width="75" height="75" viewBox="0 0 75 75" fill="none" xmlns="http://www.w3.org/2000/svg">
<g id="&#232;&#137;&#186;&#230;&#156;&#175; 1" clip-path="url(#clip0_696_282)">
<path id="Vector" d="M28.0888 43.5643C27.9769 46.9211 25.1796 49.5693 21.8227 49.4947C18.5778 49.4201 16.0042 46.8092 15.8923 43.5643C15.4074 40.2821 18.2421 37.4847 21.5243 37.4847C25.2914 37.4847 28.0888 40.2821 28.0888 43.5643ZM24.8066 31.4051C21.4497 31.3305 18.7643 28.645 18.727 25.3255C18.727 22.0432 21.5243 18.761 24.8066 18.761C28.1261 18.8356 30.8116 21.5211 30.8862 24.8406C30.9235 28.6077 28.0888 31.4051 24.8066 31.4051ZM49.6472 18.761C49.5726 22.0805 46.8871 24.766 43.5676 24.8406C40.2853 25.3255 37.488 22.4908 37.488 18.761C37.488 15.0312 40.2853 12.6814 43.5676 12.6814C46.8871 12.756 49.5726 15.4415 49.6472 18.761Z" fill="#F0F0F0" fill-opacity="0.4"/>
<path id="Vector_2" d="M12.1997 68.3676C26.7087 69.7849 21.5615 54.3435 34.6532 54.3435L40.2852 59.0057C42.1501 75.8645 20.5918 80.0792 12.1997 68.3676ZM56.1743 45.9141C60.8738 38.902 74.4131 15.4787 74.4131 15.4787C74.8606 14.4344 74.4504 13.2409 73.4433 12.6814C72.7346 12.1965 71.8022 12.1965 71.0935 12.6814C71.0935 12.6814 50.5049 30.4726 44.388 36.0673C39.7257 40.7669 39.7257 42.6318 37.8608 50.0915L43.008 54.3062C50.5422 52.031 52.4444 51.5461 56.1743 45.9141ZM16.862 60.8706C3.80759 49.6439 2.31566 29.9877 13.5424 16.9334C13.5424 16.8961 13.5797 16.8961 13.5797 16.8588C19.6593 10.2943 28.0887 6.07961 36.9657 6.07961C49.1249 6.07961 57.1067 12.1592 57.1067 16.8588C58.9716 14.9939 60.8365 13.5765 62.2539 12.1592C59.4565 5.59473 49.6098 0 36.9657 0C16.5636 0.0372982 0.00317383 16.5604 0.00317383 36.9998V37.9696C0.040472 46.7346 3.17352 55.2013 8.88014 61.8404C11.2299 63.2577 14.5122 62.7729 16.862 60.8706ZM56.6591 55.2759C59.9414 61.3555 52.4444 65.5702 45.4324 67.92C44.9475 70.2698 43.5675 72.5823 41.2177 74.9321C57.5916 73.0672 69.3032 61.3555 60.8738 50.1288C59.9041 51.9937 58.524 53.411 56.6591 55.2759Z" fill="white" fill-opacity="0.4"/>
</g>
<defs>
<clipPath id="clip0_696_282">
<rect width="75" height="75" fill="white"/>
</clipPath>
</defs>
</svg>
