<svg width="100" height="100" viewBox="0 0 100 100" fill="none" xmlns="http://www.w3.org/2000/svg">
<g id="&#232;&#130;&#161;&#231;&#165;&#168; 1">
<path id="Vector" d="M26.6667 77.9999H15.3334C14.6667 77.9999 14.0001 77.3333 14.0001 76.6666V55.7777C14.0001 55.111 14.6667 54.4444 15.3334 54.4444H26.6667C27.3334 54.4444 28.0001 55.111 28.0001 55.7777V76.6666C28.0001 77.3333 27.5556 77.9999 26.6667 77.9999ZM45.7778 77.9999H34.2223C33.5556 77.9999 32.8889 77.3333 32.8889 76.6666V28.2221C32.8889 27.5555 33.5556 26.8888 34.2223 26.8888H45.7778C46.4445 26.8888 47.1112 27.5555 47.1112 28.2221V76.6666C47.1112 77.3333 46.4445 77.9999 45.7778 77.9999ZM64.8889 77.9999H53.3334C52.6667 77.9999 52.0001 77.3333 52.0001 76.6666V41.7777C52.0001 41.111 52.6667 40.4444 53.3334 40.4444H64.8889C65.5556 40.4444 66.2223 41.111 66.2223 41.7777V76.6666C66.2223 77.3333 65.5556 77.9999 64.8889 77.9999ZM84.0001 77.9999H72.4445C71.7778 77.9999 71.1112 77.3333 71.1112 76.6666V14.6666C71.1112 13.9999 71.7778 13.3333 72.4445 13.3333H84.0001C84.6667 13.3333 85.3334 13.9999 85.3334 14.6666V76.6666C85.3334 77.3333 84.6667 77.9999 84.0001 77.9999ZM86.0001 87.7777H13.1112C12.4445 87.7777 11.7778 87.111 11.7778 86.4444V83.7777C11.7778 83.111 12.4445 82.4444 13.1112 82.4444H86.0001C86.6667 82.4444 87.3334 83.111 87.3334 83.7777V86.6666C87.3334 87.3333 86.8889 87.7777 86.0001 87.7777Z" fill="white" fill-opacity="0.4"/>
</g>
</svg>
