<svg width="75" height="75" viewBox="0 0 75 75" fill="none" xmlns="http://www.w3.org/2000/svg">
<g id="comedy 1" clip-path="url(#clip0_696_318)">
<path id="Vector" d="M14.3937 22.9322C14.5609 20.3989 14.6612 17.8672 14.9304 15.3556C15.2331 12.538 16.3752 9.99632 18.034 7.72886C19.2717 6.0623 20.8315 4.6612 22.6207 3.60864C26.3447 1.37295 30.4565 0.431523 34.7139 0.113811C38.3642 -0.155407 42.0028 0.0352195 45.5829 0.959928C48.5176 1.71742 51.2951 2.79931 53.723 4.62365C56.6019 6.76918 58.6888 9.8081 59.6576 13.2654C60.4936 16.175 60.6609 19.1999 60.4936 22.2265C60.4687 22.3822 60.408 22.5299 60.3163 22.6582C60.2246 22.7864 60.1044 22.8917 59.9652 22.9656C57.6041 23.8636 55.2648 24.8535 52.8418 25.5475C45.2853 27.7113 37.6753 29.0925 29.7659 27.3601C26.1741 26.5742 22.5973 25.815 19.141 24.5475C17.641 23.994 16.1127 23.5141 14.3937 22.9322Z" fill="white" fill-opacity="0.4"/>
<path id="Vector_2" d="M62.129 45.4696C61.8029 44.6686 61.619 43.8727 61.1892 43.2439C60.619 42.4078 59.9719 41.5366 59.1559 40.9798C57.1259 39.5953 54.7748 38.8244 52.3936 38.3813C46.9223 37.3612 41.3824 36.8295 35.8174 37.0954C31.4464 37.3044 27.0703 37.6488 22.7361 38.2308C20.3802 38.5523 18.1124 39.3414 16.0658 40.5517C14.0843 41.7222 12.8302 43.2807 12.4054 45.7789C10.6898 45.1953 8.96411 44.7171 7.33375 44.0198C6.12855 43.4934 4.99338 42.8194 3.9543 42.0132C1.42933 40.0852 -0.599011 36.6957 0.347436 33.2327C1.24037 29.9736 3.19012 27.5138 6.52442 26.5072C7.49093 26.2146 8.67984 26.3266 9.68649 26.5774C11.3988 27.0038 13.0442 27.6944 14.7214 28.263C18.7613 29.6325 22.8097 30.8766 27.0954 31.3949C31.4297 31.92 35.7556 32.2461 40.1099 32.0538C42.1085 31.9672 44.1005 31.7662 46.0762 31.4518C48.6965 31.0321 51.3184 30.5589 53.8852 29.9C55.9269 29.375 57.8733 28.4887 59.8883 27.8483C61.7862 27.2446 63.6925 26.6142 65.6405 26.2363C68.7775 25.6293 71.7373 27.87 73.3542 30.2696C74.4896 31.9551 75.1585 33.7811 74.7639 35.8379C74.2422 38.5685 72.6703 40.6537 70.3895 42.1152C68.8327 43.1185 67.1137 43.881 65.4031 44.6C64.3463 45.0432 63.1707 45.2037 62.129 45.4696ZM21.8381 55.0879C22.507 55.3805 23.6156 55.745 24.6005 56.3203C27.0469 57.75 29.3311 59.4974 31.8778 60.703C34.7857 62.0775 37.9076 62.4237 41.1466 61.5057C44.1231 60.6696 46.6464 59.0743 49.1881 57.4222C50.4606 56.5861 51.8636 55.8286 53.32 55.4524C55.7112 54.832 57.8349 56.5661 57.4519 59.6061C57.171 61.82 56.1142 63.6862 54.8015 65.4888C53.5001 67.2878 51.947 68.8905 50.1897 70.2477C47.3989 72.3948 44.2702 74.0486 40.7687 74.6907C37.4908 75.3265 34.0981 74.9774 31.0183 73.6874C29.1589 72.9138 27.3763 71.9671 25.6941 70.8598C23.2411 69.2444 21.2612 67.191 19.5623 64.8617C18.4035 63.2715 17.6126 61.4488 17.5423 59.4322C17.4537 56.8587 19.1142 55.3053 21.8381 55.0879ZM22.5906 60.4505L22.4518 60.5592C22.7679 61.1946 22.9852 61.907 23.4183 62.4504C26.0386 65.7413 29.1873 68.3465 33.2841 69.5989C34.4546 69.9585 35.6803 70.328 36.8926 70.3765C41.0731 70.5437 44.6164 68.8465 47.74 66.2429C49.0125 65.1828 50.081 63.8751 51.2014 62.6394C51.5609 62.2414 51.7699 61.7113 52.1495 61.0709C50.999 61.7548 50.0911 62.3183 49.1613 62.8417C47.8236 63.5992 46.5109 64.4738 45.0863 65.0406C42.4292 66.0991 39.6801 66.7328 36.7539 66.5807C33.2791 66.4001 30.1822 65.1911 27.2476 63.4705C25.654 62.534 24.1407 61.4605 22.5873 60.4488L22.5906 60.4505Z" fill="white" fill-opacity="0.4"/>
<path id="Vector_3" d="M32.6637 46.7504C32.7925 48.5781 34.0014 49.8222 35.5064 49.7503C36.9378 49.6834 38.2538 48.3122 38.2002 46.9444C38.14 45.4077 36.8207 44.3592 35.0097 44.4111C36.3324 43.0332 39.1417 43.2038 41.1349 44.9896C43.2686 46.8993 43.7836 49.8138 41.9258 52.4542C40.1834 54.9307 36.8592 55.1514 34.6118 53.8488C32.05 52.3622 31.2708 48.7922 32.6637 46.7504Z" fill="white" fill-opacity="0.4"/>
</g>
<defs>
<clipPath id="clip0_696_318">
<rect width="75" height="75" fill="white"/>
</clipPath>
</defs>
</svg>
