<svg width="90" height="90" viewBox="0 0 90 90" fill="none" xmlns="http://www.w3.org/2000/svg">
<g id="&#229;&#173;&#166;&#229;&#163;&#171;&#229;&#184;&#189; 1">
<path id="Vector" d="M84.8704 33.6772L46.6861 13.6855C46.1709 13.4158 45.598 13.2749 45.0164 13.2749C44.4348 13.2749 43.8619 13.4158 43.3467 13.6855L5.16281 33.6772C4.62761 33.9579 4.17171 34.3689 3.83715 34.8722C3.5026 35.3756 3.30016 35.955 3.24851 36.5572C3.21731 36.7449 3.2009 36.9348 3.19946 37.1251V64.1251C3.19946 65.0799 3.57875 65.9955 4.25388 66.6707C4.92901 67.3458 5.84468 67.7251 6.79946 67.7251C7.75424 67.7251 8.66992 67.3458 9.34505 66.6707C10.0202 65.9955 10.3995 65.0799 10.3995 64.1251V42.2074L19.3122 45.8389C19.0519 46.345 18.9162 46.906 18.9162 47.4751V65.4751C18.9156 65.9709 19.0177 66.4614 19.216 66.9158C19.4144 67.3702 19.7047 67.7786 20.0686 68.1152C23.6619 74.0494 34.8849 76.7251 45.0162 76.7251C55.1466 76.7251 66.3687 74.0498 69.9628 68.1161C70.3271 67.7795 70.6177 67.371 70.8162 66.9164C71.0147 66.4619 71.1168 65.9711 71.1162 65.4751V47.4751C71.1162 46.906 70.9804 46.345 70.7202 45.8389L84.5581 40.2004C85.1935 39.9412 85.7415 39.5059 86.1378 38.9457C86.5341 38.3855 86.7621 37.7238 86.7949 37.0384C86.8277 36.353 86.664 35.6725 86.323 35.077C85.9821 34.4815 85.4781 33.9959 84.8704 33.6772ZM63.9166 64.1489C63.9087 64.1684 63.9012 64.1881 63.8941 64.2079C63.1759 66.1163 56.2536 69.5251 45.0162 69.5251C33.7783 69.5251 26.8564 66.1163 26.1382 64.2079L26.1162 64.1503V48.6118L43.6576 55.7591C44.5284 56.1149 45.504 56.1149 46.3747 55.7591L63.9162 48.6118V64.1489H63.9166ZM45.0166 48.5375L15.3729 36.4591L45.0166 20.9386L74.6604 36.4591L45.0166 48.5375Z" fill="white" fill-opacity="0.4"/>
</g>
</svg>
