<svg width="85" height="100" viewBox="0 0 85 100" fill="none" xmlns="http://www.w3.org/2000/svg">
<g id="&#231;&#159;&#179;&#229;&#162;&#168;&#230;&#150;&#135;&#230;&#161;&#163;-copy 1">
<path id="Vector" d="M61.6406 56.5137V51.3574H52.5098L38.6914 87.2363C38.2813 88.3008 37.2754 88.9453 36.2012 88.9453C35.8789 88.9453 35.5566 88.8867 35.2441 88.7695C33.8672 88.2422 33.1836 86.6992 33.7109 85.3223L46.7871 51.3574H38.623V56.5137C30.0879 56.5137 23.1738 63.4277 23.1738 71.9629V83.3203C23.1738 87.3047 26.4063 90.5273 30.3809 90.5273H69.8926C73.877 90.5273 77.0996 87.2949 77.0996 83.3203V71.9629C77.0898 63.4277 70.1758 56.5137 61.6406 56.5137Z" fill="white" fill-opacity="0.4"/>
<path id="Vector_2" d="M64.9609 35.5469H58.5937L52.5098 51.3574H64.9609C66.3574 51.3574 67.4805 50.2246 67.4805 48.8379V38.0664C67.4805 36.6699 66.3477 35.5469 64.9609 35.5469ZM35.3027 35.5469C33.9062 35.5469 32.7832 36.6797 32.7832 38.0664V48.8281C32.7832 50.2246 33.916 51.3477 35.3027 51.3477H46.7871L52.8711 35.5469H35.3027Z" fill="white" fill-opacity="0.4"/>
<path id="Vector_3" d="M60.5664 30.4297C60.7812 29.873 61.1719 29.414 61.6992 29.1308C63.0469 28.3886 64.7949 27.0508 66.4453 25.3027C68.2129 23.4375 68.1055 21.3379 67.5195 20.1562C67.3828 19.8925 67.1777 19.6582 66.9336 19.4531C66.2695 18.9062 66.2988 17.8613 66.875 17.2265C69.5605 14.2871 71.0254 12.1972 70.7422 8.49606C70.5957 6.65036 67.9102 5.65427 65.8398 6.46481C64.0723 7.15817 63.2031 8.7402 62.9785 9.29684L52.8711 35.5468H58.5937L60.5664 30.4297Z" fill="white" fill-opacity="0.4"/>
<path id="Vector_4" d="M33.711 85.3125C33.1836 86.6895 33.8672 88.2324 35.2442 88.7598C35.5567 88.877 35.8789 88.9356 36.2012 88.9356C37.2754 88.9356 38.2813 88.2813 38.6914 87.2266L52.5098 51.3477H46.7871L33.711 85.3125Z" fill="white" fill-opacity="0.4"/>
<path id="Vector_5" d="M52.8711 35.5469L46.7871 51.3477H52.5098L58.5937 35.5469H52.8711Z" fill="white" fill-opacity="0.4"/>
</g>
</svg>
