<svg width="98" height="100" viewBox="0 0 98 100" fill="none" xmlns="http://www.w3.org/2000/svg">
<g id="film-fill 1">
<path id="Vector" d="M8.33325 16.6375C8.34088 15.5432 8.77867 14.4959 9.55206 13.7217C10.3254 12.9476 11.3723 12.5087 12.4666 12.5H87.5332C89.8166 12.5 91.6666 14.3542 91.6666 16.6375V83.3625C91.659 84.4568 91.2212 85.5041 90.4478 86.2783C89.6744 87.0524 88.6275 87.4913 87.5332 87.5H12.4666C11.37 87.4989 10.3187 87.0625 9.54362 86.2867C8.76859 85.5109 8.33325 84.4591 8.33325 83.3625V16.6375ZM16.6666 20.8333V29.1667H24.9999V20.8333H16.6666ZM74.9999 20.8333V29.1667H83.3333V20.8333H74.9999ZM16.6666 37.5V45.8333H24.9999V37.5H16.6666ZM74.9999 37.5V45.8333H83.3333V37.5H74.9999ZM16.6666 54.1667V62.5H24.9999V54.1667H16.6666ZM74.9999 54.1667V62.5H83.3333V54.1667H74.9999ZM16.6666 70.8333V79.1667H24.9999V70.8333H16.6666ZM74.9999 70.8333V79.1667H83.3333V70.8333H74.9999Z" fill="white" fill-opacity="0.4"/>
</g>
</svg>
