<svg width="75" height="75" viewBox="0 0 75 75" fill="none" xmlns="http://www.w3.org/2000/svg">
<g id="White-House 1" clip-path="url(#clip0_696_351)">
<path id="Vector" d="M68.3643 64.8147H66.821V63.2715C66.821 62.3456 66.2038 61.7283 65.2778 61.7283H60.6482V46.2962H62.1914C64.6605 46.2962 66.821 44.1357 66.821 41.6666C66.821 39.1974 64.6605 37.0369 62.1914 37.0369H60.6482C60.0309 26.5431 52.3149 17.9011 42.1297 15.7406C41.821 14.1974 40.5865 12.9629 39.0433 12.3456V9.25916H46.7593C47.3766 9.25916 47.9939 8.95052 48.3025 8.33324C48.6112 7.71595 48.3025 7.09867 47.9939 6.79003L46.142 4.93818L47.9939 3.08632C48.3025 2.77768 48.6112 1.85176 48.3025 1.54311C47.9939 0.925829 47.3766 0.617188 46.7593 0.617188H37.5001C36.5741 0.617188 35.9568 1.23447 35.9568 2.1604V13.2715C34.4136 13.8888 33.4877 15.1234 32.8704 16.6666C22.6852 18.5184 14.9692 27.1604 14.3519 37.9629H12.8087C10.3396 37.9629 8.17907 40.1234 8.17907 42.5925C8.17907 45.0616 10.3396 47.2221 12.8087 47.2221H14.3519V62.6542H9.72227C8.79635 62.6542 8.17907 63.2715 8.17907 64.1974V65.7407H6.63586C4.16672 65.7407 2.00623 67.9011 2.00623 70.3703V73.4567C2.00623 74.3826 2.62351 74.9999 3.54944 74.9999H71.4507C72.3766 74.9999 72.9939 74.3826 72.9939 73.4567V70.3703C72.9939 66.9752 70.8334 64.8147 68.3643 64.8147ZM39.0433 3.08632H43.0556L42.747 3.39497C42.1297 4.01225 42.1297 4.93818 42.747 5.55546L43.0556 5.8641H39.0433V3.08632ZM37.5001 18.5184C47.9939 18.5184 56.6359 26.5431 57.5618 37.0369H17.4383C18.3643 26.5431 27.0062 18.5184 37.5001 18.5184ZM12.8087 43.2098C11.8828 43.2098 11.2655 42.5925 11.2655 41.6666C11.2655 40.7407 11.8828 40.1234 12.8087 40.1234H62.1914C63.1173 40.1234 63.7346 40.7407 63.7346 41.6666C63.7346 42.5925 63.1173 43.2098 62.1914 43.2098H12.8087ZM57.5618 46.2962V61.7283H54.4754V46.2962H57.5618ZM51.3889 46.2962V61.7283H48.3025V46.2962H51.3889ZM45.2161 46.2962V61.7283H42.1297V46.2962H45.2161ZM39.0433 46.2962V61.7283H35.9568V46.2962H39.0433ZM32.8704 46.2962V61.7283H29.784V46.2962H32.8704ZM26.6976 46.2962V61.7283H23.6112V46.2962H26.6976ZM20.5247 46.2962V61.7283H17.4383V46.2962H20.5247ZM69.9075 70.9876H5.09265V69.4444C5.09265 68.5184 5.70993 67.9011 6.63586 67.9011H9.72227C10.6482 67.9011 11.2655 67.2839 11.2655 66.3579V64.8147H63.7346V66.3579C63.7346 67.2839 64.3519 67.9011 65.2778 67.9011H68.3643C69.2902 67.9011 69.9075 68.5184 69.9075 69.4444V70.9876Z" fill="white" fill-opacity="0.4"/>
</g>
<defs>
<clipPath id="clip0_696_351">
<rect width="75" height="75" fill="white"/>
</clipPath>
</defs>
</svg>
