<svg width="100" height="100" viewBox="0 0 100 100" fill="none" xmlns="http://www.w3.org/2000/svg">
<g id="&#229;&#129;&#165;&#229;&#186;&#183; (2) 1">
<path id="Vector" d="M86.01 22.1151C79.13 14.8101 71.705 13.1351 66.69 13.0201C60.885 12.8851 54.93 14.8101 50.595 18.1301C47.355 15.9851 40.315 12.1901 32 12.9751C25.125 13.6251 18.955 17.2151 13.67 23.6501C13.655 23.6651 13.645 23.6851 13.63 23.7001C9.14004 29.4301 7.46504 36.5201 8.77504 44.2051C10.48 54.1851 18.025 69.5951 44.255 86.3101C46.17 87.5301 48.36 88.1401 50.555 88.1401C52.71 88.1401 54.865 87.5501 56.75 86.3651C84.79 68.7401 90.86 51.3801 91.985 42.6001C93.01 34.5701 90.89 27.2951 86.01 22.1151ZM86.53 41.9051C85.53 49.7201 79.955 65.2851 53.825 81.7101C51.82 82.9701 49.225 82.9551 47.215 81.6701C28.07 69.4701 16.345 55.8351 14.2 43.2751C13.155 37.1701 14.45 31.5851 17.94 27.1151C22.245 21.8851 27.135 18.9701 32.47 18.4501C41.41 17.5851 48.905 23.6801 48.975 23.7401C49.4966 24.1743 50.1602 24.4006 50.8384 24.3757C51.5166 24.3508 52.1617 24.0764 52.65 23.6051C55.29 21.0501 60.35 18.3801 66.565 18.5201C72.255 18.6501 77.59 21.2001 82.005 25.8851C85.735 29.8451 87.34 35.5351 86.53 41.9051Z" fill="white" fill-opacity="0.4"/>
<path id="Vector_2" d="M73.845 48.835H63.9L59.19 35.01C58.805 33.875 57.735 33.13 56.535 33.145C55.9516 33.1568 55.387 33.3535 54.9225 33.7066C54.458 34.0597 54.1175 34.5511 53.95 35.11L49.995 48.35L47.195 40.865C47.0069 40.3618 46.6756 39.9246 46.242 39.6074C45.8085 39.2903 45.2915 39.1069 44.755 39.08C43.655 39.03 42.635 39.63 42.15 40.61L38.2 48.635H26.725C25.205 48.635 23.975 49.865 23.975 51.385C23.975 52.905 25.205 54.135 26.725 54.135H39.915C40.965 54.135 41.92 53.54 42.38 52.6L44.275 48.75L47.715 57.94C47.9117 58.4641 48.2636 58.9158 48.7237 59.2347C49.1837 59.5537 49.7302 59.7247 50.29 59.725H50.385C50.9604 59.7057 51.5151 59.5061 51.9709 59.1544C52.4267 58.8027 52.7604 58.3167 52.925 57.765L56.755 44.93L59.325 52.47C59.51 53.014 59.8607 53.4864 60.3279 53.8209C60.7951 54.1554 61.3554 54.3352 61.93 54.335H73.845C75.365 54.335 76.595 53.105 76.595 51.585C76.595 50.065 75.36 48.835 73.845 48.835Z" fill="white" fill-opacity="0.4"/>
</g>
</svg>
