<svg width="80" height="80" viewBox="0 0 80 80" fill="none" xmlns="http://www.w3.org/2000/svg">
<g id="&#232;&#174;&#161;&#230;&#151;&#182;&#230;&#178;&#153;&#230;&#188;&#143; 1">
<path id="Vector" d="M67.5626 69.9587H64.9407V62.3916C64.9407 52.5416 59.2363 44.025 50.9515 39.9618C59.2363 35.8985 64.9407 27.382 64.9407 17.532V9.96484H67.5626C68.9142 9.96484 70.0099 8.84555 70.0099 7.46484C70.0099 6.08414 68.9142 4.96484 67.5626 4.96484H12.4233C11.0717 4.96484 9.97603 6.08414 9.97603 7.46484C9.97603 8.84555 11.0717 9.96484 12.4233 9.96484H15.003V17.532C15.003 27.382 20.7074 35.8985 28.9921 39.9618C20.7073 44.025 15.0029 52.5415 15.0029 62.3916V69.9587H12.4232C11.0717 69.9587 9.97595 71.0779 9.97595 72.4587C9.97595 73.8394 11.0717 74.9587 12.4232 74.9587H67.5625C68.9142 74.9587 70.0098 73.8394 70.0098 72.4587C70.0098 71.0779 68.9142 69.9587 67.5626 69.9587ZM20.0039 17.3772V9.96484H60.0856V17.3772C60.0856 28.4455 51.113 37.418 40.0448 37.418C28.9765 37.418 20.0039 28.4455 20.0039 17.3772ZM60.0856 69.9587H20.0039V62.5463C20.0039 51.478 28.9765 42.5056 40.0448 42.5056C51.113 42.5056 60.0856 51.4781 60.0856 62.5463V69.9587Z" fill="white" fill-opacity="0.4"/>
<path id="Vector_2" d="M42.5111 29.9999C42.5111 28.6179 41.3907 27.4975 40.0087 27.4975C34.4076 27.4975 30.0201 23.1099 30.0201 17.5088C30.0201 16.1268 28.8997 15.0063 27.5176 15.0063C26.1356 15.0063 25.0151 16.1267 25.0151 17.5088C25.0151 25.9164 31.6011 32.5024 40.0087 32.5024C41.3907 32.5024 42.5111 31.382 42.5111 29.9999Z" fill="white" fill-opacity="0.4"/>
</g>
</svg>
