<svg width="97" height="75" viewBox="0 0 97 75" fill="none" xmlns="http://www.w3.org/2000/svg">
<g id="Group81 1">
<path id="Vector" d="M43.7854 38.3225C45.012 39.1934 46.1007 40.258 47.2596 41.2257C48.2394 42.0483 49.1612 42.9628 50.2427 43.6136C50.7628 43.9281 51.7402 43.991 52.2435 43.7031C52.9451 43.3015 52.4515 42.4886 52.1709 41.908C49.558 36.4838 46.466 31.4201 41.5983 27.6531C39.4744 25.9985 37.0791 24.7255 34.5193 23.891C31.5193 22.916 28.4322 22.7443 25.2967 23.1459C23.0036 23.429 20.7668 24.0588 18.6628 25.0136C14.8402 26.7604 11.5668 29.2402 8.76765 32.3926C6.44023 35.0128 4.36927 37.7757 3.10394 41.0684C2.43862 42.7934 1.70072 44.5233 1.90394 46.4346C1.94507 46.8314 2.14588 47.3709 2.44104 47.533C2.72894 47.6902 3.27088 47.5257 3.63378 47.3563C4.01604 47.1773 4.35233 46.8604 4.64507 46.5434C6.71604 44.3176 8.68298 41.9926 10.8628 39.883C11.9346 38.8475 13.3548 38.1459 14.6854 37.4152C15.3967 37.0209 15.9459 37.3668 16.1902 38.1604C16.2991 38.5136 16.3427 38.8959 16.3572 39.266C16.483 42.8031 16.5168 46.3475 16.7443 49.8773C16.887 52.0959 17.187 54.3193 17.6394 56.4967C18.583 61.0596 19.9669 65.4967 22.3064 69.5612C22.9354 70.6547 23.8548 71.5789 24.6435 72.5805H25.3499C26.3177 72.0483 26.6806 71.291 26.2281 70.2265C26.1967 70.1515 26.2185 70.0523 26.216 69.9628C26.1556 67.6499 26.0636 65.337 26.0564 63.0241C26.0564 62.2862 26.1919 61.5217 26.412 60.8152C26.9467 59.0878 28.4419 58.391 30.208 58.9354C32.1798 59.5451 33.7185 60.8225 35.1822 62.187C37.7298 64.5652 40.1975 67.0305 42.7741 69.3773C44.1338 70.616 45.8056 71.3854 47.5959 71.833C48.641 72.0943 49.1927 71.4217 48.8346 70.3814C48.7539 70.1402 48.6373 69.9127 48.4886 69.7064C46.9209 67.5943 45.2709 65.5378 43.783 63.3676C40.7709 58.9644 37.9959 54.4064 37.4539 48.9338C37.1394 45.8031 37.0935 42.6434 38.5185 39.6918C39.7354 37.1757 41.4967 36.6918 43.7854 38.3201V38.3225Z" fill="#F0F0F0" fill-opacity="0.4"/>
<path id="Vector_2" d="M85.1854 50.6129C87.6628 48.6436 90.5419 47.1412 92.2693 44.3299V42.917C91.4153 41.9783 90.4983 42.3049 89.5306 42.7283C87.0991 43.7928 84.6677 44.8525 82.2048 45.8444C76.9886 47.9492 71.5451 48.7452 65.9395 48.5904C64.6475 48.5541 63.3507 48.6097 62.0564 48.5783C61.0645 48.5541 60.0774 48.4525 59.0878 48.3968C56.9927 48.2783 54.8951 48.1428 52.7975 48.075C52.2169 48.0557 51.7427 48.4621 51.883 49.0839C51.9967 49.5823 52.2701 50.1533 52.6548 50.4605C53.5088 51.1379 54.4185 51.8129 55.4128 52.2339C57.4595 53.0894 59.5412 53.8586 61.6524 54.5396C64.0669 55.3283 64.6935 56.417 64.7201 58.8291C64.7491 61.1081 64.8096 63.3678 65.2645 65.6105C65.6588 67.5508 66.1596 69.4355 67.408 71.0275C67.858 71.6033 68.458 72 69.2177 71.8017C70.0088 71.5984 70.0064 70.9186 70.0161 70.246C70.0209 69.7283 70.0935 69.2057 70.1854 68.6976C70.8096 65.3444 73.7128 63.9 76.8096 65.2718C79.1685 66.3146 80.2282 68.371 81.1572 70.5533C81.387 71.0855 81.5757 71.5307 82.304 71.5234C83.0346 71.5186 83.2572 71.0879 83.4241 70.5315C84.0895 68.3081 83.7435 66.0968 83.3056 63.9025C82.9136 61.9234 82.4104 59.9686 82.0088 57.9944C81.3653 54.8154 82.8386 52.4734 85.1854 50.6105V50.6129Z" fill="white" fill-opacity="0.4"/>
<path id="Vector_3" d="M26.0323 17.1435C28.0887 19.0959 30.5686 20.0758 33.4597 19.9596C35.2428 19.887 36.8275 19.2338 37.9258 17.9637C40.0549 15.4959 41.0855 12.5806 40.7033 9.2443C40.1057 4.03543 34.5339 0.80317 29.5646 2.31043C25.8267 3.44269 23.2573 7.24591 23.4242 10.8411C23.3154 13.3475 24.2613 15.462 26.0347 17.1435H26.0323Z" fill="#F0F0F0" fill-opacity="0.4"/>
<path id="Vector_4" d="M70.788 46.4032C74.959 46.7951 78.3509 43.9016 78.3049 39.5685C78.5565 35.3177 74.0227 31.2145 69.2614 32.879C67.0694 33.6435 65.3759 35.0734 64.3864 37.1854C63.2202 39.6701 63.3533 41.9709 65.4848 44.1072C66.9606 45.5903 68.8138 46.2169 70.788 46.4032Z" fill="white" fill-opacity="0.4"/>
</g>
</svg>
