<svg width="90" height="90" viewBox="0 0 90 90" fill="none" xmlns="http://www.w3.org/2000/svg">
<g id="&#230;&#184;&#184;&#230;&#136;&#143; 1">
<g id="Vector">
<path d="M71.3866 52.4377C74.8347 52.4377 77.6399 49.6324 77.6399 46.1841C77.6399 42.7361 74.8347 39.9309 71.3866 39.9309C67.9383 39.9309 65.1331 42.7361 65.1331 46.1841C65.133 49.6324 67.9383 52.4377 71.3866 52.4377ZM71.3866 43.1687C73.0493 43.1687 74.4021 44.5215 74.4021 46.1841C74.4021 47.847 73.0493 49.1998 71.3866 49.1998C69.7237 49.1998 68.3709 47.847 68.3709 46.1841C68.3708 44.5214 69.7236 43.1687 71.3866 43.1687Z" fill="white" fill-opacity="0.4"/>
<path d="M78.1399 46.1841C78.1399 49.9085 75.1108 52.9377 71.3866 52.9377C67.6622 52.9377 64.633 49.9085 64.6331 46.1841H78.1399ZM78.1399 46.1841C78.1399 42.46 75.1108 39.4309 71.3866 39.4309M78.1399 46.1841L71.3866 39.4309M71.3866 39.4309C67.6622 39.4309 64.6331 42.4599 64.6331 46.1841L71.3866 39.4309ZM71.3866 43.6687C72.7732 43.6687 73.9021 44.7976 73.9021 46.1841C73.9021 47.5709 72.7731 48.6998 71.3866 48.6998C69.9999 48.6998 68.8709 47.5708 68.8709 46.1841V46.1841C68.8708 44.7976 69.9997 43.6687 71.3866 43.6687Z" stroke="white" stroke-opacity="0.4"/>
</g>
<g id="Vector_2">
<path d="M58.433 41.0949C61.8811 41.0949 64.6862 38.2896 64.6862 34.8413C64.6862 31.3933 61.8811 28.5881 58.433 28.5881C54.9849 28.5881 52.1798 31.3933 52.1798 34.8413C52.1798 38.2895 54.9849 41.0949 58.433 41.0949ZM58.433 31.8258C60.0957 31.8258 61.4484 33.1786 61.4484 34.8412C61.4484 36.5041 60.0957 37.857 58.433 37.857C56.7703 37.857 55.4176 36.5041 55.4176 34.8412C55.4176 33.1786 56.7703 31.8258 58.433 31.8258Z" fill="white" fill-opacity="0.4"/>
<path d="M58.433 41.5949C62.1573 41.5949 65.1862 38.5657 65.1862 34.8413C65.1862 31.1172 62.1572 28.0881 58.433 28.0881C54.7088 28.0881 51.6798 31.1172 51.6798 34.8413C51.6798 38.5656 54.7087 41.5949 58.433 41.5949ZM58.433 32.3258C59.8195 32.3258 60.9484 33.4548 60.9484 34.8412C60.9484 36.228 59.8195 37.357 58.433 37.357C57.0465 37.357 55.9176 36.228 55.9176 34.8412C55.9176 33.4548 57.0464 32.3258 58.433 32.3258Z" stroke="white" stroke-opacity="0.4"/>
</g>
<g id="Vector_3">
<path d="M86.2509 43.4746V35.1102C86.2509 31.7544 85.6815 28.7893 84.5586 26.2972C83.5492 24.0572 82.0902 22.1828 80.2218 20.7265C76.3433 17.7031 71.7435 17.2517 69.3468 17.2517H46.6349V13.0952C46.6349 12.2011 45.9101 11.4763 45.016 11.4763C44.122 11.4763 43.3971 12.2011 43.3971 13.0952V17.2517H19.4193C17.0226 17.2517 12.4228 17.7032 8.54433 20.7265C6.67602 22.1828 5.21685 24.0572 4.20756 26.2972C3.08458 28.7893 2.51527 31.7544 2.51527 35.1102V43.4738L2.51392 45.9113V59.2527C2.51392 65.0018 7.19128 69.6791 12.9405 69.6791H17.1554C17.4402 69.6929 18.6606 69.7315 20.1204 69.4899C22.4476 69.1049 24.2332 68.2287 25.4274 66.8851C26.7029 65.4502 27.445 64.3772 27.5995 64.1482C28.8965 62.4146 30.8315 61.3604 33.3515 61.0145C33.8659 60.9439 34.4031 60.897 34.9928 60.8716H41.1711L41.1989 60.8717L41.2319 60.8704C41.2691 60.8697 44.937 60.7684 46.606 62.8547C47.1644 63.5528 48.1832 63.6663 48.8814 63.1076C49.5796 62.5491 49.6928 61.5304 49.1343 60.8322C46.5292 57.5756 41.6747 57.6187 41.1454 57.6337H34.9583L34.8909 57.6352C34.185 57.6646 33.5373 57.7208 32.9111 57.8068C29.4812 58.2774 26.8116 59.7724 24.9761 62.25L24.9262 62.3214C24.9195 62.3314 24.2505 63.3356 23.0075 64.734C21.5887 66.33 18.4047 66.5093 17.3012 66.4445L17.2495 66.4412H12.9405C8.97657 66.4412 5.75172 63.2165 5.75172 59.2527V45.9122L5.75307 43.4746V35.1102C5.75307 29.7338 7.36199 25.7535 10.5349 23.28C13.6497 20.8519 17.4382 20.4894 19.4193 20.4894H69.3467C71.3278 20.4894 75.1163 20.8519 78.2311 23.28C81.4041 25.7535 83.013 29.7338 83.013 35.1102V43.4755L83.0144 45.9113V59.2527C83.0144 63.2165 79.7895 66.4413 75.8255 66.4413H71.5682L71.465 66.4446C70.4378 66.5106 67.1835 66.3371 65.7587 64.7341C64.5156 63.3357 63.8466 62.3314 63.8412 62.3233L63.7901 62.2501C61.9546 59.7725 59.2849 58.2775 55.8555 57.807C55.3621 57.7391 54.16 57.7017 52.6399 57.6599C52.2758 57.6499 51.9778 57.6418 51.8202 57.6353C50.9271 57.598 50.1725 58.292 50.1353 59.1853C50.098 60.0786 50.792 60.833 51.6853 60.8702C51.8588 60.8774 52.1642 60.8858 52.5509 60.8965C53.3009 60.9171 55.0571 60.9655 55.415 61.0146C57.9345 61.3604 59.8695 62.4145 61.1666 64.1481C61.3211 64.377 62.0631 65.4501 63.3388 66.8852C64.5329 68.2286 66.3185 69.1049 68.6457 69.4899C69.6547 69.6568 70.5493 69.6899 71.0996 69.6899C71.3455 69.6899 71.5228 69.6833 71.6107 69.6791H75.8256C81.5749 69.6791 86.2523 65.0018 86.2523 59.2527V45.9104L86.2509 43.4746Z" fill="white" fill-opacity="0.4"/>
<path d="M2.01392 45.9113V45.911L2.01527 43.4738V43.4736V35.1102C2.01527 31.6994 2.59378 28.6614 3.75169 26.0918L2.01392 45.9113ZM2.01392 45.9113V59.2527C2.01392 65.278 6.91515 70.1791 12.9405 70.1791H17.1435M2.01392 45.9113L17.1554 69.6791M84.5586 26.2972L85.0145 26.0918C86.1723 28.6614 86.7509 31.6993 86.7509 35.1102V43.4744V43.4746L86.7523 45.9101V45.9104V59.2527C86.7523 65.278 81.851 70.1791 75.8256 70.1791H71.6225C71.5242 70.1836 71.3438 70.1899 71.0996 70.1899C70.5309 70.1899 69.6077 70.1558 68.5641 69.9832C66.1595 69.5854 64.2562 68.6698 62.9651 67.2174L63.3388 66.8852L62.9651 67.2174C61.6892 65.7821 60.9369 64.7007 60.7592 64.4383C59.5562 62.8359 57.7543 61.8403 55.347 61.5099C55.1996 61.4897 54.7035 61.4658 54.112 61.4445C53.5369 61.4238 52.9124 61.4066 52.5372 61.3963C52.1525 61.3857 51.8425 61.3772 51.6646 61.3698L51.6645 61.3698C50.4953 61.321 49.587 60.3336 49.6357 59.1645C49.6844 57.9952 50.6721 57.087 51.841 57.1357C51.9894 57.1419 52.2695 57.1496 52.6206 57.1592L52.6536 57.1601L52.6537 57.1601C54.1551 57.2014 55.3954 57.2389 55.9237 57.3116C59.4684 57.7981 62.2661 59.353 64.1919 61.9525L64.2001 61.9637L64.2 61.9638L64.2511 62.0369L64.2587 62.0478L64.2585 62.0479C64.2533 62.04 64.9081 63.0246 66.1324 64.4019L66.1324 64.4019C66.7364 65.0814 67.7754 65.4971 68.8638 65.7259C69.9371 65.9516 70.962 65.9759 71.4329 65.9457L71.4409 65.9451L71.4489 65.9449L71.5521 65.9416L71.5602 65.9413H71.5682H75.8255C79.5134 65.9413 82.5144 62.9404 82.5144 59.2527V45.9116V45.9113L82.513 43.4758V43.4755V35.1102C82.513 29.8321 80.9371 26.0234 77.9237 23.6743C74.939 21.3477 71.2856 20.9894 69.3467 20.9894H19.4193C17.4804 20.9894 13.827 21.3477 10.8424 23.6743C7.82902 26.0234 6.25307 29.8321 6.25307 35.1102V43.4746V43.4749L6.25172 45.9122V45.9125V59.2527C6.25172 62.9404 9.2527 65.9412 12.9405 65.9412H17.2495H17.2656L17.2816 65.9422L17.3304 65.9454C17.3308 65.9454 17.3312 65.9454 17.3315 65.9455C17.8438 65.9754 18.8698 65.9488 19.9322 65.723C21.0097 65.4939 22.0316 65.0792 22.6338 64.4018C23.2455 63.7136 23.7152 63.1233 24.0319 62.7052C24.1902 62.4962 24.3101 62.3304 24.3902 62.2171C24.4303 62.1604 24.4604 62.117 24.4805 62.0878L24.5029 62.0549L24.5083 62.0467L24.5101 62.044L24.5164 62.0346L24.5165 62.0347L24.5665 61.9634L24.5742 61.9523L24.5743 61.9524C26.5001 59.3529 29.2978 57.7979 32.843 57.3114C33.4866 57.2231 34.1501 57.1656 34.8701 57.1356L34.8802 57.1352L34.8802 57.1353L34.9477 57.1339L34.9583 57.1336V57.1337H41.1386C41.4429 57.1255 42.8289 57.1147 44.4807 57.5205C46.1419 57.9286 48.1264 58.7718 49.5248 60.5198L49.5248 60.5199C50.2557 61.4336 50.1076 62.767 49.1938 63.4981C48.2798 64.2293 46.9464 64.0807 46.2155 63.167C45.4901 62.2602 44.2959 61.7966 43.2051 61.5694C42.1801 61.356 41.3305 61.3684 41.2481 61.3701L41.2195 61.3713L41.2076 61.3718L41.1956 61.3717L41.1711 61.3716H41.1696H35.0036C34.4318 61.3965 33.9136 61.442 33.4195 61.5098C31.0117 61.8403 29.2099 62.8359 28.007 64.4383C27.8292 64.7009 27.0768 65.7822 25.8011 67.2173C24.5099 68.6699 22.6066 69.5854 20.202 69.9832M84.5586 26.2972L20.1204 69.4899M84.5586 26.2972L85.0145 26.0918C83.973 23.7805 82.4641 21.8404 80.5292 20.3321C76.5225 17.2088 71.7897 16.7517 69.3468 16.7517H47.1349V13.0952C47.1349 11.925 46.1863 10.9763 45.016 10.9763C43.8458 10.9763 42.8971 11.925 42.8971 13.0952V16.7517H19.4193C16.9764 16.7517 12.2436 17.2089 8.23693 20.3321L8.54433 20.7265L8.23693 20.3321C6.3021 21.8404 4.79311 23.7805 3.7517 26.0918L84.5586 26.2972ZM20.202 69.9832L20.1204 69.4899M20.202 69.9832C20.202 69.9832 20.202 69.9832 20.202 69.9832L20.1204 69.4899M20.202 69.9832C18.7138 70.2295 17.468 70.1942 17.1435 70.1791M20.1204 69.4899C18.6606 69.7315 17.4402 69.6929 17.1554 69.6791M17.1435 70.1791H17.1554V69.6791M17.1435 70.1791C17.1393 70.1789 17.1352 70.1787 17.1312 70.1785L17.1554 69.6791" stroke="white" stroke-opacity="0.4"/>
</g>
<g id="Vector_4">
<path d="M23.5863 51.4681C23.5874 51.4681 23.5885 51.4681 23.5898 51.4681C24.4822 51.4681 25.2067 50.7456 25.2086 49.8527L25.2279 40.5974L34.4622 40.5764C35.3563 40.5745 36.0794 39.8479 36.0775 38.9538C36.0755 38.0609 35.3511 37.3386 34.4586 37.3386C34.4574 37.3386 34.4561 37.3386 34.4549 37.3386L25.2347 37.3596L25.254 28.1182C25.2559 27.2241 24.5326 26.4977 23.6385 26.4958C23.6374 26.4958 23.6363 26.4958 23.635 26.4958C22.7426 26.4958 22.0181 27.2185 22.0162 28.1113L21.9969 37.3669L12.7626 37.3878C11.8685 37.3898 11.1454 38.1163 11.1473 39.0104C11.1493 39.9033 11.8737 40.6256 12.7662 40.6256C12.7673 40.6256 12.7687 40.6256 12.7699 40.6256L21.9901 40.6047L21.9708 49.8457C21.9689 50.7399 22.6922 51.4663 23.5863 51.4681Z" fill="white" fill-opacity="0.4"/>
<path d="M23.5853 51.9681H23.5863H23.5863H23.5863H23.5863H23.5864H23.5864H23.5864H23.5864H23.5864H23.5865H23.5865H23.5865H23.5865H23.5865H23.5866H23.5866H23.5866H23.5866H23.5866H23.5867H23.5867H23.5867H23.5867H23.5867H23.5868H23.5868H23.5868H23.5868H23.5868H23.5869H23.5869H23.5869H23.5869H23.5869H23.587H23.587H23.587H23.587H23.587H23.5871H23.5871H23.5871H23.5871H23.5871H23.5872H23.5872H23.5872H23.5872H23.5872H23.5873H23.5873H23.5873H23.5873H23.5873H23.5874H23.5874H23.5874H23.5874H23.5874H23.5875H23.5875H23.5875H23.5875H23.5875H23.5876H23.5876H23.5876H23.5876H23.5876H23.5877H23.5877H23.5877H23.5877H23.5877H23.5878H23.5878H23.5878H23.5878H23.5878H23.5879H23.5879H23.5879H23.5879H23.5879H23.588H23.588H23.588H23.588H23.588H23.5881H23.5881H23.5881H23.5881H23.5881H23.5882H23.5882H23.5882H23.5882H23.5882H23.5883H23.5883H23.5883H23.5883H23.5883H23.5884H23.5884H23.5884H23.5884H23.5885H23.5885H23.5885H23.5885H23.5885H23.5886H23.5886H23.5886H23.5886H23.5886H23.5887H23.5887H23.5887H23.5887H23.5887H23.5888H23.5888H23.5888H23.5888H23.5888H23.5889H23.5889H23.5889H23.5889H23.5889H23.589H23.589H23.589H23.589H23.5891H23.5891H23.5891H23.5891H23.5891H23.5892H23.5892H23.5892H23.5892H23.5892H23.5893H23.5893H23.5893H23.5893H23.5893H23.5894H23.5894H23.5894H23.5894H23.5895H23.5895H23.5895H23.5895H23.5895H23.5896H23.5896H23.5896H23.5896H23.5896H23.5897H23.5897H23.5897H23.5897H23.5897H23.5898C24.7578 51.9681 25.7061 51.0224 25.7086 49.8537L25.7269 41.0963L34.4634 41.0764C35.6337 41.0738 36.58 40.1229 36.5774 38.9527C36.5749 37.784 35.6267 36.8386 34.4586 36.8386H34.4586H34.4586H34.4586H34.4586H34.4586H34.4585H34.4585H34.4585H34.4585H34.4585H34.4585H34.4584H34.4584H34.4584H34.4584H34.4584H34.4584H34.4583H34.4583H34.4583H34.4583H34.4583H34.4582H34.4582H34.4582H34.4582H34.4582H34.4582H34.4581H34.4581H34.4581H34.4581H34.4581H34.4581H34.458H34.458H34.458H34.458H34.458H34.458H34.4579H34.4579H34.4579H34.4579H34.4579H34.4579H34.4578H34.4578H34.4578H34.4578H34.4578H34.4578H34.4577H34.4577H34.4577H34.4577H34.4577H34.4577H34.4576H34.4576H34.4576H34.4576H34.4576H34.4575H34.4575H34.4575H34.4575H34.4575H34.4575H34.4575H34.4574H34.4574H34.4574H34.4574H34.4574H34.4573H34.4573H34.4573H34.4573H34.4573H34.4573H34.4572H34.4572H34.4572H34.4572H34.4572H34.4572H34.4571H34.4571H34.4571H34.4571H34.4571H34.4571H34.457H34.457H34.457H34.457H34.457H34.457H34.4569H34.4569H34.4569H34.4569H34.4569H34.4569H34.4568H34.4568H34.4568H34.4568H34.4568H34.4568H34.4567H34.4567H34.4567H34.4567H34.4567H34.4566H34.4566H34.4566H34.4566H34.4566H34.4566H34.4565H34.4565H34.4565H34.4565H34.4565H34.4565H34.4564H34.4564H34.4564H34.4564H34.4564H34.4564H34.4563H34.4563H34.4563H34.4563H34.4563H34.4563H34.4562H34.4562H34.4562H34.4562H34.4562H34.4562H34.4561H34.4561H34.4561H34.4561H34.4561H34.4561H34.456H34.456H34.456H34.456H34.456H34.456H34.4559H34.4559H34.4559H34.4559H34.4559H34.4559H34.4558H34.4558H34.4558H34.4558H34.4558H34.4557H34.4557H34.4557H34.4557H34.4557H34.4557H34.4556H34.4556H34.4556H34.4556H34.4556H34.4556H34.4555H34.4555H34.4555H34.4555H34.4555H34.4555H34.4554H34.4554H34.4554H34.4554H34.4554H34.4554H34.4553H34.4553H34.4553H34.4553H34.4553H34.4553H34.4552H34.4552H34.4552H34.4552H34.4552H34.4552H34.4551H34.4551H34.4551H34.4551H34.4551H34.455H34.455H34.455H34.455H34.455H34.455H34.455H34.4549H34.4549H34.4549H34.4549L34.4549 36.8386L34.4537 36.8386L25.7357 36.8584L25.754 28.1192C25.7565 26.949 24.8098 25.9983 23.6396 25.9958H23.6385H23.6385H23.6385H23.6385H23.6385H23.6385H23.6385H23.6384H23.6384H23.6384H23.6384H23.6384H23.6384H23.6384H23.6383H23.6383H23.6383H23.6383H23.6383H23.6383H23.6383H23.6383H23.6382H23.6382H23.6382H23.6382H23.6382H23.6382H23.6382H23.6381H23.6381H23.6381H23.6381H23.6381H23.6381H23.6381H23.6381H23.638H23.638H23.638H23.638H23.638H23.638H23.638H23.638H23.6379H23.6379H23.6379H23.6379H23.6379H23.6379H23.6379H23.6378H23.6378H23.6378H23.6378H23.6378H23.6378H23.6378H23.6378H23.6377H23.6377H23.6377H23.6377H23.6377H23.6377H23.6377H23.6376H23.6376H23.6376H23.6376H23.6376H23.6376H23.6376H23.6376H23.6375H23.6375H23.6375H23.6375H23.6375H23.6375H23.6375H23.6374H23.6374H23.6374H23.6374H23.6374H23.6374H23.6374H23.6374H23.6373H23.6373H23.6373H23.6373H23.6373H23.6373H23.6373H23.6372H23.6372H23.6372H23.6372H23.6372H23.6372H23.6372H23.6372H23.6371H23.6371H23.6371H23.6371H23.6371H23.6371H23.6371H23.637H23.637H23.637H23.637H23.637H23.637H23.637H23.637H23.6369H23.6369H23.6369H23.6369H23.6369H23.6369H23.6369H23.6369H23.6368H23.6368H23.6368H23.6368H23.6368H23.6368H23.6368H23.6367H23.6367H23.6367H23.6367H23.6367H23.6367H23.6367H23.6367H23.6366H23.6366H23.6366H23.6366H23.6366H23.6366H23.6366H23.6365H23.6365H23.6365H23.6365H23.6365H23.6365H23.6365H23.6365H23.6364H23.6364H23.6364H23.6364H23.6364H23.6364H23.6364H23.6364H23.6363H23.6363H23.6363H23.6363H23.6363H23.6363H23.6363H23.6363H23.6362H23.6362H23.6362H23.6362H23.6362H23.6362H23.6362H23.6362H23.6361H23.6361H23.6361H23.6361H23.6361H23.6361H23.6361H23.6361H23.6361H23.636H23.636H23.636H23.636H23.636H23.636H23.636H23.6359H23.6359H23.6359H23.6359H23.6359H23.6359H23.6359H23.6359H23.6358H23.6358H23.6358H23.6358H23.6358H23.6358H23.6358H23.6358H23.6358H23.6358H23.6357H23.6357H23.6357H23.6357H23.6357H23.6357H23.6357H23.6357H23.6357H23.6356H23.6356H23.6356H23.6356H23.6356H23.6356H23.6356H23.6356H23.6355H23.6355H23.6355H23.6355H23.6355H23.6355H23.6355H23.6354H23.6354H23.6354H23.6354H23.6354H23.6354H23.6354H23.6354H23.6353H23.6353H23.6353H23.6353H23.6353H23.6353H23.6353H23.6353H23.6352H23.6352H23.6352H23.6352H23.6352H23.6352H23.6352H23.6352H23.6351H23.6351H23.6351H23.6351H23.6351H23.6351H23.6351H23.6351H23.6351H23.635H23.635H23.635H23.635C22.4669 25.9958 21.5187 26.9417 21.5162 28.1103L21.4979 36.868L12.7615 36.8878C12.7614 36.8878 12.7614 36.8878 12.7614 36.8878C11.5911 36.8904 10.6448 37.8414 10.6473 39.0115C10.6499 40.1802 11.5981 41.1256 12.7662 41.1256H12.7662H12.7662H12.7662H12.7662H12.7662H12.7662H12.7663H12.7663H12.7663H12.7663H12.7663H12.7663H12.7663H12.7663H12.7664H12.7664H12.7664H12.7664H12.7664H12.7664H12.7664H12.7665H12.7665H12.7665H12.7665H12.7665H12.7665H12.7665H12.7666H12.7666H12.7666H12.7666H12.7666H12.7666H12.7666H12.7667H12.7667H12.7667H12.7667H12.7667H12.7667H12.7667H12.7668H12.7668H12.7668H12.7668H12.7668H12.7668H12.7668H12.7668H12.7669H12.7669H12.7669H12.7669H12.7669H12.7669H12.7669H12.7669H12.7669H12.767H12.767H12.767H12.767H12.767H12.767H12.767H12.767H12.767H12.767H12.767H12.767H12.7671H12.7671H12.7671H12.7671H12.7671H12.7671H12.7671H12.7671H12.7671H12.7671H12.7671H12.7671H12.7671H12.7671H12.7672H12.7672H12.7672H12.7672H12.7672H12.7672H12.7672H12.7672H12.7672H12.7672H12.7672H12.7672H12.7672H12.7673H12.7673H12.7673H12.7673H12.7673H12.7673H12.7673H12.7673H12.7673H12.7673H12.7673H12.7673H12.7673H12.7673H12.7674H12.7674H12.7674H12.7674H12.7674H12.7674H12.7674H12.7674H12.7674H12.7674H12.7674H12.7674H12.7674H12.7675H12.7675H12.7675H12.7675H12.7675H12.7675H12.7675H12.7675H12.7675H12.7675H12.7675H12.7675H12.7675H12.7675H12.7676H12.7676H12.7676H12.7676H12.7676H12.7676H12.7676H12.7676H12.7676H12.7676H12.7676H12.7676H12.7676H12.7677H12.7677H12.7677H12.7677H12.7677H12.7677H12.7677H12.7677H12.7677H12.7677H12.7677H12.7677H12.7677H12.7677H12.7678H12.7678H12.7678H12.7678H12.7678H12.7678H12.7678H12.7678H12.7678H12.7678H12.7678H12.7678H12.7678H12.7679H12.7679H12.7679H12.7679H12.7679H12.7679H12.7679H12.7679H12.7679H12.7679H12.7679H12.7679H12.7679H12.7679H12.768H12.768H12.768H12.768H12.768H12.768H12.768H12.768H12.768H12.768H12.768H12.768H12.768H12.7681H12.7681H12.7681H12.7681H12.7681H12.7681H12.7681H12.7681H12.7681H12.7681H12.7681H12.7681H12.7681H12.7682H12.7682H12.7682H12.7682H12.7682H12.7682H12.7682H12.7682H12.7682H12.7682H12.7682H12.7682H12.7682H12.7683H12.7683H12.7683H12.7683H12.7683H12.7683H12.7683H12.7683H12.7683H12.7683H12.7683H12.7683H12.7683H12.7683H12.7684H12.7684H12.7684H12.7684H12.7684H12.7684H12.7684H12.7684H12.7684H12.7684H12.7684H12.7684H12.7684H12.7685H12.7685H12.7685H12.7685H12.7685H12.7685H12.7685H12.7685H12.7685H12.7685H12.7685H12.7685H12.7685H12.7686H12.7686H12.7686H12.7686H12.7686H12.7686H12.7686H12.7686H12.7686H12.7686H12.7686H12.7686H12.7686H12.7687H12.7687H12.7687H12.7687H12.7687H12.7687H12.7687H12.7687H12.7687H12.7687H12.7687H12.7687H12.7687H12.7687H12.7688H12.7688H12.7688H12.7688H12.7688H12.7688H12.7688H12.7688H12.7688H12.7688H12.7688H12.7688H12.7688H12.7689H12.7689H12.7689H12.7689H12.7689H12.7689H12.7689H12.7689H12.7689H12.7689H12.7689H12.7689H12.7689H12.769H12.769H12.769H12.769H12.769H12.769H12.769H12.769H12.769H12.769H12.769H12.769H12.769H12.7691H12.7691H12.7691H12.7691H12.7691H12.7691H12.7691H12.7691H12.7691H12.7691H12.7691H12.7691H12.7691H12.7691H12.7692H12.7692H12.7692H12.7692H12.7692H12.7692H12.7692H12.7692H12.7692H12.7692H12.7692H12.7692H12.7692H12.7693H12.7693H12.7693H12.7693H12.7693H12.7693H12.7693H12.7693H12.7693H12.7693H12.7693H12.7693H12.7693H12.7694H12.7694H12.7694H12.7694H12.7694H12.7694H12.7694H12.7694H12.7694H12.7694H12.7694H12.7694H12.7694H12.7694H12.7695H12.7695H12.7695H12.7695H12.7695H12.7695H12.7695H12.7695H12.7695H12.7695H12.7695H12.7695H12.7695H12.7696H12.7696H12.7696H12.7696H12.7696H12.7696H12.7696H12.7696H12.7696H12.7696H12.7696H12.7696H12.7696H12.7697H12.7697H12.7697H12.7697H12.7697H12.7697H12.7697H12.7697H12.7697H12.7697H12.7697H12.7697H12.7697H12.7697H12.7698H12.7698H12.7698H12.7698H12.7698H12.7698H12.7698H12.7698H12.7698H12.7698H12.7698H12.7698H12.7698H12.7699H12.7699H12.7699H12.7699H12.7699H12.7699H12.7699H12.7699H12.7699H12.7699H12.7699L12.7699 41.1256L12.7711 41.1256L21.4891 41.1058L21.4708 49.8447C21.4683 51.0149 22.4149 51.9658 23.5853 51.9681Z" stroke="white" stroke-opacity="0.4"/>
</g>
</g>
</svg>
