<svg width="75" height="75" viewBox="0 0 75 75" fill="none" xmlns="http://www.w3.org/2000/svg">
<g id="ic_music 1">
<path id="Vector" d="M59.3664 4.21484H34.3929C28.0787 4.21484 22.9465 9.35105 22.9465 15.6611V47.5774C21.1026 46.4994 18.9841 45.8376 16.7033 45.8376C9.81463 45.8376 4.21643 51.44 4.21643 58.3244C4.21643 65.213 9.81463 70.8113 16.7033 70.8113C23.5876 70.8113 29.19 65.213 29.19 58.3244V15.6612C29.1912 14.2817 29.7397 12.959 30.7152 11.9835C31.6907 11.008 33.0134 10.4595 34.393 10.4583H59.3665C60.7458 10.4602 62.0681 11.009 63.0434 11.9843C64.0188 12.9596 64.5676 14.2819 64.5695 15.6612V35.0907C62.7256 34.0126 60.6069 33.3508 58.3261 33.3508C51.4375 33.3508 45.8392 38.9533 45.8392 45.8377C45.8392 52.7262 51.4375 58.3245 58.3261 58.3245C65.2104 58.3245 70.8129 52.7262 70.8129 45.8377V15.6611C70.8128 9.35112 65.6764 4.21484 59.3664 4.21484ZM16.7032 64.5679C15.4684 64.5679 14.2613 64.2018 13.2345 63.5158C12.2078 62.8297 11.4075 61.8547 10.935 60.7138C10.4624 59.573 10.3387 58.3177 10.5796 57.1066C10.8205 55.8955 11.4151 54.783 12.2883 53.9098C13.1614 53.0366 14.2739 52.442 15.485 52.2011C16.6961 51.9602 17.9514 52.0838 19.0923 52.5564C20.2331 53.0289 21.2082 53.8291 21.8942 54.8559C22.5803 55.8826 22.9464 57.0897 22.9464 58.3245C22.9451 59.9799 22.287 61.5672 21.1164 62.7377C19.9459 63.9083 18.3587 64.5665 16.7033 64.5679H16.7032ZM58.3259 52.0814C57.0911 52.0814 55.884 51.7152 54.8573 51.0292C53.8306 50.3432 53.0304 49.3681 52.5578 48.2273C52.0853 47.0864 51.9616 45.8311 52.2025 44.62C52.4434 43.4089 53.0381 42.2964 53.9112 41.4233C54.7844 40.5501 55.8968 39.9555 57.1079 39.7146C58.319 39.4737 59.5744 39.5973 60.7152 40.0699C61.856 40.5424 62.8311 41.3427 63.5171 42.3694C64.2032 43.3961 64.5693 44.6032 64.5693 45.838C64.568 47.4935 63.9098 49.0807 62.7392 50.2513C61.5687 51.4219 59.9814 52.0801 58.3259 52.0814Z" fill="white" fill-opacity="0.4"/>
</g>
</svg>
