<svg width="75" height="75" viewBox="0 0 75 75" fill="none" xmlns="http://www.w3.org/2000/svg">
<g id="news 1" clip-path="url(#clip0_696_302)">
<path id="Vector" d="M67.9688 0H16.4062C12.5227 0 9.375 3.14531 9.375 7.03125V11.7188H7.03125C3.14766 11.7188 0 14.8641 0 18.75V65.625C0 70.8023 4.19766 75 9.375 75H65.625C70.8023 75 75 70.8023 75 65.625V7.03125C75 3.14531 71.85 0 67.9688 0ZM70.3125 65.625C70.3125 68.2078 68.2078 70.3125 65.625 70.3125H9.375C6.78984 70.3125 4.6875 68.2078 4.6875 65.625V18.75C4.6875 17.4562 5.7375 16.4062 7.03125 16.4062H9.375V63.2812C9.375 64.5773 10.4227 65.625 11.7188 65.625C13.0148 65.625 14.0625 64.5773 14.0625 63.2812V7.03125C14.0625 5.7375 15.1125 4.6875 16.4062 4.6875H67.9688C69.2602 4.6875 70.3125 5.7375 70.3125 7.03125V65.625ZM45.6984 30.4805C45.0539 30.4805 44.5266 29.9555 44.5266 29.3086C44.5266 28.6617 45.0539 28.1367 45.6984 28.1367H64.4484C65.0977 28.1367 65.6203 28.6617 65.6203 29.3086C65.6203 29.9555 65.0977 30.4805 64.4484 30.4805H45.6984ZM45.6984 23.4492C45.0539 23.4492 44.5266 22.9242 44.5266 22.2773C44.5266 21.6305 45.0539 21.1055 45.6984 21.1055H64.4484C65.0977 21.1055 65.6203 21.6305 65.6203 22.2773C65.6203 22.9242 65.0977 23.4492 64.4484 23.4492H45.6984ZM45.6984 16.418C45.0539 16.418 44.5266 15.893 44.5266 15.2461C44.5266 14.5992 45.0539 14.0742 45.6984 14.0742H64.4484C65.0977 14.0742 65.6203 14.5992 65.6203 15.2461C65.6203 15.893 65.0977 16.418 64.4484 16.418H45.6984ZM38.6719 63.2906C39.3187 63.2906 39.8438 63.818 39.8438 64.4625C39.8438 65.1117 39.3164 65.6344 38.6719 65.6344H19.9219C19.275 65.6344 18.75 65.1117 18.75 64.4625C18.75 63.818 19.275 63.2906 19.9219 63.2906H38.6719ZM38.6719 56.2594C39.3187 56.2594 39.8438 56.7867 39.8438 57.4312C39.8438 58.0805 39.3164 58.6031 38.6719 58.6031H19.9219C19.275 58.6031 18.75 58.0805 18.75 57.4312C18.75 56.7867 19.275 56.2594 19.9219 56.2594H38.6719ZM38.6719 49.2281C39.3187 49.2281 39.8438 49.7555 39.8438 50.4C39.8438 51.0492 39.3164 51.5719 38.6719 51.5719H19.9219C19.275 51.5719 18.75 51.0492 18.75 50.4C18.75 49.7555 19.275 49.2281 19.9219 49.2281H38.6719ZM64.4531 63.2906C65.0977 63.2906 65.625 63.818 65.625 64.4625C65.625 65.1117 65.0977 65.6344 64.4531 65.6344H45.7031C45.0539 65.6344 44.5312 65.1117 44.5312 64.4625C44.5312 63.818 45.0539 63.2906 45.7031 63.2906H64.4531ZM64.4531 56.2594C65.0977 56.2594 65.625 56.7867 65.625 57.4312C65.625 58.0805 65.0977 58.6031 64.4531 58.6031H45.7031C45.0539 58.6031 44.5312 58.0805 44.5312 57.4312C44.5312 56.7867 45.0539 56.2594 45.7031 56.2594H64.4531ZM64.4531 49.2281C65.0977 49.2281 65.625 49.7555 65.625 50.4C65.625 51.0492 65.0977 51.5719 64.4531 51.5719H45.7031C45.0539 51.5719 44.5312 51.0492 44.5312 50.4C44.5312 49.7555 45.0539 49.2281 45.7031 49.2281H64.4531ZM64.4531 35.1656C65.0977 35.1656 65.625 35.6906 65.625 36.3375C65.625 36.9844 65.0977 37.5094 64.4531 37.5094H19.9219C19.275 37.5094 18.75 36.9844 18.75 36.3375C18.75 35.6906 19.275 35.1656 19.9219 35.1656H64.4531ZM64.4531 42.1969C65.0977 42.1969 65.625 42.7242 65.625 43.3687C65.625 44.018 65.0977 44.5406 64.4531 44.5406H19.9219C19.275 44.5406 18.75 44.018 18.75 43.3687C18.75 42.7242 19.275 42.1969 19.9219 42.1969H64.4531ZM21.0938 30.4688H37.5C38.7961 30.4688 39.8438 29.4211 39.8438 28.125V11.7281C39.8438 10.432 38.7961 9.38438 37.5 9.38438H21.0938C19.7977 9.38438 18.75 10.432 18.75 11.7281V28.125C18.75 29.4188 19.7977 30.4688 21.0938 30.4688ZM23.4375 14.0625H35.1562V25.7812H23.4375V14.0625Z" fill="white" fill-opacity="0.4"/>
</g>
<defs>
<clipPath id="clip0_696_302">
<rect width="75" height="75" fill="white"/>
</clipPath>
</defs>
</svg>
