<svg width="75" height="75" viewBox="0 0 75 75" fill="none" xmlns="http://www.w3.org/2000/svg">
<g id="user_icon_religion 1">
<path id="Vector" d="M44.9413 19.2187C44.9413 14.9414 41.4843 11.4844 37.207 11.4844C32.9296 11.4844 29.4726 14.9414 29.4726 19.2187C29.4726 23.4961 32.9882 26.9531 37.207 26.9531C41.4257 26.9531 44.9413 23.4961 44.9413 19.2187ZM33.0468 19.2187C33.0468 16.875 34.9218 15 37.2656 15C39.6093 15 41.4843 16.875 41.4843 19.2187C41.4843 21.5625 39.5507 23.4375 37.207 23.4375C34.8632 23.4375 33.0468 21.5625 33.0468 19.2187ZM51.5624 66.1523C45.1171 60.7031 40.6054 57.4805 40.6054 57.4805L40.4296 50.8594C40.4296 50.8594 47.9882 42.3047 48.9257 38.3789C49.5117 35.9766 48.8085 34.9219 47.6367 34.9219C46.8749 34.9219 45.8788 35.3906 44.9413 36.2109C43.3007 37.6172 39.9609 40.5469 39.9609 40.5469C39.9609 40.5469 39.2578 31.2891 34.9804 30.5859C33.8671 30.4102 32.871 30.293 32.0507 30.293C27.6562 30.293 26.2499 32.5781 25.1953 36.3281C23.9062 40.8398 21.1523 56.7188 27.9492 66.3867C27.9492 66.3867 26.8359 66.3281 25.2538 66.3281C22.1484 66.3281 17.3437 66.4453 16.3476 67.3242C14.8828 68.6133 13.3007 70.1953 14.414 74.8828H47.5195C47.5195 75 57.9492 71.6016 51.5624 66.1523ZM46.9335 71.4844H17.5781C17.6953 71.0156 17.9296 70.7227 18.2812 70.3711C18.8671 70.2539 20.6249 69.9609 25.1953 69.9609C26.6601 69.9609 27.7734 70.0195 27.7734 70.0195L34.8046 70.2539L30.7617 64.5117C24.9609 56.25 27.246 41.8359 28.5351 37.4414C28.8281 36.4453 29.2382 35.0977 29.8242 34.5117C29.9999 34.3359 30.4101 33.9258 31.9921 33.9258C32.6367 33.9258 33.3984 33.9844 34.2773 34.1602C35.039 34.6875 36.1523 37.8516 36.3867 40.957L36.914 47.9297L41.7187 43.7109C40.4882 45.3516 39.0234 47.1094 37.7343 48.6328L36.914 49.5703V50.9766L37.0898 57.5391L37.1484 59.2969L38.5546 60.293C38.6132 60.3516 43.0078 63.5156 49.2773 68.7891C49.6874 69.1406 49.9218 69.4336 50.039 69.5508C49.5703 70.1953 48.2226 70.957 46.9335 71.4844Z" fill="white" fill-opacity="0.4"/>
<path id="Vector_2" d="M37.5 0C22.6758 0 10.6055 12.0703 10.6055 26.8945C10.6055 27.8906 11.3672 28.6523 12.3633 28.6523C13.3594 28.6523 14.1211 27.8906 14.1211 26.8945C14.1211 14.0039 24.6094 3.51562 37.5 3.51562C50.3906 3.51562 60.8789 14.0039 60.8789 26.8945C60.8789 27.8906 61.6406 28.6523 62.6367 28.6523C63.6328 28.6523 64.3945 27.8906 64.3945 26.8945C64.3945 12.0703 52.3242 0 37.5 0Z" fill="white" fill-opacity="0.4"/>
</g>
</svg>
