<svg width="75" height="75" viewBox="0 0 75 75" fill="none" xmlns="http://www.w3.org/2000/svg">
<g id="science 1">
<path id="Vector" d="M55.9093 37.5C52.5629 32.0684 48.3218 27.242 43.3656 23.225C42.745 22.6963 42.3556 21.9461 42.2805 21.1343C42.2053 20.3226 42.4503 19.5136 42.9633 18.88C43.4762 18.2463 44.2164 17.8382 45.0261 17.7427C45.8357 17.6472 46.6505 17.8719 47.2968 18.3687C51.8501 22.06 55.8687 26.3657 59.2375 31.1625C62.4156 23.8656 62.9656 17.3812 60.2906 14.7094C55.5968 10.0156 39.1687 15.25 27.2093 27.2094C24.1146 30.3136 21.3911 33.767 19.0937 37.5C21.3921 41.2332 24.1166 44.6866 27.2125 47.7906C39.1718 59.75 55.6 64.9844 60.2937 60.2906C62.9687 57.6156 62.4187 51.1344 59.2406 43.8375C55.8766 48.6296 51.8633 52.9311 47.3156 56.6187C46.6708 57.129 45.851 57.3646 45.0337 57.2744C44.2164 57.1843 43.4676 56.7756 42.9496 56.1371C42.4315 55.4986 42.186 54.6817 42.2662 53.8634C42.3464 53.0451 42.7459 52.2914 43.3781 51.7656C48.3279 47.7501 52.5636 42.927 55.9062 37.5H55.9093ZM15.7625 43.8375C12.5843 51.1344 12.0343 57.6187 14.7093 60.2906C16.7375 62.3156 21.7218 62.55 28.0437 60.4344C28.433 60.3043 28.844 60.2521 29.2534 60.2809C29.6628 60.3097 30.0625 60.4188 30.4298 60.602C30.797 60.7853 31.1245 61.0391 31.3937 61.3489C31.6628 61.6587 31.8683 62.0186 31.9984 62.4078C32.1285 62.797 32.1806 63.2081 32.1519 63.6175C32.1231 64.0269 32.014 64.4266 31.8307 64.7939C31.6475 65.1611 31.3937 65.4886 31.0838 65.7578C30.774 66.0269 30.4142 66.2324 30.025 66.3625C21.6968 69.1469 14.3875 68.8062 10.2906 64.7094C4.89683 59.3156 6.10933 48.3781 11.8718 37.5C6.10933 26.625 4.89683 15.6844 10.2906 10.2906C14.375 6.20624 21.6531 5.85311 29.95 8.61249C30.7263 8.8816 31.3654 9.44564 31.729 10.1825C32.0925 10.9194 32.1512 11.7698 31.8923 12.5496C31.6335 13.3294 31.0779 13.9759 30.3459 14.3491C29.6139 14.7224 28.7644 14.7923 27.9812 14.5437C21.6875 12.45 16.7312 12.6906 14.7093 14.7094C12.0343 17.3844 12.5843 23.8656 15.7625 31.1625C17.8589 28.1731 20.2104 25.371 22.7906 22.7875C36.8718 8.70936 56.7843 2.36249 64.7093 10.2875C70.1031 15.6875 68.8906 26.625 63.1281 37.5C68.8906 48.375 70.1031 59.3156 64.7093 64.7094C56.7843 72.6375 36.8718 66.2906 22.7906 52.2094C20.2095 49.627 17.8569 46.8259 15.7593 43.8375H15.7625ZM37.5 43.75C36.6792 43.75 35.8665 43.5883 35.1082 43.2742C34.3499 42.9601 33.6609 42.4998 33.0805 41.9194C32.5002 41.339 32.0398 40.65 31.7257 39.8918C31.4116 39.1335 31.25 38.3207 31.25 37.5C31.25 36.6792 31.4116 35.8665 31.7257 35.1082C32.0398 34.3499 32.5002 33.6609 33.0805 33.0806C33.6609 32.5002 34.3499 32.0398 35.1082 31.7257C35.8665 31.4116 36.6792 31.25 37.5 31.25C39.1576 31.25 40.7473 31.9085 41.9194 33.0806C43.0915 34.2527 43.75 35.8424 43.75 37.5C43.75 39.1576 43.0915 40.7473 41.9194 41.9194C40.7473 43.0915 39.1576 43.75 37.5 43.75Z" fill="white" fill-opacity="0.4"/>
</g>
</svg>
