<svg width="75" height="75" viewBox="0 0 75 75" fill="none" xmlns="http://www.w3.org/2000/svg">
<g id="24x_culture 1" clip-path="url(#clip0_696_345)">
<path id="Vector" d="M41.8073 31.4462C41.8073 31.7573 40.874 31.4462 40.874 31.4462C40.874 31.4462 40.874 31.4462 40.874 31.1351C40.874 31.4462 41.8073 31.4462 41.8073 31.4462ZM38.0741 30.824C37.763 30.824 37.4519 30.5129 37.1408 30.5129C37.1408 30.2018 38.0741 30.2018 38.0741 30.2018C38.0741 30.5129 38.0741 30.824 38.0741 30.824ZM35.8964 28.6464C35.8964 28.3353 35.5853 29.2685 35.8964 28.9574C35.8964 28.6463 35.8964 28.6464 35.8964 28.6464ZM35.5853 29.2685C36.5186 28.9574 35.8964 29.5796 35.8964 29.8907C35.5853 29.8907 35.5853 29.2685 35.5853 29.2685ZM37.1408 22.7355C36.8297 22.7355 36.5186 22.7355 36.8297 22.4244C36.8297 22.4244 36.8297 22.7355 37.1408 22.7355C36.8297 22.4244 37.1408 22.4244 37.1408 22.4244C37.1408 22.7355 36.8297 22.7355 37.1408 22.7355ZM36.2075 21.8022C36.8297 21.4911 35.8964 22.4244 35.5853 22.1133C35.5853 21.8022 35.8964 21.8022 36.2075 21.8022ZM30.9188 22.7355C30.6077 22.4244 30.6077 23.0466 30.9188 22.7355V22.7355ZM31.541 24.9132C31.541 25.2243 30.9188 25.2243 30.6077 25.2243C30.6077 24.9132 31.541 24.6021 31.541 24.6021C31.2299 24.6021 30.9188 24.6021 30.6077 24.6021C30.9188 24.291 30.9188 24.291 30.9188 24.291C31.2299 23.6688 31.2299 24.6021 31.541 23.6688C31.541 23.6688 31.2299 23.6688 31.541 23.3577C31.2299 23.3577 31.2299 23.3577 30.9188 23.3577C30.9188 23.0466 31.2299 22.4244 30.6077 22.7355V22.4244C30.2967 22.4244 30.6077 22.4244 30.2967 22.4244C30.6077 22.1133 30.2967 21.8022 30.6077 21.8022V21.4911C30.6077 21.18 30.9188 21.18 31.2299 21.18L30.9188 21.4911C30.9188 21.8022 31.541 21.18 31.8521 21.4911C31.8521 21.8022 31.2299 21.8022 31.541 22.1133H31.2299C31.2299 22.1133 32.1632 23.0466 32.4743 23.3577C32.7854 23.6688 33.4076 23.6688 32.7854 24.291H33.0965C33.0965 24.6021 31.8521 24.6021 31.8521 24.6021C31.8521 24.9132 31.8521 24.9132 31.541 24.9132C31.8521 24.9132 31.541 25.2243 31.541 24.9132ZM29.0523 24.291C29.0523 24.291 29.3634 24.291 29.6745 23.9799C29.3634 23.9799 29.3634 23.9799 29.0523 24.291C29.3634 23.9799 29.6745 23.6688 29.6745 23.6688H29.3634C29.0523 23.6688 29.3634 23.3577 29.6745 23.3577V23.0466C29.6745 23.0466 29.6745 23.0466 29.3634 23.0466C30.2967 22.1133 30.6077 23.6688 29.9856 24.291C29.6745 24.9132 29.3634 24.291 29.0523 24.291ZM24.6969 10.9137C24.3858 10.9137 24.3858 10.9137 24.6969 10.9137C24.3858 10.9137 24.6969 10.6026 24.6969 10.9137ZM24.6969 9.98045C24.6969 9.98045 24.6969 10.2916 24.3858 9.98045H24.6969ZM25.008 11.847L24.3858 12.1581C24.0747 11.847 25.008 11.847 25.008 11.847ZM25.3191 12.1581C25.3191 12.4692 24.3858 12.1581 24.3858 12.1581C24.3858 11.847 25.008 11.847 25.3191 12.1581C25.008 12.1581 25.008 12.1581 25.3191 12.1581ZM24.6969 13.4025L24.0747 13.7136C24.0747 13.7136 24.6969 13.0914 24.6969 13.4025C25.008 13.7136 25.008 13.0914 24.6969 13.4025ZM16.6083 15.8913C16.2972 15.8913 16.6083 15.5802 16.6083 15.8913V15.8913ZM8.51977 40.7792C8.51977 40.7792 8.20867 40.7792 8.20867 40.4681C8.51977 40.4681 8.83087 40.4681 8.83087 40.4681L8.51977 40.7792ZM10.0753 40.157C9.76416 39.5348 11.3197 40.157 11.6308 40.4681C11.6308 40.7792 9.76417 40.7792 9.45307 40.4681C9.76417 40.157 10.0753 40.4681 10.0753 40.157C10.3864 40.157 10.3864 40.157 10.0753 40.157ZM12.253 40.4681C12.253 40.4681 12.5641 40.4681 12.8751 40.4681C12.5641 40.7792 12.253 40.4681 12.253 40.4681ZM12.253 44.8235C12.5641 44.5124 12.5641 44.8235 12.253 44.8235C11.6308 45.1346 12.5641 44.8235 12.253 44.8235ZM14.7417 29.5796C14.7417 29.8907 14.1195 29.8907 14.1195 29.5796C14.1195 29.2685 14.1195 29.2685 14.4306 28.9574C14.7417 29.2685 14.1195 29.2685 14.4306 29.5796C14.4306 29.8907 14.7417 29.2685 14.7417 29.5796C14.7417 29.8907 14.7417 29.2685 14.7417 29.5796ZM16.9194 48.8677C16.9194 48.8677 16.6083 49.1788 16.2972 48.8677C15.9861 48.2455 16.6083 48.2455 16.9194 48.5566V48.8677ZM16.9194 28.9574C16.9194 29.5796 17.5416 28.6463 16.9194 28.9574C16.6083 29.2685 16.2972 29.2685 15.9861 29.2685C15.9861 28.9574 15.9861 28.9574 16.2972 28.9574C16.2972 28.9574 15.0528 28.9574 14.7417 28.9574C14.7417 28.6463 14.7417 28.6464 15.0528 28.6464C15.0528 28.6464 15.0528 28.6464 14.7417 28.6464C14.7417 28.3353 15.3639 27.402 15.9861 27.402C15.9861 27.402 15.675 28.0242 15.675 28.3353C15.675 28.0242 15.9861 28.0242 15.9861 28.3353C15.675 28.6464 16.6083 28.6464 16.6083 28.6464C16.2972 28.9574 16.2972 28.9574 16.6083 28.9574C17.2305 28.9574 16.6083 28.3353 16.9194 28.9574ZM19.0971 21.4911C19.0971 21.18 19.4082 21.18 19.0971 21.4911V21.4911ZM35.5853 42.9569C35.2742 43.5791 35.8964 43.268 35.5853 42.9569C35.5853 43.268 35.8964 42.9569 35.5853 42.9569ZM74.7837 41.0903C72.9171 41.7125 72.9171 42.0236 71.9838 39.8459C71.3616 38.2904 71.3616 37.046 70.4283 35.8016C68.2506 33.0017 64.2064 32.0684 61.0954 31.7573C59.2288 31.4462 57.0511 31.4462 55.1845 31.7573C54.5623 31.7573 53.9401 32.3795 53.3179 32.0684C53.0068 32.0684 52.6957 31.4462 52.6957 31.4462C51.4513 31.1351 51.4513 31.1351 50.518 30.5129C50.518 30.5129 49.2736 29.5796 49.5847 30.5129C50.2069 30.824 50.2069 31.7573 50.8291 32.3795V31.7573C51.4513 31.7573 50.518 32.6906 51.4513 32.3795C51.7624 32.3795 52.3846 31.4462 52.6957 31.4462C52.6957 32.0684 53.629 32.3795 53.629 33.0017C53.629 33.6239 53.0068 34.2461 52.3846 34.5572C51.4513 35.1794 49.5847 34.5572 48.3404 35.1794C47.096 36.1127 47.7182 38.2904 46.4738 39.2237C45.2294 39.8459 45.5405 39.5348 44.9183 38.9126C44.6072 37.9793 44.9183 36.7349 45.5405 36.1127C45.5405 36.1127 47.7182 34.5572 48.0293 35.1794C47.4071 33.935 43.985 30.5129 45.2294 28.9574C45.5405 28.6463 47.096 29.5796 47.4071 28.6464C47.7182 28.0242 46.1627 27.7131 45.8516 27.0909C46.1627 27.0909 46.1627 26.7798 46.4738 26.7798C46.1627 26.1576 46.1627 26.7798 46.7849 26.4687C46.7849 26.1576 45.2294 26.7798 44.9183 26.7798C45.2294 27.0909 45.5405 27.0909 45.8516 27.0909L44.9183 27.402C44.9183 26.4687 44.2961 27.7131 44.9183 26.7798L44.2961 26.4687C43.6739 26.7798 43.3628 27.0909 43.0517 27.402C42.7406 28.3353 42.7406 28.0242 43.0517 28.6464C43.0517 28.6464 42.1184 28.9574 42.1184 29.2685C42.1184 28.9574 41.8073 28.9574 41.1851 28.9574L41.4962 29.2685C41.4962 29.2685 41.4962 29.2685 41.1851 29.2685C40.874 29.2685 40.874 28.9574 40.874 28.9574C40.874 29.2685 40.5629 29.2685 41.1851 29.5796L40.874 29.8907C41.1851 29.8907 41.1851 30.2018 41.4962 30.2018C41.8073 30.2018 41.1851 30.2018 41.1851 30.2018C41.1851 30.2018 41.1851 30.2018 41.4962 30.5129C41.1851 30.5129 41.4962 30.5129 41.1851 30.5129V30.824C40.2518 30.5129 40.874 30.5129 41.1851 30.2018C41.1851 30.2018 39.9407 29.5796 39.9407 29.2685C39.9407 28.6463 38.6963 27.7131 38.6963 27.7131C38.3852 27.7131 38.6963 27.402 38.3852 27.402C38.3852 27.402 38.3852 27.7131 38.0741 27.7131C37.763 27.402 37.763 27.402 38.0741 27.402C38.0741 27.402 37.4519 27.402 37.4519 27.7131C37.4519 27.7131 39.6296 30.2018 39.6296 29.8907C38.3852 29.2685 39.6296 30.5129 38.6963 30.5129C38.6963 30.5129 39.0074 29.2685 38.0741 29.2685C38.0741 28.9574 37.1408 28.6464 36.8297 28.6464C35.8964 28.0242 36.5186 28.0242 35.5853 28.3353C34.652 28.3353 33.7187 28.6463 33.4076 29.5796C33.4076 29.8907 32.7854 30.824 32.4743 31.1351C32.1632 31.4462 31.541 31.4462 31.2299 31.7573C30.9188 31.7573 30.6077 31.1351 29.9856 31.4462C29.9856 31.1351 29.9856 30.824 29.9856 30.5129C29.9856 30.5129 29.9856 30.824 29.6745 30.5129C29.9856 29.5796 29.6745 28.9574 29.9856 28.6464C30.2967 28.3353 30.9188 28.6464 31.2299 28.6464C31.541 28.6464 31.541 28.6464 31.8521 28.6464C32.4743 28.3353 31.8521 28.3353 32.4743 28.3353C32.4743 27.7131 32.4743 28.0242 32.7854 28.0242C32.4743 27.0909 31.8521 27.402 31.541 26.7798C31.541 26.7798 31.541 26.7798 31.2299 26.7798C31.2299 26.4687 32.1632 26.7798 32.1632 26.4687C32.4743 26.4687 32.1632 26.1576 32.1632 25.8465C32.4743 25.8465 32.7854 26.1576 33.0965 25.8465C32.7854 25.8465 34.3409 24.9132 34.3409 24.9132L34.652 24.291C34.652 24.291 34.9631 24.9132 34.9631 24.6021C34.652 24.6021 35.2742 24.291 35.5853 24.291C35.5853 23.9799 35.8964 24.291 35.8964 23.9799C35.8964 23.6688 35.8964 23.6688 36.2075 23.6688C36.2075 23.6688 36.2075 23.6688 36.2075 23.3577C36.5186 23.3577 35.8964 22.4244 36.2075 22.4244H36.5186H37.1408L36.8297 22.7355C36.8297 23.0466 37.1408 23.6688 37.1408 23.6688C37.1408 23.6688 38.3852 23.6688 38.3852 23.9799C38.3852 23.6688 40.5629 23.3577 40.874 23.0466C40.5629 22.7355 40.874 21.8022 41.4962 21.8022C41.4962 22.1133 41.8073 22.1133 42.1184 22.1133C42.4295 21.8022 41.8073 21.4911 41.8073 21.4911C41.8073 21.4911 42.7406 20.5578 43.3628 21.18C43.3628 20.8689 43.3628 21.18 43.3628 20.8689H43.985L43.3628 20.5578C43.3628 20.5578 42.7406 20.8689 42.7406 20.5578C42.7406 20.8689 41.4962 20.8689 41.4962 20.8689C41.4962 20.8689 41.4962 20.8689 41.1851 20.8689L40.874 19.3134C41.1851 19.3134 40.874 19.3134 41.1851 19.0023C41.1851 19.0023 43.0517 16.8246 40.874 18.069C40.5629 18.069 39.9407 19.9356 39.3185 19.6245C39.3185 19.9356 39.0074 20.2467 39.3185 20.5578C39.3185 20.8689 39.9407 20.5578 39.9407 21.18C39.9407 21.18 39.0074 21.4911 39.0074 21.18C39.3185 21.18 39.6296 21.18 39.6296 21.18C39.6296 21.18 39.3185 21.8022 39.3185 21.18C39.0074 21.18 39.3185 21.4911 39.0074 21.4911V21.8022C39.0074 21.8022 38.3852 23.3577 37.763 23.0466C37.763 22.7355 37.763 22.7355 37.763 22.4244C37.763 22.4244 37.4519 21.8022 37.4519 21.4911C37.1408 21.4911 37.1408 20.8689 37.1408 20.8689C36.8297 21.18 36.2075 21.8022 35.5853 21.4911C34.9631 21.4911 35.2742 21.18 35.2742 21.18V20.8689V20.5578C34.9631 20.5578 35.2742 20.5578 35.2742 20.2467H34.9631C35.2742 19.9356 34.652 19.9356 34.9631 19.6245C35.2742 19.3134 35.5853 19.3134 35.8964 19.0023C35.5853 19.0023 37.763 17.4468 37.4519 17.4468C37.763 16.8246 38.0741 16.8246 38.3852 16.5135C38.3852 16.5135 40.5629 14.6469 40.2518 15.2691C40.874 14.958 41.4962 14.3358 42.1184 14.3358C42.1184 14.3358 41.8073 14.6469 41.8073 14.958C42.1184 14.958 42.1184 14.958 42.4295 14.3358V14.6469C42.4295 14.3358 42.7406 14.3358 43.0517 14.3358V14.6469C43.0517 14.6469 43.985 14.3358 43.985 14.6469C43.6739 14.6469 43.6739 14.958 43.3628 14.6469C43.6739 15.2691 44.9183 14.6469 44.9183 15.2691C45.5405 14.958 47.4071 15.8913 47.7182 16.2024C48.0293 17.7579 44.9183 16.2024 44.6072 16.5135C44.9183 16.8246 45.2294 17.7579 45.5405 17.7579C45.5405 17.7579 47.096 18.3801 46.4738 17.7579C46.1627 17.7579 46.1627 17.7579 46.1627 17.4468C46.4738 17.1357 47.096 17.4468 47.4071 17.7579C48.0293 17.1357 46.7849 17.7579 47.7182 16.8246C48.3404 16.5135 48.3404 16.8246 48.6514 16.8246C48.6514 16.5135 48.6514 16.5135 48.6514 16.2024C48.9625 15.5802 48.6514 15.8913 48.6514 15.5802C48.9625 15.5802 49.5847 15.5802 49.5847 15.8913C49.2736 15.8913 48.9626 15.8913 48.9626 16.2024C49.8958 16.8246 51.1402 15.2691 52.0735 15.2691C52.0735 15.5802 51.7624 15.5802 51.7624 15.5802C52.0735 15.5802 52.0735 15.5802 52.3846 15.5802C52.6957 15.5802 53.629 14.958 53.9401 15.2691C54.2512 15.8913 54.8734 14.6469 54.5623 14.6469C55.4956 14.3358 57.3622 15.8913 57.3622 15.2691C57.3622 15.2691 56.74 14.6469 56.4289 14.6469C56.74 14.3358 56.74 14.3358 56.74 14.0247C56.74 14.0247 56.74 14.0247 56.4289 14.0247C56.4289 13.7136 57.0511 13.4025 57.0511 13.0914C57.0511 12.7803 53.9401 11.2248 53.9401 11.2248C53.629 11.5359 53.3179 11.5359 52.6957 11.847C53.3179 12.4692 51.7624 12.1581 51.4513 12.1581C52.0735 11.847 51.7624 11.847 52.3846 11.5359C52.0735 11.2248 53.0068 10.9137 53.0068 10.9137C43.985 5.62508 33.0965 5.31398 23.7636 9.66935C24.0747 9.98045 23.7636 9.66935 23.4525 9.66935C23.7636 9.66935 23.1414 9.98045 23.1414 9.98045C23.4525 9.98045 23.7636 9.66935 24.0747 9.98045C24.0747 10.2915 23.4525 9.98045 23.1414 9.98045C23.1414 9.98045 23.4525 9.98045 23.7636 9.98045C23.7636 9.98045 23.1414 10.2915 23.4525 10.2915C23.7636 10.2915 24.0747 9.98045 24.0747 10.2915C24.0747 10.2915 24.6969 9.98045 24.6969 10.2915C24.6969 10.6026 24.0747 10.6026 23.7636 10.6026C23.7636 10.6026 23.7636 10.6026 23.7636 10.9137C24.0747 10.6026 24.0747 10.9137 24.0747 10.9137C24.0747 10.6026 24.6969 10.9137 24.6969 11.2248C24.6969 11.2248 23.7636 11.847 23.7636 11.5359C24.0747 11.5359 24.0747 11.5359 24.0747 11.5359C24.0747 11.5359 23.4525 11.5359 23.4525 11.847C23.4525 11.847 23.4525 11.847 23.1414 11.847C23.4525 12.1581 23.1414 12.1581 22.8303 12.1581C23.1414 12.1581 22.5192 12.4692 22.8303 12.4692C22.8303 12.1581 23.4525 12.1581 23.4525 12.1581L23.1414 12.4692C23.4525 12.4692 24.0747 12.1581 23.7636 12.4692H25.008C25.008 12.7803 25.3191 12.7803 25.3191 12.7803L25.6302 13.0914C25.6302 13.4025 25.3191 13.0914 25.3191 13.0914C25.3191 13.4025 23.7636 12.7803 22.8303 13.0914C23.1414 13.4025 23.4525 13.0914 23.1414 13.4025C23.1414 13.4025 24.0747 13.0914 24.0747 13.4025C24.0747 13.7136 23.4525 13.7136 23.4525 13.7136C23.7636 14.0247 23.1414 14.0247 23.4525 14.0247L24.3858 13.7136L23.7636 14.0247C24.3858 14.0247 25.3191 13.4025 25.6302 13.0914C25.3191 13.0914 25.6302 13.0914 25.6302 13.4025C25.6302 13.4025 25.3191 13.4025 25.3191 13.7136C25.3191 13.7136 25.3191 13.7136 25.008 13.7136C25.008 13.7136 25.008 13.7136 24.6969 13.7136C24.6969 14.0247 24.6969 14.0247 24.3858 14.0247C24.3858 14.3358 22.8303 14.958 23.1414 14.958C22.8303 15.2691 22.5192 14.6469 22.2081 14.958C22.5192 15.2691 22.5192 15.5802 22.2081 15.8913C22.5192 15.8913 21.5859 16.8246 21.5859 16.5135C21.5859 16.8246 20.9637 16.8246 20.9637 17.1357C20.6526 17.1357 20.9637 16.8246 20.9637 16.5135C21.2748 16.5135 20.3415 16.5135 20.6526 16.5135V16.8246C20.6526 16.8246 20.0304 16.8246 20.3415 17.1357C20.0304 17.1357 20.3415 17.1357 20.0304 17.1357C20.0304 17.1357 20.6526 17.1357 20.3415 17.4468C20.3415 17.4468 20.0304 17.4468 19.7193 17.4468C20.0304 17.4468 20.3415 17.7579 20.3415 17.7579C20.3415 17.7579 20.0304 17.7579 19.7193 17.7579C19.7193 17.7579 20.3415 17.7579 20.3415 18.069C20.3415 18.3801 20.0304 18.069 20.0304 18.3801H19.7193V18.6912C19.0971 19.0023 20.0304 19.0023 19.4082 19.0023C19.7193 19.3134 19.7193 19.6245 19.7193 19.3134L19.4082 19.6245L19.7193 19.9356C19.7193 19.9356 19.7193 19.9356 19.4082 19.9356C19.4082 20.2467 19.7193 19.9356 19.7193 19.9356C19.7193 19.9356 19.4082 20.2467 19.0971 20.2467H19.4082L18.4749 20.5578C18.4749 20.5578 18.786 20.2467 18.4749 20.2467C18.4749 20.2467 18.4749 20.2467 18.1638 20.5578C18.1638 20.2467 18.1638 20.5578 17.8527 20.5578C17.8527 20.5578 18.1638 19.9356 17.8527 20.2467C17.8527 20.2467 18.1638 19.9356 17.8527 19.9356C17.5416 19.9356 17.2305 20.5578 16.9194 20.2467C17.2305 20.2467 16.6083 19.9356 16.6083 19.9356H16.9194C16.6083 19.9356 16.6083 20.2467 16.6083 19.9356C16.6083 19.9356 16.6083 19.9356 16.6083 19.6245C16.6083 19.6245 16.6083 19.6245 16.2972 19.6245C16.2972 19.3134 15.9861 19.6245 15.9861 18.6912C15.675 18.6912 15.675 18.6912 15.675 18.6912C15.675 18.3801 15.3639 18.3801 15.675 18.3801C15.3639 18.3801 15.0528 18.3801 15.3639 18.3801C15.675 18.3801 15.675 18.3801 15.9861 18.069C15.675 17.7579 15.3639 18.3801 15.3639 18.069C15.675 17.4468 15.675 18.069 16.2972 17.7579C16.2972 17.7579 15.675 17.4468 15.675 17.1357C15.675 17.1357 15.3639 17.7579 15.0528 17.7579C15.3639 17.7579 15.0528 17.1357 15.0528 17.1357C15.3639 16.8246 15.0528 17.1357 14.7417 16.8246C14.7417 16.8246 14.7417 16.8246 15.0528 16.8246C14.4306 17.1357 16.2972 16.2024 16.2972 16.2024C15.9861 16.2024 14.7417 16.8246 14.7417 16.8246C14.7417 16.5135 14.7417 16.8246 15.0528 16.5135C15.0528 16.5135 14.4306 16.5135 14.4306 16.2024C14.7417 16.2024 15.0528 16.2024 15.3639 16.2024C15.0528 15.8913 14.7417 16.2024 14.4306 16.2024C14.7417 15.8913 15.0528 15.8913 15.675 15.8913C15.675 15.8913 15.3639 16.2024 15.3639 15.8913L14.7417 16.2024C14.4306 15.8913 15.3639 15.8913 15.3639 15.8913C15.0528 15.8913 15.675 15.8913 15.9861 15.8913C15.675 15.5802 15.9861 15.8913 15.675 15.5802C15.675 15.5802 15.3639 15.5802 15.0528 15.5802L15.9861 15.2691C15.9861 15.2691 15.9861 15.2691 15.675 15.2691C15.9861 14.958 16.2972 14.958 15.675 14.958C15.675 14.6469 15.675 14.6469 15.9861 14.3358C15.675 14.3358 15.0528 14.0247 14.7417 14.3358L15.3639 14.6469C15.0528 14.958 14.1195 14.958 14.7417 14.6469C14.1195 14.0247 12.253 16.8246 11.9419 17.4468C12.253 17.4468 12.253 17.4468 12.253 17.7579C11.6308 17.7579 12.5641 17.7579 12.5641 17.7579C12.8751 17.7579 13.1862 17.7579 13.1862 18.069C13.1862 18.3801 12.8751 18.069 12.5641 18.3801C12.8751 19.0023 12.564 18.6912 12.253 18.6912C12.253 19.0023 12.253 19.0023 12.253 19.3134C11.6308 19.3134 11.6308 18.6912 11.0086 18.3801C10.6975 18.6912 10.6975 18.6912 10.6975 18.6912C10.6975 18.6912 11.3197 19.3134 11.0086 19.3134C11.3197 19.0023 11.3197 19.3134 11.6308 19.6245C11.3197 19.6245 11.9419 19.9356 11.9419 20.2467L11.6308 19.9356C11.6308 20.2467 11.9419 20.2467 11.9419 20.5578V20.8689C11.6308 20.8689 11.3197 20.2467 11.0086 20.2467C11.0086 20.2467 11.0086 20.2467 11.0086 20.5578H10.6975C10.6975 20.8689 11.6308 21.18 11.6308 21.4911C10.6975 21.18 9.76417 20.2467 9.45307 21.4911C9.45307 21.18 11.0086 22.7355 10.0753 22.7355C10.0753 23.0466 11.0086 23.0466 11.3197 22.7355C11.6308 22.7355 11.6308 22.4244 11.9419 22.1133C12.253 22.4244 12.5641 22.7355 12.5641 23.0466C12.8751 23.0466 12.8751 23.3577 12.8751 23.6688C13.1862 24.291 13.1862 23.6688 12.8751 23.9799C13.1862 24.291 13.8084 24.291 13.4973 24.9132C13.8084 24.9132 14.1195 24.9132 14.7417 25.2243C14.4306 25.5354 13.8084 25.2243 13.8084 25.8465C14.1195 25.8465 14.7417 25.2243 15.0528 25.5354C14.7417 26.1576 16.2972 26.1576 14.4306 26.7798C12.8751 27.402 11.0086 26.7798 10.0753 28.6464C10.3864 28.3353 12.253 26.7798 12.5641 27.7131C12.5641 28.0242 11.9419 28.0242 11.6308 28.0242C11.6308 28.3353 11.9419 28.0242 12.253 28.0242C12.5641 28.0242 12.253 28.3353 12.253 28.3353C12.253 28.3353 12.5641 28.6464 12.8751 28.6464C12.5641 28.9574 13.4973 28.6463 13.1862 28.9574C13.4973 28.9574 13.8084 28.9574 13.8084 29.2685C13.8084 29.5796 13.1862 29.2685 13.1862 29.5796L12.5641 29.8907C12.5641 30.2018 12.253 29.8907 12.253 29.8907C12.253 29.5796 12.253 29.5796 12.253 29.5796C12.253 29.5796 12.5641 29.2685 12.8751 29.2685C12.8751 29.2685 12.8751 28.9574 13.1862 29.2685C13.1862 28.9574 12.8751 28.9574 12.5641 29.2685C12.5641 29.2685 12.5641 28.9574 12.8751 28.9574C12.8751 29.2685 12.5641 29.2685 12.253 29.2685H11.9419H11.6308C11.6308 29.2685 11.6308 29.2685 11.3197 29.2685C11.3197 29.2685 10.6975 29.2685 11.0086 29.2685C10.6975 29.2685 10.3864 30.2018 11.0086 30.2018C11.0086 30.2018 10.6975 30.5129 10.6975 30.2018C10.3864 30.2018 10.0753 30.5129 9.76417 30.5129C9.76417 30.2018 9.76417 31.1351 9.45307 31.1351L9.14197 30.824C9.45307 30.5129 9.14197 31.7573 8.83087 31.7573C8.51977 31.7573 9.14197 31.1351 8.83087 31.4462C8.83087 31.4462 8.83087 31.4462 8.83087 31.1351C8.51977 31.1351 8.51977 30.824 8.83087 30.824V31.1351C8.83087 31.1351 8.83087 31.1351 8.83087 31.4462C8.83087 31.4462 8.83087 31.4462 8.51977 31.4462C8.51977 31.4462 8.83087 32.0684 8.83087 31.7573C8.83087 31.7573 8.83087 31.7573 9.14197 32.0684C9.14197 32.0684 9.14197 32.0684 9.14197 32.3795C8.51977 32.3795 9.14197 32.0684 9.14197 32.6906C9.14197 32.6906 9.14197 32.6906 9.14197 33.0017C9.45307 33.0017 9.45307 33.0017 9.45307 33.0017C9.76417 33.0017 9.14197 33.3128 9.14197 33.3128C9.14197 33.3128 9.14197 33.3128 8.83087 33.3128C8.83087 33.3128 9.14197 33.6239 8.83087 33.6239C9.14197 33.935 8.51977 33.935 7.89758 34.5572C7.27538 35.1794 7.27538 35.1794 7.27538 36.1127C7.27538 36.1127 7.89758 37.6682 7.27538 37.6682C6.96428 37.6682 6.65318 37.046 6.65318 36.7349L6.34208 36.1127C6.34208 37.046 6.34208 37.9793 6.34208 38.9126C7.27538 38.6015 8.83087 39.5348 9.76417 39.8459C9.45307 40.157 8.83087 40.157 8.83087 39.8459C8.20867 39.5348 7.58648 39.5348 6.96428 39.2237C7.58648 39.2237 6.65318 39.2237 6.65318 39.2237C6.34208 39.5348 6.65318 43.5791 7.27538 43.8902C7.58648 44.2013 7.89758 43.5791 8.20867 43.5791C8.20867 43.5791 9.14197 44.5124 8.83087 44.2013C8.83087 44.2013 9.45307 43.5791 9.45307 44.2013C9.45307 44.5124 8.83087 44.8235 9.14197 45.1346C9.45307 45.1346 9.14197 44.5124 9.14197 44.5124L9.76417 44.2013C9.76417 44.2013 9.45307 43.8902 9.76417 43.8902C10.0753 45.1346 11.9419 44.2013 12.5641 44.5124C12.5641 44.8235 12.253 44.5124 12.253 44.5124C12.564 44.5124 12.5641 44.8235 12.8751 44.8235L12.5641 45.1346C13.1862 45.1346 13.4973 45.1346 13.8084 45.7568C13.8084 46.0679 18.786 46.379 15.9861 48.5566H16.9194C16.9194 48.5566 16.9194 48.5566 16.9194 48.8677C17.8527 48.5566 18.4749 48.2455 18.4749 49.1788C19.4082 48.5566 21.5859 49.4899 21.897 50.4232C22.2081 51.0454 20.9637 52.6009 20.6526 52.6009C20.6526 53.5342 20.6526 54.4675 20.3415 55.0897C19.7193 56.3341 20.0304 55.7119 18.786 56.3341C18.4749 56.6452 17.5416 56.9563 17.2305 57.2674C16.9194 57.8896 16.9194 58.8229 16.2972 59.7562C16.2972 59.4451 16.6083 59.4451 16.6083 59.134C16.2972 59.134 16.2972 59.4451 16.2972 59.4451C21.2748 64.1116 27.4968 67.2225 34.0298 68.1558C35.8964 68.4669 38.0741 68.778 38.3852 70.9557C39.0074 73.4445 36.8297 74.3778 34.652 74.3778C10.3864 72.2001 -5.79075 46.379 3.2311 23.6688C11.9419 1.5808 39.9407 -7.12995 59.5399 6.55837C69.8061 14.6469 75.717 27.7131 74.7837 41.0903C74.7837 39.8459 73.2282 41.4014 74.7837 41.0903ZM7.27538 45.1346C6.96428 45.1346 8.51977 44.2013 8.20867 44.5124C7.89758 44.2013 7.89758 44.2013 8.20867 44.2013L7.58648 43.8902C7.27538 44.2013 7.58648 43.8902 7.58648 44.5124C7.27538 44.5124 7.27538 44.5124 7.27538 44.5124C7.27538 44.5124 7.27538 44.2013 6.96428 44.2013C6.96428 44.5124 7.27538 44.8235 7.27538 45.1346ZM16.9194 15.2691C16.6083 15.2691 16.6083 15.2691 16.9194 15.2691C16.6083 14.958 16.6083 14.958 16.9194 15.2691C16.9194 14.958 16.6083 14.958 16.6083 14.958L16.2972 15.2691C15.9861 15.2691 16.9194 15.5802 16.9194 15.2691ZM53.0068 34.2461C53.0068 34.5572 52.6957 35.1794 52.3846 35.1794C52.3846 34.5572 52.6957 34.2461 53.0068 34.2461ZM53.3179 33.935C53.0068 33.935 53.0068 33.935 53.3179 33.935V33.935ZM44.6072 35.8016C44.6072 36.4238 44.6072 37.046 44.2961 37.6682L43.3628 38.9126C43.6739 38.9126 44.6072 39.8459 44.6072 40.157C43.985 41.0903 47.096 40.157 47.4071 40.4681C47.7182 40.7792 46.4738 42.3347 46.4738 42.6458C45.5405 43.5791 43.3628 42.6458 42.7406 43.268C42.4295 43.5791 45.2294 43.5791 44.9183 43.8902C43.3628 45.4457 43.3628 45.7568 43.6739 47.9344C43.6739 48.2455 43.985 49.1788 43.6739 49.801C43.3628 50.4232 42.1184 50.4232 41.8073 51.3565C41.8073 51.3565 41.4962 52.6009 41.8073 52.2898C41.8073 52.6009 41.8073 52.6009 41.8073 52.912C41.4962 53.2231 40.874 53.2231 40.874 53.5342C40.874 53.5342 41.1851 53.8453 40.874 54.1564C40.2518 54.7786 39.6296 55.7119 39.0074 56.3341C38.6963 55.7119 38.0741 54.1564 37.763 53.5342C37.4519 52.6009 36.5186 50.7343 36.8297 49.801C36.8297 48.8677 37.4519 48.5566 37.4519 47.6233C37.4519 47.3123 36.2075 45.4457 36.2075 45.4457L35.8964 45.1346C35.8964 44.8235 35.5853 44.5124 35.8964 44.5124V44.2013C36.2075 44.2013 35.8964 42.6458 35.2742 42.9569C35.5853 43.5791 34.0298 42.6458 34.0298 42.6458C33.4076 42.6458 32.7854 42.6458 31.8521 42.9569C30.9188 42.9569 28.119 43.5791 27.4968 41.7125C27.8079 41.7125 26.5635 40.7792 26.8746 40.4681C26.5635 40.157 26.5635 40.4681 26.2524 39.8459C26.2524 39.5348 26.5635 37.3571 26.2524 37.3571C25.9413 35.8016 28.119 34.8683 28.7412 33.935C29.0523 33.6239 29.0523 33.0017 29.0523 32.6906C29.6745 31.4462 29.9856 32.0684 30.6077 31.7573C31.541 31.4462 32.4743 31.1351 33.7187 31.1351C34.3409 31.1351 35.5853 31.1351 35.8964 31.1351C35.8964 31.7573 35.8964 31.7573 35.5853 32.3795C35.5853 33.0017 36.8297 33.0017 37.4519 33.0017C37.763 33.3128 37.763 33.6239 38.3852 33.6239C39.6296 33.935 38.6963 33.3128 39.3185 33.3128C39.3185 33.3128 40.2518 33.0017 40.5629 33.0017C40.874 33.0017 41.1851 33.3128 41.4962 33.3128C42.1184 33.3128 43.3628 33.935 43.985 33.3128C43.985 34.2461 43.6739 33.6239 43.985 34.5572C43.985 34.8683 43.985 31.7573 44.2961 32.0684C44.9183 33.0017 45.2294 33.6239 45.5405 34.5572C45.5405 34.8683 46.1627 34.8683 45.8516 35.1794C45.8516 35.8016 44.6072 35.4905 44.6072 35.8016ZM41.4962 56.6452C40.5629 56.3341 39.6296 56.9563 39.0074 56.3341C39.6296 56.6452 41.8073 56.6452 41.4962 56.6452ZM44.9183 30.824C44.9183 30.824 44.6072 31.4462 44.6072 31.7573C44.6072 31.1351 44.6072 30.2018 44.9183 30.2018C44.6072 30.2018 44.9183 30.5129 44.9183 30.824ZM44.2961 33.0017C44.2961 32.3795 44.2961 31.7573 44.6072 31.4462C44.2961 32.3795 44.2961 33.3128 44.2961 33.0017ZM44.9183 28.6464C44.6072 28.3353 44.6072 28.0242 44.6072 28.0242L44.2961 28.6464C44.2961 28.0242 44.6072 27.7131 45.2294 27.7131C45.2294 27.7131 45.5405 29.2685 44.9183 28.6464C44.9183 28.9574 44.9183 28.9574 44.9183 28.6464ZM44.6072 28.6464C44.6072 28.9574 44.6072 31.4462 44.2961 31.4462C44.2961 31.1351 44.2961 28.6464 44.6072 28.6464ZM44.2961 31.7573C43.6739 31.4462 44.2961 31.7573 44.2961 31.4462V31.7573ZM43.985 31.1351C43.6739 31.1351 41.4962 31.1351 42.4295 30.2018C42.4295 29.8907 42.4295 29.8907 42.1184 29.8907C42.1184 29.2685 42.4295 29.5796 42.7406 29.5796C42.7406 29.5796 43.3628 29.5796 43.0517 29.5796C43.0517 29.5796 43.3628 29.2685 43.3628 29.5796C43.3628 29.5796 43.0517 29.5796 43.0517 29.2685C43.6739 29.2685 43.985 28.9574 44.6072 28.9574C44.6072 28.9574 44.2961 31.1351 43.985 31.1351ZM11.0086 31.4462C11.3197 31.4462 11.3197 31.4462 11.0086 31.4462V31.4462Z" fill="white" fill-opacity="0.4"/>
<path id="Vector_2" d="M48.0293 66.6004C50.518 66.2893 54.8734 60.3784 54.8734 59.7562C54.8734 58.8229 51.4513 57.8896 50.8291 56.023C50.8291 55.7119 50.518 56.023 50.207 55.7119C49.5848 54.7786 49.2737 53.5342 48.9626 52.912C48.6515 51.9787 49.8959 51.9787 49.8959 51.9787C49.8959 51.9787 48.9626 47.0012 49.8959 43.8902C51.1402 39.8459 57.0511 37.6682 59.2288 37.6682C61.7176 37.6682 67.6285 39.8459 68.5617 43.8902C69.495 47.0012 68.5617 51.9787 68.5617 51.9787C68.5617 51.9787 69.8061 51.9787 69.495 52.912C69.1839 53.5342 69.1839 54.7786 68.5617 55.7119C68.2507 56.023 67.6285 56.023 67.6285 56.023C67.0063 57.8896 63.5842 58.8229 63.5842 59.7562C63.5842 60.6895 67.9396 66.2893 70.7394 66.6004C74.1615 67.2226 74.7837 68.778 74.7837 71.2668C74.7837 73.7556 66.6952 75 59.2288 75C51.7624 75 43.985 74.0667 43.985 71.2668C43.985 69.0891 44.6072 67.2226 48.0293 66.6004Z" fill="white" fill-opacity="0.4"/>
</g>
<defs>
<clipPath id="clip0_696_345">
<rect width="75" height="75" fill="white"/>
</clipPath>
</defs>
</svg>
