<svg width="75" height="75" viewBox="0 0 75 75" fill="none" xmlns="http://www.w3.org/2000/svg">
<g id="&#232;&#191;&#144;&#229;&#138;&#168;&#229;&#145;&#152;&#231;&#174;&#161;&#231;&#144;&#134; 1">
<path id="Vector" d="M50.1703 73.6875C49.6343 73.6867 49.101 73.611 48.5859 73.4625C47.8604 73.24 47.1883 72.871 46.611 72.3783C46.0337 71.8857 45.5636 71.28 45.2297 70.5985C44.1186 68.3759 43.0512 66.1317 42.0281 63.8672L41.2969 62.2781C39.0917 58.1619 35.4393 55.0089 31.0453 53.4282C28.073 56.9976 23.889 59.3457 19.2938 60.0235C14.8882 60.5296 10.4552 59.3397 6.89532 56.6953C6.33527 56.3012 5.85885 55.8 5.49358 55.2208C5.12831 54.6415 4.88143 53.9956 4.7672 53.3203C4.61203 52.3357 4.69706 51.3281 5.01504 50.3834C5.33302 49.4386 5.87454 48.5847 6.59352 47.8943C7.3125 47.2038 8.18764 46.6973 9.14448 46.4178C10.1013 46.1384 11.1115 46.0942 12.0891 46.2891C12.7669 46.4637 13.4203 46.7219 14.0344 47.0578C14.6713 47.5629 15.4174 47.9123 16.2131 48.0781C17.0089 48.244 17.8324 48.2219 18.6181 48.0134C19.4038 47.8049 20.1299 47.4159 20.7388 46.8773C21.3476 46.3387 21.8223 45.6654 22.125 44.911C24.6422 40.6922 26.9531 36.2625 29.1844 31.9547C29.6656 31.0172 30.1578 30.0703 30.6609 29.1141C30.2443 29.3595 29.8885 29.6961 29.6203 30.0985C29.0344 30.8953 28.3734 31.7391 27.7453 32.5547C27.2235 33.2072 26.7125 33.8682 26.2125 34.5375C25.6837 35.3272 24.9749 35.9799 24.1445 36.442C23.314 36.9041 22.3857 37.1623 21.4359 37.1953C20.2592 37.1798 19.1149 36.8071 18.1547 36.1266C17.4603 35.6735 16.8662 35.0828 16.4091 34.391C15.9519 33.6993 15.6415 32.9212 15.4969 32.1047C15.3916 31.4325 15.4273 30.7458 15.6016 30.0881C15.7759 29.4305 16.085 28.8162 16.5094 28.2844C18.4492 25.7198 20.5954 23.318 22.9266 21.1032C25.089 19.12 27.8065 17.8459 30.7141 17.4521C33.6216 17.0583 36.5801 17.5635 39.1922 18.9C40.7625 19.5891 42.2391 20.4188 43.6781 21.2438C44.3625 21.6282 45.0844 22.0266 45.7547 22.3875C46.7576 23.138 47.9075 23.6684 49.1294 23.9442C50.3512 24.22 51.6175 24.235 52.8456 23.9881C54.0736 23.7413 55.2357 23.2382 56.2561 22.5117C57.2765 21.7852 58.1321 20.8516 58.7672 19.7719C59.2793 19.0806 59.924 18.4983 60.6636 18.0588C61.4032 17.6194 62.223 17.3317 63.075 17.2125C63.8975 17.1127 64.7317 17.1791 65.528 17.4078C66.3244 17.6365 67.0667 18.0228 67.7109 18.5438C68.7552 19.3445 69.4799 20.4912 69.7547 21.7782C69.8804 22.444 69.8717 23.1283 69.7292 23.7908C69.5868 24.4533 69.3133 25.0806 68.925 25.636C66.6063 29.2066 63.3676 32.0858 59.55 33.9703C57.0163 35.1682 54.2479 35.7878 51.4453 35.7844C49.8805 35.7809 48.3209 35.6032 46.7953 35.2547C45.2344 38.1328 43.6359 41.0157 42.1078 43.8047L41.2781 45.3047L41.9625 45.8625C43.5375 47.1469 45.1688 48.4641 46.6828 49.8797C48.1557 51.1993 49.4048 52.7491 50.3813 54.4688C52.3017 58.1078 54.1134 61.8032 55.8141 65.55C56.1443 66.2289 56.3321 66.9683 56.3659 67.7225C56.3997 68.4767 56.2787 69.2298 56.0103 69.9355C55.742 70.6412 55.3321 71.2845 54.8058 71.8258C54.2795 72.3671 53.6479 72.7949 52.95 73.0828C52.0841 73.5009 51.1316 73.7081 50.1703 73.6875ZM31.0359 49.0969C31.3989 49.0928 31.7585 49.1663 32.0906 49.3125C37.6837 51.2809 42.3298 55.2843 45.1031 60.525L45.8344 62.1235C46.8375 64.2985 47.8688 66.5532 48.9656 68.686C49.0592 68.8754 49.1923 69.0426 49.3558 69.1764C49.5194 69.3101 49.7097 69.4074 49.9139 69.4615C50.1181 69.5157 50.3316 69.5256 50.5399 69.4904C50.7483 69.4553 50.9467 69.376 51.1219 69.2578C51.3192 69.199 51.5012 69.0977 51.655 68.9608C51.8088 68.824 51.9307 68.655 52.0121 68.4659C52.0935 68.2768 52.1323 68.0721 52.1259 67.8663C52.1195 67.6606 52.068 67.4587 51.975 67.275C50.3098 63.6042 48.5356 59.9839 46.6547 56.4188C45.8925 55.1025 44.9257 53.9158 43.7906 52.9032C42.3844 51.586 40.875 50.3625 39.2859 49.0688C38.5957 48.5115 37.9098 47.949 37.2281 47.3813C36.8539 47.0702 36.5996 46.6385 36.509 46.1604C36.4183 45.6822 36.4969 45.1875 36.7313 44.761L38.4047 41.7328C39.9797 38.8828 41.6109 35.9391 43.2094 33C43.5521 32.2092 44.1766 31.5741 44.9614 31.2181C45.7463 30.862 46.6355 30.8105 47.4563 31.0735C50.9014 31.8336 54.4988 31.4838 57.733 30.0742C60.9673 28.6647 63.6724 26.2677 65.4609 23.2266C65.8031 22.725 65.6906 22.2375 65.1141 21.7828C64.9052 21.6039 64.6617 21.47 64.3988 21.3893C64.1359 21.3087 63.8592 21.283 63.5859 21.3141C63.2854 21.3624 62.9975 21.4702 62.7391 21.6311C62.4807 21.7921 62.2571 22.0031 62.0813 22.2516C60.2192 24.9529 57.4905 26.9374 54.3469 27.8766C53.3898 28.1233 52.4056 28.2493 51.4172 28.2516C48.7338 28.149 46.1166 27.3892 43.7953 26.0391C43.0641 25.65 42.3328 25.2422 41.625 24.8485C40.2188 24.061 38.8922 23.3156 37.5047 22.7063C35.6364 21.6886 33.4958 21.2832 31.3848 21.5473C29.2738 21.8114 27.2991 22.7316 25.7391 24.1782C23.5796 26.2392 21.5903 28.4715 19.7906 30.8531C19.7214 30.9323 19.671 31.0262 19.6434 31.1278C19.6158 31.2293 19.6117 31.3357 19.6313 31.4391C19.6902 31.6855 19.7977 31.9177 19.9474 32.1221C20.0971 32.3265 20.286 32.4991 20.5031 32.6297C20.9719 32.9438 21.75 33.4735 22.8469 31.9969C23.3438 31.336 23.9016 30.6235 24.4359 29.9391C25.0547 29.1516 25.6969 28.336 26.2406 27.5953C27.1209 26.2723 28.4461 25.3085 29.976 24.8785C31.5058 24.4486 33.139 24.5809 34.5797 25.2516C34.9103 25.3796 35.203 25.5896 35.4301 25.8618C35.6573 26.1341 35.8114 26.4596 35.8781 26.8078C36.0316 27.3486 35.9712 27.9276 35.7094 28.425C34.7719 30.2157 33.8063 32.0532 32.8969 33.825C30.6375 38.1891 28.2938 42.6938 25.7156 47.0063C24.5755 49.1128 22.7591 50.774 20.5594 51.7219C19.1492 52.2028 17.6482 52.3574 16.1696 52.1739C14.691 51.9904 13.2733 51.4736 12.0234 50.6625C11.7283 50.4991 11.4131 50.3746 11.0859 50.2922C10.6767 50.2318 10.2589 50.3085 9.89769 50.5103C9.5365 50.712 9.2522 51.0276 9.08907 51.4078C8.91105 51.6885 8.83358 52.0212 8.86935 52.3517C8.90511 52.6821 9.052 52.9905 9.28595 53.2266C11.9976 55.2827 15.3967 56.216 18.7781 55.8328C22.4613 55.2387 25.7924 53.2975 28.125 50.386C28.8945 49.6022 29.9338 49.1412 31.0313 49.0969H31.0359Z" fill="white" fill-opacity="0.4"/>
<path id="Vector_2" d="M48.6141 21.7172C46.0485 21.6987 43.5936 20.6698 41.7816 18.8534C39.9697 17.0371 38.9466 14.5797 38.9344 12.0141C38.9307 10.7435 39.1781 9.48475 39.6625 8.31012C40.1468 7.1355 40.8586 6.06818 41.7568 5.16953C42.655 4.27088 43.722 3.55862 44.8964 3.07368C46.0708 2.58874 47.3294 2.34068 48.6 2.34378H48.6281C51.1603 2.39948 53.57 3.44451 55.3412 5.25506C57.1123 7.0656 58.1041 9.4977 58.1041 12.0305C58.1041 14.5633 57.1123 16.9954 55.3412 18.8059C53.57 20.6165 51.1603 21.6615 48.6281 21.7172H48.6141ZM48.6141 6.52972C47.1558 6.52972 45.7572 7.10901 44.7261 8.14017C43.6949 9.17133 43.1156 10.5699 43.1156 12.0282C43.1156 13.4864 43.6949 14.885 44.7261 15.9161C45.7572 16.9473 47.1558 17.5266 48.6141 17.5266C49.3366 17.5307 50.0527 17.3902 50.7201 17.1132C51.3874 16.8363 51.9926 16.4286 52.5 15.9141C53.0111 15.3996 53.4148 14.7886 53.6876 14.1166C53.9604 13.4447 54.0969 12.7252 54.0891 12C54.1011 11.2763 53.9673 10.5576 53.6957 9.88665C53.424 9.21575 53.0199 8.60644 52.5077 8.09505C51.9954 7.58366 51.3854 7.18068 50.714 6.91013C50.0427 6.63959 49.3237 6.50702 48.6 6.52034L48.6141 6.52972Z" fill="white" fill-opacity="0.4"/>
</g>
</svg>
