<svg width="16" height="16" viewBox="0 0 16 16" fill="none" xmlns="http://www.w3.org/2000/svg">
<g id="tag" clip-path="url(#clip0_2956_1797)">
<path id="Icon" fill-rule="evenodd" clip-rule="evenodd" d="M0.800049 3.08438C0.800049 1.82265 1.82289 0.799805 3.08463 0.799805H7.44059C8.0465 0.799805 8.62759 1.0405 9.05603 1.46894L14.5309 6.94382C15.4231 7.83601 15.4231 9.28252 14.5309 10.1747L10.1749 14.5307C9.28277 15.4229 7.83625 15.4229 6.94407 14.5307L1.46919 9.05579C1.04075 8.62734 0.800049 8.04625 0.800049 7.44034V3.08438ZM3.08463 1.9998C2.48563 1.9998 2.00005 2.48539 2.00005 3.08438V7.44034C2.00005 7.72799 2.11432 8.00386 2.31771 8.20726L7.7926 13.6821C8.21615 14.1057 8.90287 14.1057 9.32642 13.6821L13.6824 9.32618C14.1059 8.90262 14.1059 8.21591 13.6824 7.79235L8.2075 2.31747C8.0041 2.11407 7.72824 1.9998 7.44059 1.9998H3.08463ZM5.20005 4.7998C4.97914 4.7998 4.80005 4.97889 4.80005 5.1998C4.80005 5.42072 4.97914 5.5998 5.20005 5.5998C5.42096 5.5998 5.60005 5.42072 5.60005 5.1998C5.60005 4.97889 5.42096 4.7998 5.20005 4.7998ZM3.60005 5.1998C3.60005 4.31615 4.31639 3.5998 5.20005 3.5998C6.0837 3.5998 6.80005 4.31615 6.80005 5.1998C6.80005 6.08346 6.0837 6.7998 5.20005 6.7998C4.31639 6.7998 3.60005 6.08346 3.60005 5.1998Z" fill="#B4B4B4"/>
</g>
<defs>
<clipPath id="clip0_2956_1797">
<rect width="16" height="16" fill="white"/>
</clipPath>
</defs>
</svg>
