<svg width="90" height="90" viewBox="0 0 90 90" fill="none" xmlns="http://www.w3.org/2000/svg">
<g id="function_&#232;&#174;&#190;&#231;&#189;&#174;&#231;&#174;&#161;&#231;&#144;&#134;&#230;&#137;&#179;&#230;&#137;&#139;02 1">
<path id="Vector" d="M77.4487 20.4975C78.585 20.6963 79.5487 21.435 80.04 22.4813C82.1457 26.9781 82.9226 31.9829 82.2792 36.9064C81.6359 41.83 79.5991 46.4671 76.4086 50.2719C73.2181 54.0766 69.0069 56.8905 64.2709 58.3821C59.5349 59.8737 54.4712 59.981 49.6762 58.6913L29.6737 78.6938C28.476 79.9366 27.0425 80.9283 25.4572 81.6109C23.8718 82.2934 22.1663 82.6532 20.4403 82.6691C18.7143 82.6851 17.0024 82.3569 15.4047 81.7037C13.807 81.0505 12.3555 80.0855 11.135 78.865C9.91449 77.6445 8.94946 76.193 8.2963 74.5953C7.64313 72.9976 7.31493 71.2857 7.33088 69.5597C7.34682 67.8337 7.70658 66.1282 8.38915 64.5428C9.07171 62.9575 10.0634 61.524 11.3062 60.3263L31.3087 40.3238C30.0173 35.5286 30.1235 30.4642 31.6145 25.7273C33.1056 20.9904 35.9196 16.7783 39.7248 13.5875C43.5301 10.3966 48.1681 8.35981 53.0923 7.71714C58.0166 7.07446 63.022 7.85265 67.5187 9.96002C68.0323 10.2014 68.4803 10.5628 68.8248 11.0137C69.1693 11.4647 69.4002 11.9919 69.4981 12.5509C69.5959 13.1099 69.5577 13.6842 69.3868 14.2254C69.216 14.7665 68.9174 15.2586 68.5162 15.66L56.0475 28.1325L61.8675 33.9525L74.34 21.48C74.7417 21.0783 75.2343 20.7792 75.7761 20.6082C76.3179 20.4372 76.8929 20.3992 77.4525 20.4975H77.4487ZM75.2025 30.6225L64.3687 41.4563C64.0403 41.7849 63.6504 42.0455 63.2212 42.2234C62.7921 42.4012 62.3321 42.4928 61.8675 42.4928C61.4029 42.4928 60.9429 42.4012 60.5137 42.2234C60.0846 42.0455 59.6946 41.7849 59.3662 41.4563L48.5437 30.6338C48.2151 30.3054 47.9545 29.9154 47.7766 29.4863C47.5988 29.0571 47.5073 28.5971 47.5073 28.1325C47.5073 27.668 47.5988 27.2079 47.7766 26.7788C47.9545 26.3496 48.2151 25.9597 48.5437 25.6313L59.3812 14.7938C56.1172 14.2851 52.777 14.6373 49.6909 15.8157C46.6048 16.994 43.8798 18.9576 41.7854 21.5122C39.6911 24.0668 38.2999 27.1239 37.7495 30.3812C37.1992 33.6384 37.5087 36.9829 38.6475 40.0838C38.8803 40.7184 38.9263 41.4064 38.78 42.0664C38.6338 42.7264 38.3015 43.3306 37.8225 43.8075L16.3087 65.325C15.2184 66.4385 14.6114 67.9371 14.6194 69.4955C14.6275 71.0539 15.2499 72.5462 16.3516 73.6484C17.4533 74.7506 18.9453 75.3737 20.5037 75.3825C22.0621 75.3912 23.561 74.7848 24.675 73.695L46.1962 52.1738C46.6736 51.6967 47.2776 51.3663 47.9368 51.2214C48.5959 51.0765 49.2828 51.1233 49.9162 51.3563C53.0175 52.4953 56.3624 52.8049 59.62 52.2544C62.8776 51.7039 65.935 50.3123 68.4897 48.2175C71.0445 46.1226 73.008 43.3971 74.186 40.3104C75.364 37.2238 75.7157 33.8831 75.2062 30.6188L75.2025 30.6225Z" fill="white" fill-opacity="0.4"/>
</g>
</svg>
