<svg width="75" height="75" viewBox="0 0 75 75" fill="none" xmlns="http://www.w3.org/2000/svg">
<g id="&#229;&#140;&#191;&#229;&#144;&#141;&#231;&#148;&#168;&#230;&#136;&#183;,&#229;&#171;&#140;&#231;&#150;&#145;&#228;&#186;&#186;,&#233;&#153;&#140;&#231;&#148;&#159;&#228;&#186;&#186;,&#233;&#187;&#145;&#229;&#174;&#162; 1">
<path id="Vector" d="M68.8385 56.6143C68.5895 54.4689 68.1648 52.1991 67.5278 49.7901C66.9054 47.3958 65.917 45.2284 64.5843 43.3247C63.2444 41.421 61.6335 39.9712 59.7444 38.9754L63.4421 28.8343H53.7916C54.597 26.4547 54.8972 24.0603 54.6922 21.6221C55.8125 21.3951 56.8156 21.1535 57.7236 20.9045C60.8061 20.0625 62.644 19.1106 63.2298 18.0489C63.3689 17.8 63.4348 17.551 63.4348 17.2947C63.4348 15.5814 60.2863 14.095 53.9747 12.8283C53.4621 10.9685 52.686 8.9549 51.6536 6.79489C50.6211 4.63487 49.5594 2.92151 48.4758 1.66211C47.5166 0.563802 46.367 0.00732422 45.049 0.00732422C44.1484 0.00732422 42.889 0.468615 41.2709 1.39852C39.6527 2.32842 38.386 2.78971 37.4927 2.78971C36.5994 2.78971 35.3327 2.32842 33.7145 1.39852C32.0963 0.468615 30.8369 0.00732422 29.9363 0.00732422C28.6183 0.00732422 27.4761 0.563802 26.5169 1.67676C25.4332 2.93615 24.3715 4.64952 23.3464 6.80953C22.314 8.96954 21.5379 10.9831 21.0253 12.8429C14.721 14.1023 11.5652 15.5887 11.5652 17.3094C11.5652 17.5876 11.6457 17.8512 11.7995 18.1148C12.4219 19.1619 14.2963 20.1064 17.4229 20.9558C18.2869 21.1901 19.2461 21.4171 20.3078 21.6367C20.2419 22.2371 20.2126 22.7204 20.2126 23.0792C20.2126 25.0049 20.5421 26.9233 21.2084 28.849H11.5432L15.5997 38.7704C14.0108 39.5465 12.5976 40.6668 11.3822 42.1239C10.1667 43.581 9.21482 45.1406 8.51922 46.7881C7.82362 48.4355 7.26715 50.2953 6.83514 52.3528C6.39582 54.4103 6.11758 56.2921 5.98578 58.0128C5.85398 59.7262 5.78809 61.4981 5.78809 63.3286C5.78809 66.9604 6.8864 69.8087 9.0757 71.8881C11.265 73.9603 14.1719 75 17.8109 75H57.189C60.8208 75 63.735 73.9676 65.9243 71.8881C68.1136 69.8233 69.2119 66.9677 69.2119 63.3286C69.2192 61.0002 69.1021 58.767 68.8385 56.6143ZM24.7669 16.8701L25.5284 14.0803C25.9604 12.5134 26.6414 10.7488 27.5566 8.8231C28.3913 7.08045 29.2114 5.71854 30.0095 4.77399C30.2731 4.8765 30.7197 5.08152 31.3714 5.45495C33.7657 6.8315 35.7134 7.46852 37.4853 7.46852C39.2573 7.46852 41.1976 6.8315 43.5993 5.45495C44.2583 5.08152 44.6976 4.8765 44.9612 4.77399C45.7593 5.71854 46.5794 7.08045 47.4141 8.8231C48.3293 10.7342 49.0103 12.4988 49.4496 14.0803L50.2184 16.8627L52.3858 17.2947C47.1505 18.3125 41.7248 18.8031 36.3577 18.7225C31.6789 18.6566 27.066 18.1807 22.5703 17.2947L24.7669 16.8701ZM47.2896 33.5278L43.5261 36.7495C40.0554 39.7223 34.9373 39.7223 31.4666 36.7495L27.7031 33.5278H27.7616L26.7219 30.5184C26.7365 30.5404 26.7439 30.5623 26.7585 30.577C26.8317 30.7015 26.9635 30.9065 27.1685 31.214C27.3662 31.5142 27.5493 31.7192 27.7104 31.8217C27.8715 31.9242 28.0911 32.0707 28.3474 32.2464C28.6037 32.4221 28.8673 32.5466 29.1309 32.6052C29.4091 32.6638 29.7093 32.7297 30.0534 32.7882C30.3976 32.8468 30.7637 32.8834 31.1518 32.8834C32.2354 32.8834 33.1214 32.6931 33.817 32.327C34.5126 31.9462 34.9958 31.4996 35.2887 30.9724C35.5743 30.4525 35.7939 29.9326 35.9404 29.4201C36.0942 28.9075 36.2626 28.4609 36.4603 28.0948C36.658 27.7141 36.9142 27.5383 37.251 27.5383H37.7929C38.1224 27.5383 38.3933 27.7287 38.5763 28.0948C38.774 28.4755 38.9424 28.9075 39.0962 29.4201C39.25 29.9326 39.4623 30.4525 39.7479 30.9724C40.0334 31.4922 40.524 31.9462 41.2196 32.327C41.9152 32.7077 42.7938 32.8834 43.8848 32.8834C44.2729 32.8834 44.6463 32.8541 44.9831 32.7882C45.3273 32.7297 45.6348 32.6638 45.8984 32.6052C46.1766 32.5466 46.4329 32.4221 46.6819 32.2464C46.9381 32.0634 47.1432 31.9242 47.3189 31.8217C47.48 31.7192 47.663 31.5215 47.8607 31.214C48.0365 30.9431 48.1609 30.7527 48.2415 30.6282L47.2603 33.5278H47.2896ZM45.8984 40.8865L37.5 63.1382L29.0796 40.8425L29.2114 40.9597C34 45.0454 41.0512 45.0381 45.8325 40.945L45.8984 40.8865ZM45.9716 24.5948C43.8702 24.5948 41.3587 24.8804 38.4445 25.4442C38.2395 25.5028 37.9247 25.5394 37.5 25.5394C37.0826 25.5394 36.7605 25.5101 36.5554 25.4442C33.6486 24.8731 31.1371 24.5948 29.0283 24.5948C26.9489 24.5948 25.6089 24.6754 25.0159 24.8292C24.928 24.2361 24.8841 23.6503 24.8841 23.0719C24.8841 23.0133 24.8841 22.8229 24.9207 22.4788C28.6549 23.0499 32.4551 23.3721 36.2992 23.4233C36.6872 23.4306 37.0753 23.4306 37.4634 23.4306C41.6663 23.4306 45.8984 23.1011 50.05 22.4714C50.094 23.2622 50.0573 24.0457 49.9475 24.8218C49.3325 24.6681 48.0072 24.5948 45.9716 24.5948ZM17.8109 70.2919C15.3946 70.2919 13.5934 69.6988 12.2974 68.4687C11.7116 67.9122 11.2796 67.2679 10.9794 66.4918C10.6426 65.6131 10.4669 64.5368 10.4669 63.314C10.4669 61.6152 10.5328 59.9458 10.6499 58.3569C10.7671 56.8559 11.0234 55.1572 11.4114 53.312C11.7922 51.5328 12.2681 49.9439 12.8392 48.5893C13.3445 47.3811 14.0694 46.2096 14.9846 45.1113C15.7754 44.1667 16.6467 43.4638 17.6572 42.9733L21.5964 41.0475L19.9343 36.9838L18.5212 33.5205H21.3109L21.6916 34.5309L34.9958 69.772L35.1935 70.2919H17.8109ZM64.0205 66.4991C63.7277 67.2679 63.2957 67.9122 62.7172 68.4614H62.7099C61.4139 69.6915 59.6127 70.2846 57.1964 70.2846H39.8064L40.0041 69.7647L53.301 34.5382L53.6891 33.5205H56.7424L55.3366 37.3719L53.9307 41.2233L57.5551 43.127C58.7853 43.7714 59.825 44.7159 60.7403 46.0192C61.7507 47.4617 62.5049 49.1238 62.9881 50.9763V50.9909C63.5446 53.107 63.9473 55.1791 64.1743 57.1561V57.2C64.4086 59.0745 64.5184 61.0807 64.5184 63.3286C64.5331 64.5441 64.3574 65.6204 64.0205 66.4991Z" fill="white" fill-opacity="0.4"/>
</g>
</svg>
