<svg width="73" height="73" viewBox="0 0 73 73" fill="none" xmlns="http://www.w3.org/2000/svg">
<g id="Avatars/5/Lavender">
<path id="Vector" d="M36.046 72.092C55.9537 72.092 72.092 55.9536 72.092 36.046C72.092 16.1383 55.9537 0 36.046 0C16.1384 0 0 16.1383 0 36.046C0 55.9536 16.1384 72.092 36.046 72.092Z" fill="#FED1DD"/>
<path id="Vector_2" d="M52.1071 34.5096C43.237 25.6395 28.8557 25.6395 19.9856 34.5096" stroke="#8D0448" stroke-width="8.96317" stroke-miterlimit="10"/>
<path id="Vector_3" d="M60.7124 62.5397C54.0646 57.0779 45.5551 53.799 36.2798 53.799C27.0036 53.799 18.4933 57.0785 11.8452 62.5413C11.8452 62.5413 20.5717 72.092 36.2798 72.092C51.9878 72.092 60.7124 62.5397 60.7124 62.5397Z" fill="#8D0448"/>
</g>
</svg>
