<svg width="73" height="73" viewBox="0 0 73 73" fill="none" xmlns="http://www.w3.org/2000/svg">
<g id="Avatars/27/Lavender">
<path id="Vector" d="M36.046 72.092C55.9537 72.092 72.092 55.9536 72.092 36.046C72.092 16.1383 55.9537 0 36.046 0C16.1384 0 0 16.1383 0 36.046C0 55.9536 16.1384 72.092 36.046 72.092Z" fill="#C0E1FF"/>
<path id="Vector_2" d="M60.4799 62.5396C53.8321 57.0778 45.3226 53.7989 36.0473 53.7989C26.7711 53.7989 18.2609 57.0784 11.6128 62.5412C11.6128 62.5412 20.3393 72.0919 36.0473 72.0919C51.7554 72.0919 60.4799 62.5396 60.4799 62.5396Z" fill="#00527C"/>
<path id="Vector_3" d="M46.9047 20.9772H25.1882V42.6937H46.9047V20.9772Z" stroke="#00527C" stroke-width="7.43968" stroke-miterlimit="10"/>
</g>
</svg>
