<svg width="73" height="73" viewBox="0 0 73 73" fill="none" xmlns="http://www.w3.org/2000/svg">
<g id="Avatars/10/Lavender">
<path id="Vector" d="M36.046 72.092C55.9537 72.092 72.092 55.9536 72.092 36.046C72.092 16.1383 55.9537 0 36.046 0C16.1384 0 0 16.1383 0 36.046C0 55.9536 16.1384 72.092 36.046 72.092Z" fill="#FFE1D3"/>
<path id="Vector_2" d="M60.4797 62.5395C53.8319 57.0777 45.3224 53.7988 36.0471 53.7988C26.7709 53.7988 18.2606 57.0783 11.6125 62.5411C11.6125 62.5411 20.339 72.0919 36.0471 72.0919C51.7552 72.0919 60.4797 62.5395 60.4797 62.5395Z" fill="#FF5A0F"/>
<path id="Vector_3" d="M36.0463 43.4836C42.8845 43.4836 48.428 37.9401 48.428 31.1019C48.428 24.2636 42.8845 18.7202 36.0463 18.7202C29.208 18.7202 23.6646 24.2636 23.6646 31.1019C23.6646 37.9401 29.208 43.4836 36.0463 43.4836Z" stroke="#FF5A0F" stroke-width="8.96317" stroke-miterlimit="10"/>
</g>
</svg>
