<svg width="73" height="73" viewBox="0 0 73 73" fill="none" xmlns="http://www.w3.org/2000/svg">
<g id="Avatars/23/Lavender">
<path id="Vector" d="M36.046 72.092C55.9536 72.092 72.092 55.9536 72.092 36.046C72.092 16.1383 55.9536 0 36.046 0C16.1383 0 0 16.1383 0 36.046C0 55.9536 16.1383 72.092 36.046 72.092Z" fill="#FFFC58"/>
<path id="Vector_2" d="M60.4795 62.5396C53.8316 57.0778 45.3221 53.7989 36.0469 53.7989C26.7706 53.7989 18.2604 57.0784 11.6123 62.5412C11.6123 62.5412 20.3388 72.0919 36.0469 72.0919C51.7549 72.0919 60.4795 62.5396 60.4795 62.5396Z" fill="#7D7A00"/>
<path id="Vector_3" d="M51.4019 41.3232L36.046 25.9673L20.6902 41.3232" stroke="#7D7A00" stroke-width="7.43968" stroke-miterlimit="10"/>
</g>
</svg>
