<svg width="73" height="73" viewBox="0 0 73 73" fill="none" xmlns="http://www.w3.org/2000/svg">
<g id="Avatars/20/Lavender">
<path id="Vector" d="M36.046 72.092C55.9536 72.092 72.092 55.9536 72.092 36.046C72.092 16.1383 55.9536 0 36.046 0C16.1383 0 0 16.1383 0 36.046C0 55.9536 16.1383 72.092 36.046 72.092Z" fill="#FFC0C1"/>
<path id="Vector_2" d="M60.4799 62.5395C53.8321 57.0777 45.3226 53.7989 36.0473 53.7989C26.7711 53.7989 18.2609 57.0783 11.6128 62.5411C11.6128 62.5411 20.3393 72.0919 36.0473 72.0919C51.7554 72.0919 60.4799 62.5395 60.4799 62.5395Z" fill="#BC0005"/>
<path id="Vector_3" d="M23.4802 29.3829C23.4802 22.4718 29.1348 16.8172 36.046 16.8172C36.4779 16.8172 36.905 16.8393 37.3261 16.8824C45.8364 17.7535 49.5861 28.2095 44.1211 34.7912L34.1055 46.8536" stroke="#BC0005" stroke-width="8.96317" stroke-miterlimit="10"/>
</g>
</svg>
