<svg width="73" height="73" viewBox="0 0 73 73" fill="none" xmlns="http://www.w3.org/2000/svg">
<g id="Avatars/7/Lavender">
<path id="Vector" d="M36.046 72.092C55.9536 72.092 72.092 55.9536 72.092 36.046C72.092 16.1383 55.9536 0 36.046 0C16.1383 0 0 16.1383 0 36.046C0 55.9536 16.1383 72.092 36.046 72.092Z" fill="#38FAA3"/>
<path id="Vector_2" d="M60.4793 62.5397C53.8314 57.0779 45.3219 53.799 36.0466 53.799C26.7704 53.799 18.2602 57.0785 11.6121 62.5413C11.6121 62.5413 20.3385 72.092 36.0466 72.092C51.7547 72.092 60.4793 62.5397 60.4793 62.5397Z" fill="#0C5132"/>
<path id="Vector_3" d="M41.3494 41.003L53.4833 41.1899L47.2005 21.7805L36.968 21.605H36.3837L26.1511 21.7805L19.8684 41.1899L32.0022 41.003H41.3494Z" stroke="#0C5132" stroke-width="7.43968" stroke-miterlimit="10"/>
</g>
</svg>
