<svg width="73" height="73" viewBox="0 0 73 73" fill="none" xmlns="http://www.w3.org/2000/svg">
<g id="Avatars/9/Lavender">
<path id="Vector" d="M36.046 72.092C55.9536 72.092 72.092 55.9536 72.092 36.046C72.092 16.1383 55.9536 0 36.046 0C16.1383 0 0 16.1383 0 36.046C0 55.9536 16.1383 72.092 36.046 72.092Z" fill="#FBCFFB"/>
<path id="Vector_2" d="M60.4787 62.5395C53.8309 57.0777 45.3214 53.7988 36.0461 53.7988C26.7699 53.7988 18.2597 57.0783 11.6116 62.5411C11.6116 62.5411 20.338 72.0919 36.0461 72.0919C51.7542 72.0919 60.4787 62.5395 60.4787 62.5395Z" fill="#791A79"/>
<path id="Vector_3" d="M48.7612 23.8891V31.3305C48.7612 38.3243 43.039 44.0466 36.0442 44.0466C29.0504 44.0466 23.3281 38.3244 23.3281 31.3305V23.8891" stroke="#791A79" stroke-width="8.96317" stroke-miterlimit="10"/>
</g>
</svg>
