<svg width="73" height="73" viewBox="0 0 73 73" fill="none" xmlns="http://www.w3.org/2000/svg">
<g id="Avatars/29/Lavender">
<path id="Vector" d="M36.046 72.092C55.9536 72.092 72.092 55.9536 72.092 36.046C72.092 16.1383 55.9536 0 36.046 0C16.1383 0 0 16.1383 0 36.046C0 55.9536 16.1383 72.092 36.046 72.092Z" fill="#92EDDE"/>
<path id="Vector_2" d="M60.4797 62.5395C53.8319 57.0777 45.3224 53.7989 36.0471 53.7989C26.7709 53.7989 18.2606 57.0784 11.6125 62.5412C11.6125 62.5412 20.339 72.0919 36.0471 72.0919C51.7552 72.0919 60.4797 62.5395 60.4797 62.5395Z" fill="#095346"/>
<path id="Vector_3" d="M36.0458 18.9406L23.4194 31.567L36.0458 44.1933L48.6721 31.5669L36.0458 18.9406Z" stroke="#095346" stroke-width="7.43968" stroke-miterlimit="10"/>
</g>
</svg>
