<svg width="30" height="30" viewBox="0 0 30 30" fill="none" xmlns="http://www.w3.org/2000/svg">
<g id="Podcast 1" clip-path="url(#clip0_308_242)">
<path id="Vector" d="M6.12245 30H23.8776C27.2602 30 30 27.2602 30 23.8776V6.12245C30 2.7398 27.2602 0 23.8776 0H6.12245C2.7398 0 0 2.7398 0 6.12245V23.8776C0 27.2602 2.7398 30 6.12245 30Z" fill="#9A3FCE"/>
<path id="Vector_2" d="M15 3.67358C20.749 3.67358 25.4082 8.33277 25.4082 14.0817C25.4082 18.6736 22.4357 22.5736 18.3061 23.9542L18.4317 22.6011C21.8051 21.242 24.1837 17.942 24.1837 14.0817C24.1837 9.0093 20.0725 4.89807 15 4.89807C9.92757 4.89807 5.81635 9.0093 5.81635 14.0817C5.81635 17.942 8.19492 21.242 11.5684 22.6011L11.6939 23.9542C7.56431 22.5736 4.59186 18.6736 4.59186 14.0817C4.59186 8.33277 9.25104 3.67358 15 3.67358ZM15 7.34705C18.7194 7.34705 21.7347 10.3624 21.7347 14.0817C21.7347 16.4328 20.5286 18.5052 18.701 19.7083L18.8602 18.0124C19.3838 17.5005 19.7995 16.8891 20.0829 16.214C20.3663 15.5389 20.5116 14.8139 20.5102 14.0817C20.5102 11.0389 18.0429 8.57154 15 8.57154C11.9572 8.57154 9.48982 11.0389 9.48982 14.0817C9.48982 15.6215 10.1204 17.0144 11.1398 18.0124L11.299 19.7083C9.47145 18.5052 8.26533 16.4328 8.26533 14.0817C8.26533 10.3624 11.2806 7.34705 15 7.34705ZM12.551 13.1634C12.551 11.8103 13.647 10.7144 15 10.7144C16.3531 10.7144 17.449 11.8103 17.449 13.1634C17.449 14.5164 16.3531 15.6124 15 15.6124C13.647 15.6124 12.551 14.5164 12.551 13.1634ZM15 26.3266C13.9592 26.3266 13.0898 25.5338 12.9919 24.4991L12.4959 19.2093C12.4639 18.8697 12.5032 18.5271 12.6113 18.2036C12.7193 17.8801 12.8938 17.5827 13.1235 17.3305C13.3532 17.0783 13.6331 16.8769 13.9451 16.7392C14.2572 16.6015 14.5946 16.5305 14.9357 16.5307H15.0643C16.5092 16.5307 17.6388 17.7705 17.5041 19.2093L17.0082 24.4991C16.9608 24.9989 16.7288 25.4632 16.3574 25.8011C15.9861 26.1391 15.5021 26.3264 15 26.3266Z" fill="white"/>
</g>
<defs>
<clipPath id="clip0_308_242">
<rect width="30" height="30" fill="white"/>
</clipPath>
</defs>
</svg>
