<svg width="30" height="30" viewBox="0 0 30 30" fill="none" xmlns="http://www.w3.org/2000/svg">
<g id="rss 1">
<path id="Vector" d="M1.25 25C1.25 24.0054 1.64509 23.0516 2.34835 22.3483C3.05161 21.6451 4.00544 21.25 5 21.25C5.99456 21.25 6.94839 21.6451 7.65165 22.3483C8.35491 23.0516 8.75 24.0054 8.75 25C8.75 25.9946 8.35491 26.9484 7.65165 27.6516C6.94839 28.3549 5.99456 28.75 5 28.75C4.00544 28.75 3.05161 28.3549 2.34835 27.6516C1.64509 26.9484 1.25 25.9946 1.25 25ZM28.75 28.75H23.5125C23.5125 16.475 13.525 6.4875 1.25 6.4875V1.25C16.4125 1.25 28.75 13.5875 28.75 28.75ZM20 28.75H14.6438C14.6438 21.365 8.635 15.3575 1.25 15.3575V10C11.5887 10 20 18.4112 20 28.75Z" fill="#EE802F"/>
</g>
</svg>
