<svg width="30" height="30" viewBox="0 0 30 30" fill="none" xmlns="http://www.w3.org/2000/svg">
<g id="spotify 1" clip-path="url(#clip0_308_240)">
<path id="Vector" d="M23.85 13.35C19.05 10.5 11.025 10.2 6.45 11.625C5.7 11.85 4.95 11.4 4.725 10.725C4.5 9.975 4.95 9.225 5.625 9C10.95 7.425 19.725 7.725 25.275 11.025C25.95 11.4 26.175 12.3 25.8 12.975C25.425 13.5 24.525 13.725 23.85 13.35ZM23.7 17.55C23.325 18.075 22.65 18.3 22.125 17.925C18.075 15.45 11.925 14.7 7.2 16.2C6.6 16.35 5.925 16.05 5.775 15.45C5.625 14.85 5.925 14.175 6.525 14.025C12 12.375 18.75 13.2 23.4 16.05C23.85 16.275 24.075 17.025 23.7 17.55ZM21.9 21.675C21.6 22.125 21.075 22.275 20.625 21.975C17.1 19.8 12.675 19.35 7.425 20.55C6.9 20.7 6.45 20.325 6.3 19.875C6.15 19.35 6.525 18.9 6.975 18.75C12.675 17.475 17.625 18 21.525 20.4C22.05 20.625 22.125 21.225 21.9 21.675ZM15 0C6.75 0 0 6.75 0 15C0 23.25 6.75 30 15 30C23.25 30 30 23.25 30 15C30 6.75 23.325 0 15 0Z" fill="#1DB954"/>
</g>
<defs>
<clipPath id="clip0_308_240">
<rect width="30" height="30" fill="white"/>
</clipPath>
</defs>
</svg>
