<svg width="43" height="30" viewBox="0 0 43 30" fill="none" xmlns="http://www.w3.org/2000/svg">
<path id="Vector" d="M17.6471 21.1765V8.82353L28.2353 15.0212L17.6471 21.1765ZM41.9294 6.47118C41.9294 6.47118 41.5147 3.53294 40.2459 2.23765C38.6347 0.538235 36.8294 0.531176 36.0018 0.432353C30.0759 -3.94443e-07 21.1853 0 21.1853 0H21.1676C21.1676 0 12.2771 -3.94443e-07 6.35118 0.432353C5.52176 0.531176 3.71824 0.538235 2.10529 2.23765C0.836471 3.53294 0.423529 6.47294 0.423529 6.47294C0.423529 6.47294 0 9.92118 0 13.3712V16.6094C0 20.0612 0.423529 23.5129 0.423529 23.5129C0.423529 23.5129 0.836471 26.4512 2.10529 27.7465C3.71824 29.4459 5.83412 29.3912 6.77647 29.5694C10.1647 29.8994 21.1765 30 21.1765 30C21.1765 30 30.0759 29.9859 36.0018 29.5553C36.8312 29.4547 38.6347 29.4476 40.2459 27.7482C41.5165 26.4529 41.9294 23.5129 41.9294 23.5129C41.9294 23.5129 42.3529 20.0629 42.3529 16.6112V13.3747C42.3529 9.92294 41.9294 6.47118 41.9294 6.47118Z" fill="#FF0000"/>
</svg>
