<svg width="30" height="30" viewBox="0 0 30 30" fill="none" xmlns="http://www.w3.org/2000/svg">
<g id="&#230;&#148;&#182;&#232;&#151;&#143; 1" clip-path="url(#clip0_204_317)">
<path id="Vector" d="M22.8863 18.0478C23.225 19.6215 23.5238 21.0458 23.7827 22.3207C23.9022 22.8586 24.0118 23.3964 24.1114 23.9343C24.211 24.4721 24.3056 24.9602 24.3953 25.3984C24.4849 25.8367 24.5596 26.2102 24.6194 26.5189C24.6791 26.8277 24.719 27.0219 24.7389 27.1016C24.7987 27.5 24.709 27.7639 24.47 27.8934C24.2309 28.0229 23.962 28.0876 23.6632 28.0877C23.5636 28.0877 23.4192 28.0528 23.2299 27.9831C23.0407 27.9133 22.8963 27.8586 22.7967 27.8187L14.9979 23.2769C13.5835 24.1135 12.2987 24.8606 11.1433 25.5179C10.6453 25.7968 10.1522 26.0757 9.6642 26.3546C9.17615 26.6335 8.73292 26.8924 8.33452 27.1315C7.93611 27.3705 7.59248 27.5697 7.30364 27.7291C7.0148 27.8884 6.82057 27.988 6.72097 28.0279C6.52177 28.1275 6.31758 28.1624 6.10842 28.1325C5.89926 28.1026 5.71002 28.0279 5.54069 27.9084C5.37137 27.7888 5.24687 27.6444 5.16719 27.4751C5.0875 27.3058 5.06758 27.1315 5.10743 26.9522C5.12735 26.8725 5.17715 26.6783 5.25683 26.3695C5.33651 26.0608 5.42615 25.6922 5.52575 25.2639C5.62535 24.8357 5.7399 24.3626 5.86938 23.8446C5.99886 23.3267 6.13332 22.7988 6.27276 22.261C6.57157 21.0259 6.91021 19.6315 7.2887 18.0777C6.1134 17.0618 5.05762 16.1554 4.12137 15.3586C3.72296 15.0199 3.32954 14.6863 2.94109 14.3576C2.55264 14.0289 2.20404 13.7301 1.89527 13.4612C1.58651 13.1922 1.33253 12.9731 1.13332 12.8038C0.934119 12.6345 0.824557 12.5398 0.804637 12.5199C0.565593 12.3008 0.36141 12.0568 0.192087 11.7878C0.0227641 11.5189 -0.0419769 11.245 -0.00213624 10.9661C0.0377044 10.6873 0.147266 10.4681 0.326549 10.3088C0.505832 10.1494 0.705035 10.0498 0.924159 10.01L10.1572 9.17331L13.5935 1.16534C13.713 0.846614 13.8823 0.572709 14.1014 0.343626C14.3206 0.114542 14.6194 0 14.9979 0C15.1971 0 15.3714 0.0448207 15.5208 0.134462C15.6702 0.224104 15.7947 0.328685 15.8943 0.448207C15.9939 0.567729 16.0785 0.687251 16.1483 0.806773C16.218 0.926295 16.2728 1.0259 16.3126 1.10558L19.6592 9.11355L28.8923 9.98008C29.2907 10.0797 29.5696 10.1992 29.7289 10.3386C29.8883 10.4781 29.968 10.6972 29.968 10.996C29.968 11.2749 29.8833 11.5189 29.714 11.7281C29.5447 11.9373 29.3305 12.1912 29.0716 12.49L22.8863 18.0478Z" fill="#FF5A0F"/>
</g>
<defs>
<clipPath id="clip0_204_317">
<rect width="30" height="30" fill="white"/>
</clipPath>
</defs>
</svg>
