<svg width="40" height="40" viewBox="0 0 40 40" fill="none" xmlns="http://www.w3.org/2000/svg">
<g id="chevron-left-small-circle">
<path id="Icon" fill-rule="evenodd" clip-rule="evenodd" d="M20 5C11.7157 5 5 11.7157 5 20C5 28.2843 11.7157 35 20 35C28.2843 35 35 28.2843 35 20C35 11.7157 28.2843 5 20 5ZM2 20C2 10.0589 10.0589 2 20 2C29.9411 2 38 10.0589 38 20C38 29.9411 29.9411 38 20 38C10.0589 38 2 29.9411 2 20ZM23.5992 12.4793C24.1629 13.0864 24.1277 14.0355 23.5207 14.5992L17.7044 20L23.5207 25.4008C24.1277 25.9645 24.1629 26.9136 23.5992 27.5207C23.0355 28.1277 22.0864 28.1629 21.4793 27.5992L14.4793 21.0992C14.1737 20.8154 14 20.4171 14 20C14 19.5829 14.1737 19.1846 14.4793 18.9008L21.4793 12.4008C22.0864 11.8371 23.0355 11.8723 23.5992 12.4793Z" fill="#888888"/>
</g>
</svg>
