<svg width="40" height="40" viewBox="0 0 40 40" fill="none" xmlns="http://www.w3.org/2000/svg">
<g id="chevron-right-small-circle">
<path id="Icon" fill-rule="evenodd" clip-rule="evenodd" d="M20 5C11.7157 5 5 11.7157 5 20C5 28.2843 11.7157 35 20 35C28.2843 35 35 28.2843 35 20C35 11.7157 28.2843 5 20 5ZM2 20C2 10.0589 10.0589 2 20 2C29.9411 2 38 10.0589 38 20C38 29.9411 29.9411 38 20 38C10.0589 38 2 29.9411 2 20ZM16.4008 12.4793C16.9645 11.8723 17.9136 11.8371 18.5207 12.4008L25.5207 18.9008C25.8263 19.1846 26 19.5829 26 20C26 20.4171 25.8263 20.8154 25.5207 21.0992L18.5207 27.5992C17.9136 28.1629 16.9645 28.1277 16.4008 27.5207C15.8371 26.9136 15.8723 25.9645 16.4793 25.4008L22.2956 20L16.4793 14.5992C15.8723 14.0355 15.8371 13.0864 16.4008 12.4793Z" fill="#888888"/>
</g>
</svg>
