<svg width="20" height="20" viewBox="0 0 20 20" fill="none" xmlns="http://www.w3.org/2000/svg">
<g id="check-circle-1">
<path id="Shape" opacity="0.1" d="M10 0C4.47715 0 0 4.47715 0 10C0 15.5228 4.47715 20 10 20C15.5228 20 20 15.5228 20 10C19.9936 4.47982 15.5202 0.00642897 10 0Z" fill="white"/>
<path id="Path" d="M15.7725 6.83337L10.0683 14.5742C9.93228 14.7547 9.72942 14.873 9.50533 14.9024C9.28124 14.9319 9.05472 14.8701 8.87665 14.7309L4.80331 11.4742C4.44387 11.1866 4.38567 10.662 4.67331 10.3025C4.96096 9.94309 5.48554 9.88489 5.84498 10.1725L9.24165 12.89L14.4308 5.84754C14.601 5.5922 14.8977 5.45103 15.2032 5.48007C15.5086 5.50912 15.7734 5.70368 15.8924 5.98652C16.0114 6.26935 15.9653 6.59469 15.7725 6.83337Z" fill="white"/>
</g>
</svg>
