<svg width="20" height="20" viewBox="0 0 20 20" fill="none" xmlns="http://www.w3.org/2000/svg">
<g id="diamond">
<path id="Icon" fill-rule="evenodd" clip-rule="evenodd" d="M5.59027 1.99989C5.61228 1.99994 5.63417 1.99999 5.6559 1.99999H14.3441C14.3658 1.99999 14.3877 1.99994 14.4097 1.99989C14.672 1.99928 14.9522 1.99864 15.2162 2.08293C15.446 2.15633 15.6582 2.27647 15.8394 2.43579C16.0475 2.61877 16.1911 2.85937 16.3255 3.0846C16.3342 3.09908 16.3428 3.1135 16.3514 3.12783L18.5267 6.4364C18.5323 6.44501 18.5378 6.45373 18.5431 6.46256C18.5586 6.48828 18.5743 6.51431 18.5903 6.54063C18.7407 6.78896 18.9074 7.0641 18.9663 7.36776C18.9873 7.47594 18.9976 7.58489 18.9979 7.69319C18.9993 7.71194 19 7.73088 19 7.74999C19 7.79646 18.9958 7.84195 18.9877 7.88609C18.9771 7.98352 18.9585 8.07973 18.9321 8.17367C18.8474 8.47568 18.6597 8.73592 18.4835 8.98027C18.4687 9.00077 18.454 9.02117 18.4394 9.04146C18.4262 9.05983 18.4122 9.07759 18.3974 9.09469L11.8897 16.6247C11.6858 16.9089 11.5049 17.1597 11.3383 17.3511C11.1633 17.5521 10.9463 17.7578 10.6481 17.8767C10.232 18.0426 9.76802 18.0426 9.35187 17.8767C9.0537 17.7578 8.83668 17.5521 8.66168 17.3511C8.49513 17.1597 8.3142 16.9089 8.11032 16.6247L1.60255 9.09469C1.58777 9.07759 1.57377 9.05983 1.5606 9.04146C1.54603 9.02116 1.53131 9.00075 1.51652 8.98024C1.34028 8.7359 1.15258 8.47567 1.06787 8.17367C1.04151 8.0797 1.02285 7.98345 1.0123 7.88599C1.00422 7.84189 1 7.79643 1 7.74999C1 7.7309 1.00071 7.71199 1.00211 7.69326C1.00237 7.58493 1.01273 7.47596 1.03372 7.36776C1.09263 7.06409 1.25931 6.78895 1.40974 6.54062C1.42569 6.5143 1.44145 6.48828 1.45688 6.46256C1.46218 6.45373 1.46766 6.44501 1.47332 6.4364L3.64864 3.12783C3.65722 3.1135 3.66583 3.09908 3.67447 3.0846C3.8089 2.85937 3.95251 2.61877 4.1606 2.43579C4.34179 2.27647 4.55397 2.15633 4.78381 2.08293C5.04778 1.99864 5.32798 1.99928 5.59027 1.99989ZM4.82078 4.07544L2.89794 6.99999H8.05317L4.82078 4.07544ZM10.0004 8.49999C10.0001 8.49999 9.99986 8.49999 9.99957 8.49999H3.07115L9.26738 15.6696C9.28216 15.6867 9.29616 15.7044 9.30934 15.7228C9.53602 16.0388 9.67779 16.2338 9.79314 16.3663C9.86553 16.4495 9.90308 16.4784 9.91353 16.4857C9.96934 16.5062 10.0307 16.5062 10.0865 16.4857C10.0969 16.4784 10.1345 16.4495 10.2069 16.3663C10.3222 16.2338 10.464 16.0388 10.6907 15.7228C10.7038 15.7044 10.7178 15.6867 10.7326 15.6696L16.9289 8.49999H10.0004ZM17.1021 6.99999H11.9468L15.1792 4.07544L17.1021 6.99999ZM13.5795 3.49999H6.42051L10 6.73858L13.5795 3.49999ZM10.0834 16.4877C10.0834 16.4877 10.0836 16.4875 10.0841 16.4873L10.0834 16.4877ZM9.91661 16.4877C9.91661 16.4877 9.91639 16.4876 9.91594 16.4873L9.91661 16.4877Z" fill="#FF5A0F"/>
</g>
</svg>
