<svg width="20" height="20" viewBox="0 0 20 20" fill="none" xmlns="http://www.w3.org/2000/svg">
<g id="diamond">
<path id="Icon" fill-rule="evenodd" clip-rule="evenodd" d="M5.59027 1.9999C5.61228 1.99996 5.63417 2.00001 5.6559 2.00001H14.3441C14.3658 2.00001 14.3877 1.99996 14.4097 1.9999C14.672 1.9993 14.9522 1.99865 15.2162 2.08295C15.446 2.15635 15.6582 2.27648 15.8394 2.43581C16.0475 2.61878 16.1911 2.85939 16.3255 3.08461C16.3342 3.09909 16.3428 3.11351 16.3514 3.12785L18.5267 6.43642C18.5323 6.44502 18.5378 6.45375 18.5431 6.46258C18.5586 6.4883 18.5743 6.51432 18.5903 6.54064C18.7407 6.78897 18.9074 7.06411 18.9663 7.36777C18.9873 7.47596 18.9976 7.5849 18.9979 7.6932C18.9993 7.71195 19 7.7309 19 7.75001C19 7.79648 18.9958 7.84197 18.9877 7.8861C18.9771 7.98353 18.9585 8.07974 18.9321 8.17369C18.8474 8.47569 18.6597 8.73593 18.4835 8.98029C18.4687 9.00079 18.454 9.02118 18.4394 9.04148C18.4262 9.05984 18.4122 9.0776 18.3974 9.09471L11.8897 16.6248C11.6858 16.9089 11.5049 17.1597 11.3383 17.3511C11.1633 17.5521 10.9463 17.7578 10.6481 17.8767C10.232 18.0426 9.76802 18.0426 9.35187 17.8767C9.0537 17.7578 8.83668 17.5521 8.66168 17.3511C8.49513 17.1597 8.3142 16.9089 8.11032 16.6248L1.60255 9.09471C1.58777 9.07761 1.57377 9.05984 1.5606 9.04148C1.54603 9.02117 1.53131 9.00077 1.51652 8.98025C1.34028 8.73592 1.15258 8.47568 1.06787 8.17369C1.04151 8.07971 1.02285 7.98347 1.0123 7.88601C1.00422 7.8419 1 7.79645 1 7.75001C1 7.73092 1.00071 7.712 1.00211 7.69327C1.00237 7.58494 1.01273 7.47598 1.03372 7.36777C1.09263 7.06411 1.25931 6.78897 1.40974 6.54063C1.42569 6.51432 1.44145 6.4883 1.45688 6.46258C1.46218 6.45375 1.46766 6.44503 1.47332 6.43642L3.64864 3.12785C3.65722 3.11351 3.66583 3.0991 3.67447 3.08461C3.8089 2.85939 3.95251 2.61878 4.1606 2.43581C4.34179 2.27648 4.55397 2.15635 4.78381 2.08295C5.04778 1.99865 5.32798 1.9993 5.59027 1.9999ZM4.82078 4.07546L2.89794 7.00001H8.05317L4.82078 4.07546ZM10.0004 8.50001C10.0001 8.50001 9.99986 8.50001 9.99957 8.50001H3.07115L9.26738 15.6696C9.28216 15.6867 9.29616 15.7045 9.30934 15.7228C9.53602 16.0388 9.67779 16.2338 9.79314 16.3663C9.86553 16.4495 9.90308 16.4784 9.91353 16.4857C9.96934 16.5063 10.0307 16.5063 10.0865 16.4857C10.0969 16.4784 10.1345 16.4495 10.2069 16.3663C10.3222 16.2338 10.464 16.0388 10.6907 15.7228C10.7038 15.7045 10.7178 15.6867 10.7326 15.6696L16.9289 8.50001H10.0004ZM17.1021 7.00001H11.9468L15.1792 4.07546L17.1021 7.00001ZM13.5795 3.50001H6.42051L10 6.73859L13.5795 3.50001ZM10.0834 16.4877C10.0834 16.4877 10.0836 16.4875 10.0841 16.4873L10.0834 16.4877ZM9.91661 16.4877C9.91661 16.4877 9.91639 16.4876 9.91594 16.4873L9.91661 16.4877Z" fill="#646464"/>
</g>
</svg>
