<svg width="16" height="16" viewBox="0 0 16 16" fill="none" xmlns="http://www.w3.org/2000/svg">
<g id="emoji-smile" clip-path="url(#clip0_2028_4264)">
<path id="Icon" fill-rule="evenodd" clip-rule="evenodd" d="M8 1.33333C4.3181 1.33333 1.33333 4.3181 1.33333 8C1.33333 11.6819 4.3181 14.6667 8 14.6667C11.6819 14.6667 14.6667 11.6819 14.6667 8C14.6667 4.3181 11.6819 1.33333 8 1.33333ZM0 8C0 3.58172 3.58172 0 8 0C12.4183 0 16 3.58172 16 8C16 12.4183 12.4183 16 8 16C3.58172 16 0 12.4183 0 8ZM4.44444 6.44444C4.44444 6.07625 4.74292 5.77778 5.11111 5.77778H6C6.36819 5.77778 6.66667 6.07625 6.66667 6.44444C6.66667 6.81263 6.36819 7.11111 6 7.11111H5.11111C4.74292 7.11111 4.44444 6.81263 4.44444 6.44444ZM9.33333 6.44444C9.33333 6.07625 9.63181 5.77778 10 5.77778H10.8889C11.2571 5.77778 11.5556 6.07625 11.5556 6.44444C11.5556 6.81263 11.2571 7.11111 10.8889 7.11111H10C9.63181 7.11111 9.33333 6.81263 9.33333 6.44444ZM5.25741 9.84816C5.58673 9.6835 5.98718 9.81698 6.15184 10.1463C6.44961 10.7418 7.167 11.1111 8 11.1111C8.833 11.1111 9.55039 10.7418 9.84816 10.1463C10.0128 9.81698 10.4133 9.6835 10.7426 9.84816C11.0719 10.0128 11.2054 10.4133 11.0407 10.7426C10.4496 11.9248 9.167 12.4444 8 12.4444C6.833 12.4444 5.55039 11.9248 4.95927 10.7426C4.79461 10.4133 4.92809 10.0128 5.25741 9.84816Z" fill="#646464"/>
</g>
<defs>
<clipPath id="clip0_2028_4264">
<rect width="16" height="16" fill="white"/>
</clipPath>
</defs>
</svg>
