<svg width="14" height="14" viewBox="0 0 14 14" fill="none" xmlns="http://www.w3.org/2000/svg">
<g id="info-circle" clip-path="url(#clip0_2044_1167)">
<path id="Icon" fill-rule="evenodd" clip-rule="evenodd" d="M7 1.16667C3.77834 1.16667 1.16667 3.77834 1.16667 7C1.16667 10.2217 3.77834 12.8333 7 12.8333C10.2217 12.8333 12.8333 10.2217 12.8333 7C12.8333 3.77834 10.2217 1.16667 7 1.16667ZM0 7C0 3.13401 3.13401 0 7 0C10.866 0 14 3.13401 14 7C14 10.866 10.866 14 7 14C3.13401 14 0 10.866 0 7ZM7 3.11111C7.32217 3.11111 7.58333 3.37228 7.58333 3.69444V4.86111C7.58333 5.18328 7.32217 5.44444 7 5.44444C6.67783 5.44444 6.41667 5.18328 6.41667 4.86111V3.69444C6.41667 3.37228 6.67783 3.11111 7 3.11111ZM7 7C7.32217 7 7.58333 7.26117 7.58333 7.58333V10.3056C7.58333 10.6277 7.32217 10.8889 7 10.8889C6.67783 10.8889 6.41667 10.6277 6.41667 10.3056V7.58333C6.41667 7.26117 6.67783 7 7 7Z" fill="#BBBBBB"/>
</g>
<defs>
<clipPath id="clip0_2044_1167">
<rect width="14" height="14" fill="white"/>
</clipPath>
</defs>
</svg>
