<svg width="16" height="16" viewBox="0 0 16 16" fill="none" xmlns="http://www.w3.org/2000/svg">
<g id="robot" clip-path="url(#clip0_2028_4261)">
<path id="Icon" fill-rule="evenodd" clip-rule="evenodd" d="M8 1.37143C7.75454 1.37143 7.55556 1.5761 7.55556 1.82857C7.55556 2.08104 7.75454 2.28571 8 2.28571C8.24546 2.28571 8.44444 2.08104 8.44444 1.82857C8.44444 1.5761 8.24546 1.37143 8 1.37143ZM6.22222 1.82857C6.22222 0.818679 7.01816 0 8 0C8.98184 0 9.77778 0.818679 9.77778 1.82857C9.77778 2.59597 9.31818 3.25296 8.66667 3.52422V4.11428L12.6011 4.11428C12.83 4.11427 13.0402 4.11425 13.2159 4.12902C13.4053 4.14494 13.6126 4.18139 13.8173 4.28867C14.11 4.44207 14.348 4.68684 14.4971 4.9879C14.6014 5.19847 14.6369 5.41165 14.6523 5.60652C14.6667 5.78725 14.6667 6.00346 14.6667 6.23887L14.6667 7.50448C15.4515 7.85719 16 8.66271 16 9.6C16 10.5373 15.4515 11.3428 14.6667 11.6955L14.6667 13.8754C14.6667 14.1108 14.6667 14.327 14.6523 14.5078C14.6369 14.7026 14.6014 14.9158 14.4971 15.1264C14.348 15.4274 14.11 15.6722 13.8173 15.8256C13.6126 15.9329 13.4053 15.9693 13.2159 15.9853C13.0402 16 12.83 16 12.6011 16H3.39891C3.17003 16 2.95983 16 2.78411 15.9853C2.59466 15.9693 2.3874 15.9329 2.18268 15.8256C1.88999 15.6722 1.65202 15.4274 1.50288 15.1264C1.39857 14.9158 1.36314 14.7026 1.34766 14.5078C1.3333 14.327 1.33332 14.1108 1.33333 13.8754L1.33333 11.6955C0.548487 11.3428 0 10.5373 0 9.6C0 8.66271 0.548487 7.85719 1.33333 7.50448L1.33333 6.23889C1.33332 6.00347 1.3333 5.78726 1.34766 5.60652C1.36314 5.41165 1.39857 5.19847 1.50288 4.9879C1.65202 4.68684 1.88998 4.44207 2.18268 4.28867C2.3874 4.18139 2.59466 4.14494 2.78411 4.12902C2.95984 4.11425 3.17004 4.11427 3.39892 4.11428C3.40667 4.11428 3.41443 4.11428 3.42222 4.11428H7.33333V3.52422C6.68182 3.25296 6.22222 2.59597 6.22222 1.82857ZM2.66667 13.8514C2.66667 14.1188 2.66719 14.278 2.67656 14.3961C2.68229 14.4681 2.68984 14.4984 2.69229 14.5065C2.71319 14.5474 2.74562 14.5807 2.7853 14.6022C2.7932 14.6047 2.82264 14.6125 2.89269 14.6184C3.00747 14.628 3.16231 14.6286 3.42222 14.6286H12.5778C12.8377 14.6286 12.9925 14.628 13.1073 14.6184C13.1774 14.6125 13.2068 14.6047 13.2147 14.6022C13.2544 14.5807 13.2868 14.5474 13.3077 14.5065C13.3102 14.4984 13.3177 14.4681 13.3234 14.3961C13.3328 14.278 13.3333 14.1188 13.3333 13.8514V6.26286C13.3333 5.99552 13.3328 5.83625 13.3234 5.71819C13.3177 5.64614 13.3102 5.61585 13.3077 5.60774C13.2868 5.56692 13.2544 5.53357 13.2147 5.51207C13.2068 5.50955 13.1774 5.50178 13.1073 5.49589C12.9925 5.48625 12.8377 5.48571 12.5778 5.48571H3.42222C3.16231 5.48571 3.00747 5.48625 2.89269 5.49589C2.82264 5.50178 2.79319 5.50955 2.7853 5.51207C2.74562 5.53357 2.71319 5.56692 2.69229 5.60774C2.68984 5.61585 2.68229 5.64614 2.67656 5.71819C2.66719 5.83625 2.66667 5.99552 2.66667 6.26286V13.8514ZM2.69309 5.60537C2.6931 5.6054 2.69295 5.60587 2.6926 5.60673L2.69309 5.60537ZM2.783 5.51289C2.78297 5.51288 2.7834 5.5127 2.78435 5.51238L2.783 5.51289ZM13.217 5.51289C13.217 5.5129 13.2165 5.51274 13.2157 5.51239L13.217 5.51289ZM13.3069 5.60537C13.3069 5.60535 13.3071 5.60579 13.3074 5.60675L13.3069 5.60537ZM13.3069 14.5089C13.3069 14.5089 13.3071 14.5084 13.3074 14.5076L13.3069 14.5089ZM13.217 14.6014C13.217 14.6014 13.2166 14.6016 13.2157 14.6019L13.217 14.6014ZM2.783 14.6014C2.78304 14.6014 2.78351 14.6015 2.78435 14.6019L2.783 14.6014ZM2.6926 14.5076C2.69295 14.5084 2.6931 14.5089 2.69309 14.5089L2.6926 14.5076ZM4.44444 8.45714C4.44444 8.07843 4.74292 7.77143 5.11111 7.77143H5.55556C5.92375 7.77143 6.22222 8.07843 6.22222 8.45714C6.22222 8.83585 5.92375 9.14286 5.55556 9.14286H5.11111C4.74292 9.14286 4.44444 8.83585 4.44444 8.45714ZM9.77778 8.45714C9.77778 8.07843 10.0763 7.77143 10.4444 7.77143H10.8889C11.2571 7.77143 11.5556 8.07843 11.5556 8.45714C11.5556 8.83585 11.2571 9.14286 10.8889 9.14286H10.4444C10.0763 9.14286 9.77778 8.83585 9.77778 8.45714ZM5.33333 12.5714C5.33333 12.1927 5.63181 11.8857 6 11.8857H10C10.3682 11.8857 10.6667 12.1927 10.6667 12.5714C10.6667 12.9501 10.3682 13.2571 10 13.2571H6C5.63181 13.2571 5.33333 12.9501 5.33333 12.5714Z" fill="#C3C3C3"/>
</g>
<defs>
<clipPath id="clip0_2028_4261">
<rect width="16" height="16" fill="white"/>
</clipPath>
</defs>
</svg>
